<svg width="20" height="20" viewBox="0 0 20 20" fill="none" xmlns="http://www.w3.org/2000/svg">
<rect y="5.26318" width="20" height="14.7368" rx="2" fill="#406AFF"/>
<path fill-rule="evenodd" clip-rule="evenodd" d="M11.5794 2.63158H8.42146C7.54944 2.63158 6.84252 3.3385 6.84252 4.21053V7.36842C6.84252 8.24045 7.54944 8.94737 8.42146 8.94737H11.5794C12.4514 8.94737 13.1583 8.24045 13.1583 7.36842V4.21053C13.1583 3.3385 12.4514 2.63158 11.5794 2.63158ZM8.42146 0C6.09605 0 4.21094 1.88512 4.21094 4.21053V7.36842C4.21094 9.69383 6.09605 11.5789 8.42146 11.5789H11.5794C13.9048 11.5789 15.7899 9.69383 15.7899 7.36842V4.21053C15.7899 1.88512 13.9048 0 11.5794 0H8.42146Z" fill="#406AFF"/>
<rect y="11.579" width="20" height="2.10526" fill="#F1F6FF"/>
</svg>
