<svg width="20" height="18" viewBox="0 0 20 18" fill="none" xmlns="http://www.w3.org/2000/svg">
<path d="M16.1057 0.836059C16.1139 0.559531 16.1185 0.280935 16.1185 0H3.98472C3.98472 0.280979 3.98934 0.559531 3.99756 0.836059H0C0 5.10565 2.61441 8.75726 6.31188 10.2424C7.1181 11.5973 8.08833 12.5238 9.14802 12.8631V16.0672H8.21864C7.36317 16.0672 6.66962 16.7688 6.66962 17.6344V18H13.3303V17.6344C13.3303 16.7688 12.6368 16.0672 11.7813 16.0672H10.9551V12.8631C12.0294 12.5192 13.0115 11.5714 13.8242 10.1861C17.4495 8.6667 20 5.05295 20 0.836059H16.1057ZM1.32351 1.92711H4.05112C4.22414 4.42413 4.72788 6.68982 5.46419 8.51212C2.98023 7.1534 1.32351 4.71253 1.32351 1.92711ZM14.668 8.4386C15.3884 6.62894 15.8814 4.39091 16.0521 1.92711H18.6765C18.6765 4.66289 17.0785 7.06644 14.668 8.4386Z" fill="#0057FF"/>
</svg>
