<svg width="30" height="19" viewBox="0 0 30 19" fill="none" xmlns="http://www.w3.org/2000/svg">
<path d="M23.8433 7.82505C25.6422 7.82505 27.1006 6.07337 27.1006 3.91255C27.1006 1.75168 26.6217 0 23.8433 0C21.0648 0 20.5859 1.75168 20.5859 3.91255C20.5859 6.07337 22.0443 7.82505 23.8433 7.82505Z" fill="#0057FF"/>
<path d="M6.15189 7.82505C7.95075 7.82505 9.40915 6.07337 9.40915 3.91255C9.40915 1.75168 8.93034 0 6.15189 0C3.37344 0 2.89453 1.75168 2.89453 3.91255C2.89453 6.07337 4.35293 7.82505 6.15189 7.82505Z" fill="#0057FF"/>
<path d="M29.9889 13.641C29.9286 9.87682 29.4315 8.80422 25.6274 8.12527C25.6274 8.12527 25.0919 8.80006 23.8438 8.80006C22.5956 8.80006 22.0601 8.12527 22.0601 8.12527C18.2974 8.79682 17.7701 9.8535 17.7007 13.5187C17.6951 13.818 17.6924 13.8338 17.6914 13.799C17.6916 13.8641 17.6919 13.9845 17.6919 14.1945C17.6919 14.1945 18.5976 16 23.8438 16C29.0898 16 29.9956 14.1945 29.9956 14.1945C29.9956 14.0596 29.9957 13.9658 29.9958 13.902C29.9948 13.9234 29.9928 13.8818 29.9889 13.641Z" fill="#0057FF"/>
<path d="M12.2975 13.641C12.2372 9.87682 11.7401 8.80422 7.93595 8.12527C7.93595 8.12527 7.40046 8.80006 6.15235 8.80006C4.90423 8.80006 4.36865 8.12527 4.36865 8.12527C0.606031 8.79682 0.0786777 9.8535 0.00933776 13.5187C0.00365189 13.818 0.00101699 13.8338 0 13.799C0.000231133 13.8641 0.00050839 13.9845 0.00050839 14.1945C0.00050839 14.1945 0.90618 16 6.15235 16C11.3984 16 12.3042 14.1945 12.3042 14.1945C12.3042 14.0596 12.3043 13.9658 12.3044 13.902C12.3034 13.9234 12.3014 13.8818 12.2975 13.641Z" fill="#0057FF"/>
<path d="M22.6067 14.5C22.6067 16.433 23.0323 18.5 21.1324 18.5C19.2325 18.5 15.7266 16.433 15.7266 14.5C15.7266 12.567 16.2839 10 18.1838 10C20.0836 10 22.6067 12.567 22.6067 14.5Z" fill="#F1F6FF"/>
<path d="M14.2512 14C14.2512 12.067 14.6768 10 12.7769 10C10.877 10 7.37109 12.067 7.37109 14C7.37109 15.933 7.92839 18.5 9.82828 18.5C11.7282 18.5 14.2512 15.933 14.2512 14Z" fill="#F1F6FF"/>
<path d="M14.9995 10.825C16.7984 10.825 18.2568 9.07337 18.2568 6.91255C18.2568 4.75168 17.778 3 14.9995 3C12.2211 3 11.7422 4.75168 11.7422 6.91255C11.7422 9.07337 13.2006 10.825 14.9995 10.825Z" fill="#0057FF"/>
<path d="M21.1452 16.641C21.0849 12.8768 20.5877 11.8042 16.7836 11.1253C16.7836 11.1253 16.2481 11.8001 15 11.8001C13.7519 11.8001 13.2163 11.1253 13.2163 11.1253C9.45369 11.7968 8.92633 12.8535 8.85699 16.5187C8.85131 16.818 8.84867 16.8338 8.84766 16.799C8.84789 16.8641 8.84816 16.9845 8.84816 17.1945C8.84816 17.1945 9.75384 19 15 19C20.2461 19 21.1518 17.1945 21.1518 17.1945C21.1518 17.0596 21.1519 16.9658 21.1521 16.902C21.1511 16.9234 21.149 16.8818 21.1452 16.641Z" fill="#0057FF"/>
</svg>
