<svg width="274" height="314" viewBox="0 0 274 314" fill="none" xmlns="http://www.w3.org/2000/svg">
<g filter="url(#filter0_d_953_64)">
<path d="M40 21.197C40 20.5359 40.1608 20 40.3593 20H233.641C233.839 20 234 20.5359 234 21.197V252.624C234 253.285 233.839 253.821 233.641 253.821H40.3593C40.1608 253.821 40 253.285 40 252.624V21.197Z" fill="white"/>
<path d="M115.752 173.376L117.903 174.153V175.068L114.98 173.832V173.183L115.752 173.376ZM117.903 172.741L115.748 173.531L114.98 173.714V173.065L117.903 171.829V172.741Z" fill="#272734"/>
<path d="M122.427 169.853V170.849H121.899V169.853H122.427ZM122.362 175.369V176.277H121.835V175.369H122.362ZM122.735 174.261C122.735 174.132 122.711 174.023 122.663 173.933C122.618 173.843 122.544 173.763 122.44 173.693C122.339 173.624 122.201 173.556 122.027 173.491C121.734 173.378 121.476 173.259 121.253 173.133C121.032 173.004 120.859 172.846 120.735 172.656C120.611 172.465 120.549 172.223 120.549 171.93C120.549 171.651 120.616 171.409 120.749 171.204C120.882 170.999 121.066 170.841 121.3 170.731C121.537 170.618 121.812 170.562 122.126 170.562C122.365 170.562 122.581 170.598 122.775 170.67C122.969 170.74 123.136 170.844 123.276 170.981C123.416 171.116 123.523 171.282 123.597 171.478C123.672 171.673 123.709 171.897 123.709 172.15H122.738C122.738 172.015 122.723 171.895 122.694 171.792C122.665 171.688 122.622 171.601 122.565 171.532C122.511 171.462 122.446 171.41 122.369 171.376C122.292 171.34 122.208 171.322 122.115 171.322C121.978 171.322 121.865 171.349 121.777 171.403C121.689 171.457 121.625 171.53 121.584 171.623C121.546 171.713 121.527 171.816 121.527 171.934C121.527 172.048 121.547 172.149 121.588 172.234C121.63 172.32 121.704 172.399 121.808 172.471C121.911 172.54 122.053 172.612 122.234 172.687C122.527 172.799 122.784 172.921 123.005 173.052C123.226 173.182 123.399 173.342 123.523 173.531C123.647 173.72 123.709 173.961 123.709 174.254C123.709 174.545 123.641 174.792 123.506 174.997C123.371 175.2 123.181 175.355 122.938 175.463C122.694 175.569 122.412 175.622 122.092 175.622C121.884 175.622 121.678 175.595 121.473 175.541C121.267 175.485 121.081 175.395 120.914 175.271C120.748 175.147 120.614 174.983 120.515 174.778C120.416 174.57 120.366 174.316 120.366 174.014H121.341C121.341 174.179 121.362 174.316 121.405 174.426C121.448 174.534 121.504 174.621 121.574 174.686C121.646 174.75 121.727 174.795 121.818 174.822C121.908 174.849 121.999 174.862 122.092 174.862C122.236 174.862 122.354 174.836 122.447 174.784C122.542 174.733 122.613 174.662 122.66 174.572C122.71 174.479 122.735 174.376 122.735 174.261Z" fill="#272734"/>
<path d="M128.472 170.623V175.551H127.498V171.744L126.327 172.116V171.349L128.367 170.623H128.472Z" fill="#272734"/>
<path d="M133.391 172.66V173.511C133.391 173.88 133.352 174.199 133.273 174.467C133.194 174.733 133.08 174.951 132.931 175.122C132.785 175.291 132.61 175.416 132.407 175.497C132.204 175.578 131.978 175.619 131.73 175.619C131.532 175.619 131.347 175.594 131.175 175.544C131.004 175.493 130.849 175.413 130.712 175.305C130.577 175.197 130.459 175.06 130.36 174.896C130.263 174.729 130.189 174.531 130.137 174.301C130.085 174.072 130.059 173.808 130.059 173.511V172.66C130.059 172.29 130.098 171.974 130.177 171.711C130.259 171.445 130.372 171.228 130.519 171.059C130.668 170.89 130.844 170.766 131.047 170.687C131.25 170.606 131.475 170.566 131.723 170.566C131.922 170.566 132.106 170.591 132.275 170.643C132.446 170.693 132.601 170.77 132.738 170.876C132.876 170.982 132.993 171.118 133.09 171.285C133.187 171.449 133.262 171.646 133.313 171.876C133.365 172.104 133.391 172.365 133.391 172.66ZM132.414 173.639V172.528C132.414 172.35 132.403 172.195 132.383 172.062C132.365 171.929 132.337 171.816 132.299 171.724C132.26 171.63 132.213 171.553 132.156 171.494C132.1 171.436 132.036 171.393 131.964 171.366C131.891 171.339 131.811 171.326 131.723 171.326C131.613 171.326 131.515 171.347 131.429 171.39C131.346 171.432 131.275 171.501 131.216 171.596C131.157 171.688 131.112 171.812 131.081 171.967C131.051 172.12 131.037 172.307 131.037 172.528V173.639C131.037 173.817 131.046 173.974 131.064 174.109C131.084 174.244 131.113 174.36 131.152 174.457C131.192 174.551 131.24 174.629 131.294 174.69C131.35 174.748 131.414 174.791 131.487 174.818C131.561 174.845 131.642 174.859 131.73 174.859C131.838 174.859 131.934 174.837 132.018 174.795C132.103 174.75 132.176 174.68 132.234 174.585C132.295 174.488 132.34 174.362 132.37 174.207C132.399 174.051 132.414 173.862 132.414 173.639Z" fill="#272734"/>
<path d="M137.37 172.66V173.511C137.37 173.88 137.33 174.199 137.251 174.467C137.172 174.733 137.059 174.951 136.91 175.122C136.763 175.291 136.588 175.416 136.385 175.497C136.182 175.578 135.957 175.619 135.709 175.619C135.51 175.619 135.325 175.594 135.154 175.544C134.982 175.493 134.828 175.413 134.69 175.305C134.555 175.197 134.438 175.06 134.339 174.896C134.242 174.729 134.167 174.531 134.115 174.301C134.063 174.072 134.037 173.808 134.037 173.511V172.66C134.037 172.29 134.077 171.974 134.156 171.711C134.237 171.445 134.351 171.228 134.498 171.059C134.646 170.89 134.822 170.766 135.025 170.687C135.228 170.606 135.454 170.566 135.702 170.566C135.9 170.566 136.084 170.591 136.253 170.643C136.425 170.693 136.579 170.77 136.717 170.876C136.854 170.982 136.972 171.118 137.069 171.285C137.166 171.449 137.24 171.646 137.292 171.876C137.344 172.104 137.37 172.365 137.37 172.66ZM136.392 173.639V172.528C136.392 172.35 136.382 172.195 136.362 172.062C136.344 171.929 136.315 171.816 136.277 171.724C136.239 171.63 136.191 171.553 136.135 171.494C136.079 171.436 136.014 171.393 135.942 171.366C135.87 171.339 135.79 171.326 135.702 171.326C135.591 171.326 135.493 171.347 135.408 171.39C135.324 171.432 135.253 171.501 135.194 171.596C135.136 171.688 135.091 171.812 135.059 171.967C135.03 172.12 135.015 172.307 135.015 172.528V173.639C135.015 173.817 135.024 173.974 135.042 174.109C135.063 174.244 135.092 174.36 135.13 174.457C135.171 174.551 135.218 174.629 135.272 174.69C135.329 174.748 135.393 174.791 135.465 174.818C135.54 174.845 135.621 174.859 135.709 174.859C135.817 174.859 135.913 174.837 135.996 174.795C136.082 174.75 136.154 174.68 136.213 174.585C136.274 174.488 136.319 174.362 136.348 174.207C136.377 174.051 136.392 173.862 136.392 173.639Z" fill="#272734"/>
<path d="M143.074 172.66V173.511C143.074 173.88 143.034 174.199 142.955 174.467C142.876 174.733 142.762 174.951 142.614 175.122C142.467 175.291 142.292 175.416 142.089 175.497C141.886 175.578 141.661 175.619 141.413 175.619C141.214 175.619 141.029 175.594 140.858 175.544C140.686 175.493 140.532 175.413 140.394 175.305C140.259 175.197 140.142 175.06 140.042 174.896C139.945 174.729 139.871 174.531 139.819 174.301C139.767 174.072 139.741 173.808 139.741 173.511V172.66C139.741 172.29 139.781 171.974 139.86 171.711C139.941 171.445 140.055 171.228 140.201 171.059C140.35 170.89 140.526 170.766 140.729 170.687C140.932 170.606 141.158 170.566 141.406 170.566C141.604 170.566 141.788 170.591 141.957 170.643C142.129 170.693 142.283 170.77 142.421 170.876C142.558 170.982 142.676 171.118 142.773 171.285C142.87 171.449 142.944 171.646 142.996 171.876C143.048 172.104 143.074 172.365 143.074 172.66ZM142.096 173.639V172.528C142.096 172.35 142.086 172.195 142.066 172.062C142.047 171.929 142.019 171.816 141.981 171.724C141.943 171.63 141.895 171.553 141.839 171.494C141.782 171.436 141.718 171.393 141.646 171.366C141.574 171.339 141.494 171.326 141.406 171.326C141.295 171.326 141.197 171.347 141.111 171.39C141.028 171.432 140.957 171.501 140.898 171.596C140.84 171.688 140.795 171.812 140.763 171.967C140.734 172.12 140.719 172.307 140.719 172.528V173.639C140.719 173.817 140.728 173.974 140.746 174.109C140.766 174.244 140.796 174.36 140.834 174.457C140.875 174.551 140.922 174.629 140.976 174.69C141.033 174.748 141.097 174.791 141.169 174.818C141.243 174.845 141.325 174.859 141.413 174.859C141.521 174.859 141.617 174.837 141.7 174.795C141.786 174.75 141.858 174.68 141.917 174.585C141.978 174.488 142.023 174.362 142.052 174.207C142.081 174.051 142.096 173.862 142.096 173.639Z" fill="#272734"/>
<path d="M147.052 172.66V173.511C147.052 173.88 147.013 174.199 146.934 174.467C146.855 174.733 146.741 174.951 146.592 175.122C146.445 175.291 146.271 175.416 146.068 175.497C145.865 175.578 145.639 175.619 145.391 175.619C145.193 175.619 145.008 175.594 144.836 175.544C144.665 175.493 144.51 175.413 144.373 175.305C144.237 175.197 144.12 175.06 144.021 174.896C143.924 174.729 143.85 174.531 143.798 174.301C143.746 174.072 143.72 173.808 143.72 173.511V172.66C143.72 172.29 143.759 171.974 143.838 171.711C143.919 171.445 144.033 171.228 144.18 171.059C144.329 170.89 144.505 170.766 144.708 170.687C144.911 170.606 145.136 170.566 145.384 170.566C145.583 170.566 145.767 170.591 145.936 170.643C146.107 170.693 146.262 170.77 146.399 170.876C146.537 170.982 146.654 171.118 146.751 171.285C146.848 171.449 146.922 171.646 146.974 171.876C147.026 172.104 147.052 172.365 147.052 172.66ZM146.074 173.639V172.528C146.074 172.35 146.064 172.195 146.044 172.062C146.026 171.929 145.998 171.816 145.959 171.724C145.921 171.63 145.874 171.553 145.817 171.494C145.761 171.436 145.697 171.393 145.625 171.366C145.552 171.339 145.472 171.326 145.384 171.326C145.274 171.326 145.176 171.347 145.09 171.39C145.007 171.432 144.935 171.501 144.877 171.596C144.818 171.688 144.773 171.812 144.742 171.967C144.712 172.12 144.698 172.307 144.698 172.528V173.639C144.698 173.817 144.707 173.974 144.725 174.109C144.745 174.244 144.774 174.36 144.813 174.457C144.853 174.551 144.901 174.629 144.955 174.69C145.011 174.748 145.075 174.791 145.147 174.818C145.222 174.845 145.303 174.859 145.391 174.859C145.499 174.859 145.595 174.837 145.679 174.795C145.764 174.75 145.837 174.68 145.895 174.585C145.956 174.488 146.001 174.362 146.03 174.207C146.06 174.051 146.074 173.862 146.074 173.639Z" fill="#272734"/>
<path d="M151.031 172.66V173.511C151.031 173.88 150.991 174.199 150.912 174.467C150.833 174.733 150.719 174.951 150.571 175.122C150.424 175.291 150.249 175.416 150.046 175.497C149.843 175.578 149.618 175.619 149.37 175.619C149.171 175.619 148.986 175.594 148.815 175.544C148.643 175.493 148.489 175.413 148.351 175.305C148.216 175.197 148.099 175.06 147.999 174.896C147.902 174.729 147.828 174.531 147.776 174.301C147.724 174.072 147.698 173.808 147.698 173.511V172.66C147.698 172.29 147.738 171.974 147.817 171.711C147.898 171.445 148.012 171.228 148.158 171.059C148.307 170.89 148.483 170.766 148.686 170.687C148.889 170.606 149.115 170.566 149.363 170.566C149.561 170.566 149.745 170.591 149.914 170.643C150.086 170.693 150.24 170.77 150.378 170.876C150.515 170.982 150.633 171.118 150.73 171.285C150.827 171.449 150.901 171.646 150.953 171.876C151.005 172.104 151.031 172.365 151.031 172.66ZM150.053 173.639V172.528C150.053 172.35 150.043 172.195 150.023 172.062C150.004 171.929 149.976 171.816 149.938 171.724C149.9 171.63 149.852 171.553 149.796 171.494C149.739 171.436 149.675 171.393 149.603 171.366C149.531 171.339 149.451 171.326 149.363 171.326C149.252 171.326 149.154 171.347 149.069 171.39C148.985 171.432 148.914 171.501 148.855 171.596C148.797 171.688 148.752 171.812 148.72 171.967C148.691 172.12 148.676 172.307 148.676 172.528V173.639C148.676 173.817 148.685 173.974 148.703 174.109C148.723 174.244 148.753 174.36 148.791 174.457C148.832 174.551 148.879 174.629 148.933 174.69C148.99 174.748 149.054 174.791 149.126 174.818C149.2 174.845 149.282 174.859 149.37 174.859C149.478 174.859 149.574 174.837 149.657 174.795C149.743 174.75 149.815 174.68 149.874 174.585C149.935 174.488 149.98 174.362 150.009 174.207C150.038 174.051 150.053 173.862 150.053 173.639Z" fill="#272734"/>
<path fill-rule="evenodd" clip-rule="evenodd" d="M134.924 141.291C117.547 141.291 103.514 155.31 103.514 172.537C103.514 189.763 117.547 203.782 134.924 203.782C152.3 203.782 166.333 189.763 166.333 172.537C166.333 155.31 152.3 141.291 134.924 141.291ZM79.957 172.537C79.957 142.261 104.596 117.771 134.924 117.771C165.251 117.771 189.89 142.261 189.89 172.537C189.89 202.813 165.251 227.303 134.924 227.303C104.596 227.303 79.957 202.813 79.957 172.537Z" fill="#22427A"/>
<path fill-rule="evenodd" clip-rule="evenodd" d="M106.062 160.18C104.426 163.956 103.514 168.125 103.514 172.537C103.514 189.763 117.547 203.782 134.924 203.782V227.303C104.596 227.303 79.957 202.813 79.957 172.537C79.957 164.851 81.5528 157.507 84.4429 150.839L106.062 160.18Z" fill="#2D4F8A"/>
<path fill-rule="evenodd" clip-rule="evenodd" d="M105.586 183.749C110.118 195.471 121.545 203.783 134.916 203.783V227.303C111.518 227.303 91.5422 212.737 83.6094 192.219L105.586 183.749Z" fill="#3F67AB"/>
<path fill-rule="evenodd" clip-rule="evenodd" d="M134.922 203.782C152.298 203.782 166.331 189.764 166.331 172.537H189.888C189.888 202.813 165.249 227.303 134.922 227.303C129.323 227.303 123.9 226.465 118.781 224.901L125.678 202.411C128.586 203.3 131.686 203.782 134.922 203.782Z" fill="#486FBF"/>
<path fill-rule="evenodd" clip-rule="evenodd" d="M166.329 172.997C166.329 154.409 152.834 141.061 132.148 141.061V117.541C164.581 117.541 189.887 140.193 189.887 172.997C189.887 184.86 185.331 195.884 179.633 204.529L159.954 191.6C163.957 185.526 166.329 178.952 166.329 172.997Z" fill="#3262C0"/>
<path d="M62.7965 44.7211H63.8678C63.8335 45.129 63.7193 45.4927 63.525 45.8121C63.3307 46.1287 63.0579 46.3783 62.7065 46.5609C62.3551 46.7434 61.928 46.8347 61.4252 46.8347C61.0395 46.8347 60.6924 46.7663 60.3839 46.6293C60.0754 46.4896 59.8111 46.2928 59.5911 46.0389C59.3712 45.7822 59.2026 45.4727 59.0855 45.1104C58.9712 44.7482 58.9141 44.3432 58.9141 43.8953V43.3776C58.9141 42.9298 58.9726 42.5248 59.0898 42.1625C59.2097 41.8003 59.3812 41.4908 59.604 41.2341C59.8268 40.9745 60.0939 40.7762 60.4053 40.6393C60.7196 40.5024 61.0724 40.434 61.4638 40.434C61.9609 40.434 62.3808 40.5252 62.7236 40.7078C63.0665 40.8903 63.3322 41.1428 63.5207 41.4651C63.7121 41.7874 63.8292 42.1568 63.8721 42.5732H62.8008C62.7722 42.3051 62.7094 42.0755 62.6122 41.8844C62.518 41.6933 62.378 41.5478 62.1923 41.448C62.0066 41.3453 61.7638 41.294 61.4638 41.294C61.2181 41.294 61.0038 41.3396 60.821 41.4309C60.6382 41.5221 60.4853 41.6562 60.3625 41.8331C60.2396 42.0099 60.1468 42.2281 60.0839 42.4877C60.0239 42.7444 59.9939 43.0382 59.9939 43.3691V43.8953C59.9939 44.2091 60.0211 44.4943 60.0754 44.751C60.1325 45.0049 60.2182 45.2231 60.3325 45.4057C60.4496 45.5882 60.5982 45.7294 60.7781 45.8292C60.9581 45.9291 61.1738 45.979 61.4252 45.979C61.7309 45.979 61.978 45.9305 62.1666 45.8335C62.358 45.7365 62.5022 45.5954 62.5994 45.4099C62.6994 45.2217 62.7651 44.9921 62.7965 44.7211Z" fill="#272734"/>
<path d="M65.7619 40.1772V46.7491H64.7334V40.1772H65.7619ZM65.5819 44.2633L65.2477 44.259C65.2505 43.9395 65.2948 43.6443 65.3805 43.3733C65.4691 43.1024 65.5919 42.867 65.749 42.6674C65.909 42.4649 66.1004 42.3094 66.3233 42.201C66.5461 42.0898 66.7932 42.0341 67.0646 42.0341C67.2932 42.0341 67.4988 42.0655 67.6817 42.1283C67.8674 42.191 68.0274 42.2923 68.1616 42.4321C68.2959 42.569 68.3973 42.7487 68.4659 42.9712C68.5373 43.1908 68.573 43.4589 68.573 43.7755V46.7491H67.536V43.767C67.536 43.5445 67.5031 43.3676 67.4374 43.2364C67.3746 43.1052 67.2817 43.0111 67.1589 42.954C67.036 42.8941 66.8861 42.8642 66.7089 42.8642C66.5232 42.8642 66.359 42.9013 66.2161 42.9754C66.0761 43.0496 65.959 43.1509 65.8647 43.2792C65.7705 43.4076 65.699 43.5559 65.6505 43.7242C65.6048 43.8925 65.5819 44.0722 65.5819 44.2633Z" fill="#272734"/>
<path d="M72.2326 45.8207V43.6129C72.2326 43.4475 72.2026 43.3049 72.1426 43.1851C72.0826 43.0653 71.9912 42.9726 71.8684 42.907C71.7484 42.8414 71.597 42.8086 71.4141 42.8086C71.2456 42.8086 71.0999 42.8371 70.977 42.8941C70.8542 42.9512 70.7585 43.0282 70.6899 43.1252C70.6214 43.2222 70.5871 43.332 70.5871 43.4546H69.5586C69.5586 43.2721 69.6029 43.0952 69.6915 42.9241C69.78 42.7529 69.9086 42.6003 70.0771 42.4663C70.2457 42.3322 70.4471 42.2267 70.6814 42.1497C70.9156 42.0727 71.1784 42.0341 71.4698 42.0341C71.8184 42.0341 72.1269 42.0926 72.3955 42.2096C72.6669 42.3265 72.8797 42.5034 73.034 42.7401C73.1911 42.974 73.2696 43.2678 73.2696 43.6215V45.6795C73.2696 45.8906 73.2839 46.0803 73.3125 46.2485C73.3439 46.414 73.3882 46.558 73.4453 46.6807V46.7491H72.3869C72.3383 46.6379 72.2998 46.4967 72.2712 46.3256C72.2455 46.1516 72.2326 45.9833 72.2326 45.8207ZM72.3826 43.9338L72.3912 44.5713H71.6498C71.4584 44.5713 71.2899 44.5899 71.1442 44.627C70.9985 44.6612 70.8771 44.7125 70.7799 44.781C70.6828 44.8495 70.6099 44.9322 70.5614 45.0292C70.5128 45.1261 70.4885 45.2359 70.4885 45.3586C70.4885 45.4813 70.5171 45.5939 70.5742 45.6966C70.6314 45.7964 70.7142 45.8749 70.8228 45.9319C70.9342 45.989 71.0685 46.0175 71.2256 46.0175C71.437 46.0175 71.6213 45.9747 71.7784 45.8891C71.9384 45.8007 72.0641 45.6938 72.1555 45.5683C72.2469 45.4399 72.2955 45.3187 72.3012 45.2046L72.6354 45.6624C72.6011 45.7793 72.5426 45.9048 72.4597 46.0389C72.3769 46.173 72.2683 46.3013 72.1341 46.424C72.0026 46.5438 71.8441 46.6422 71.6584 46.7192C71.4756 46.7962 71.2642 46.8347 71.0242 46.8347C70.7214 46.8347 70.4514 46.7748 70.2143 46.655C69.9771 46.5324 69.7915 46.3683 69.6572 46.163C69.5229 45.9548 69.4558 45.7194 69.4558 45.457C69.4558 45.2117 69.5015 44.9949 69.5929 44.8067C69.6872 44.6156 69.8243 44.4558 70.0043 44.3275C70.1871 44.1991 70.41 44.1021 70.6728 44.0365C70.9356 43.9681 71.2356 43.9338 71.5727 43.9338H72.3826Z" fill="#272734"/>
<path d="M75.3866 43.0011V46.7491H74.3538V42.1197H75.3394L75.3866 43.0011ZM76.805 42.0898L76.7964 43.0482C76.7336 43.0368 76.665 43.0282 76.5907 43.0225C76.5193 43.0168 76.4479 43.0139 76.3765 43.0139C76.1993 43.0139 76.0436 43.0396 75.9094 43.091C75.7751 43.1394 75.6622 43.2108 75.5708 43.3049C75.4823 43.3962 75.4137 43.5074 75.3651 43.6386C75.3166 43.7698 75.288 43.9167 75.2794 44.0793L75.0437 44.0964C75.0437 43.8055 75.0723 43.5359 75.1294 43.2878C75.1866 43.0396 75.2723 42.8214 75.3866 42.6331C75.5037 42.4449 75.6494 42.298 75.8237 42.1925C76.0008 42.0869 76.205 42.0341 76.4364 42.0341C76.4993 42.0341 76.5664 42.0399 76.6379 42.0513C76.7121 42.0627 76.7678 42.0755 76.805 42.0898Z" fill="#272734"/>
<path d="M79.7918 42.1197V42.8727H77.1778V42.1197H79.7918ZM77.932 40.9859H78.9647V45.4698C78.9647 45.6125 78.9847 45.7223 79.0247 45.7993C79.0676 45.8735 79.1262 45.9234 79.2004 45.949C79.2747 45.9747 79.3618 45.9876 79.4618 45.9876C79.5333 45.9876 79.6018 45.9833 79.6675 45.9747C79.7332 45.9662 79.7861 45.9576 79.8261 45.949L79.8304 46.7363C79.7447 46.762 79.6447 46.7848 79.5304 46.8048C79.419 46.8247 79.2904 46.8347 79.1447 46.8347C78.9076 46.8347 78.6976 46.7934 78.5148 46.7106C78.332 46.6251 78.1891 46.4867 78.0863 46.2956C77.9834 46.1045 77.932 45.8506 77.932 45.534V40.9859Z" fill="#272734"/>
<path d="M83.19 45.4955C83.19 45.3928 83.1643 45.3001 83.1129 45.2174C83.0614 45.1318 82.9629 45.0548 82.8172 44.9864C82.6743 44.9179 82.4629 44.8552 82.183 44.7981C81.9373 44.7439 81.7116 44.6797 81.5059 44.6056C81.3031 44.5286 81.1288 44.4359 80.9831 44.3275C80.8374 44.2191 80.7246 44.0907 80.6446 43.9424C80.5646 43.7941 80.5246 43.6229 80.5246 43.429C80.5246 43.2407 80.566 43.0624 80.6488 42.8941C80.7317 42.7259 80.8503 42.5775 81.0045 42.4492C81.1588 42.3208 81.3459 42.2196 81.5659 42.1454C81.7887 42.0712 82.0373 42.0341 82.3115 42.0341C82.7001 42.0341 83.0329 42.0998 83.31 42.231C83.59 42.3593 83.8042 42.5347 83.9528 42.7572C84.1013 42.9769 84.1756 43.225 84.1756 43.5017H83.1429C83.1429 43.379 83.1114 43.265 83.0486 43.1594C82.9886 43.051 82.8972 42.964 82.7743 42.8984C82.6515 42.83 82.4972 42.7957 82.3115 42.7957C82.1344 42.7957 81.9873 42.8243 81.8701 42.8813C81.7559 42.9355 81.6702 43.0068 81.613 43.0952C81.5588 43.1837 81.5316 43.2806 81.5316 43.3862C81.5316 43.4632 81.5459 43.5331 81.5745 43.5958C81.6059 43.6557 81.6573 43.7114 81.7287 43.7627C81.8002 43.8112 81.8973 43.8568 82.0201 43.8996C82.1458 43.9424 82.303 43.9838 82.4915 44.0237C82.8458 44.0978 83.15 44.1934 83.4043 44.3104C83.6614 44.4244 83.8585 44.5728 83.9956 44.7553C84.1328 44.935 84.2013 45.1632 84.2013 45.4399C84.2013 45.6453 84.157 45.8335 84.0685 46.0047C83.9828 46.173 83.8571 46.3199 83.6914 46.4454C83.5257 46.568 83.3271 46.6636 83.0957 46.732C82.8672 46.8005 82.6101 46.8347 82.3244 46.8347C81.9044 46.8347 81.5487 46.7605 81.2574 46.6122C80.966 46.461 80.7446 46.2685 80.5931 46.0346C80.4446 45.7979 80.3703 45.5526 80.3703 45.2987H81.3688C81.3802 45.4898 81.433 45.6424 81.5273 45.7565C81.6245 45.8678 81.7444 45.949 81.8873 46.0004C82.033 46.0489 82.183 46.0731 82.3372 46.0731C82.5229 46.0731 82.6786 46.0489 82.8043 46.0004C82.93 45.949 83.0257 45.8806 83.0914 45.795C83.1571 45.7066 83.19 45.6068 83.19 45.4955Z" fill="#272734"/>
<g filter="url(#filter1_d_953_64)">
<path d="M58.4727 63.3508C58.4727 62.5867 59.0931 61.9673 59.8584 61.9673H203.511C204.276 61.9673 204.896 62.5867 204.896 63.3508V75.8028C204.896 76.567 204.276 77.1864 203.511 77.1864H59.8584C59.0931 77.1864 58.4727 76.567 58.4727 75.8028V63.3508Z" fill="#F3F5FA"/>
</g>
<path d="M169.341 71.1932V71.6528H167.08V71.1932H169.341ZM167.195 67.3904V71.6528H166.629V67.3904H167.195ZM169.042 69.223V69.6826H167.08V69.223H169.042ZM169.312 67.3904V67.853H167.08V67.3904H169.312Z" fill="#69717D"/>
<path d="M170.326 68.4853L171.021 69.6387L171.725 68.4853H172.361L171.323 70.0486L172.393 71.6528H171.766L171.033 70.4643L170.3 71.6528H169.669L170.737 70.0486L169.702 68.4853H170.326Z" fill="#69717D"/>
<path d="M174.15 71.2664C174.279 71.2664 174.398 71.24 174.507 71.1873C174.617 71.1347 174.707 71.0624 174.777 70.9707C174.847 70.877 174.887 70.7707 174.897 70.6516H175.413C175.403 70.839 175.34 71.0136 175.223 71.1756C175.107 71.3357 174.956 71.4655 174.768 71.565C174.581 71.6626 174.374 71.7114 174.15 71.7114C173.911 71.7114 173.703 71.6694 173.525 71.5855C173.349 71.5016 173.202 71.3864 173.085 71.24C172.97 71.0937 172.883 70.9258 172.824 70.7365C172.768 70.5453 172.739 70.3433 172.739 70.1305V70.0076C172.739 69.7949 172.768 69.5938 172.824 69.4045C172.883 69.2133 172.97 69.0445 173.085 68.8981C173.202 68.7517 173.349 68.6366 173.525 68.5526C173.703 68.4687 173.911 68.4268 174.15 68.4268C174.398 68.4268 174.615 68.4775 174.8 68.579C174.986 68.6785 175.132 68.8151 175.237 68.9888C175.345 69.1606 175.403 69.3557 175.413 69.5743H174.897C174.887 69.4436 174.85 69.3255 174.786 69.2201C174.723 69.1147 174.637 69.0308 174.528 68.9683C174.42 68.9039 174.294 68.8717 174.15 68.8717C173.983 68.8717 173.844 68.9049 173.73 68.9713C173.619 69.0357 173.53 69.1235 173.463 69.2347C173.399 69.344 173.352 69.466 173.323 69.6007C173.295 69.7334 173.282 69.869 173.282 70.0076V70.1305C173.282 70.2691 173.295 70.4057 173.323 70.5404C173.35 70.675 173.396 70.797 173.46 70.9063C173.527 71.0156 173.616 71.1034 173.727 71.1698C173.841 71.2342 173.981 71.2664 174.15 71.2664Z" fill="#69717D"/>
<path d="M176.565 67.1562V71.6528H176.023V67.1562H176.565ZM176.436 69.949L176.211 69.9403C176.213 69.7236 176.245 69.5236 176.307 69.3401C176.37 69.1547 176.458 68.9937 176.571 68.8571C176.685 68.7205 176.82 68.6151 176.976 68.5409C177.134 68.4648 177.309 68.4268 177.501 68.4268C177.657 68.4268 177.798 68.4482 177.923 68.4912C178.048 68.5322 178.155 68.5985 178.243 68.6902C178.333 68.782 178.401 68.901 178.448 69.0474C178.495 69.1918 178.518 69.3684 178.518 69.5772V71.6528H177.973V69.5714C177.973 69.4055 177.948 69.2728 177.9 69.1733C177.851 69.0718 177.779 68.9986 177.686 68.9537C177.592 68.9069 177.476 68.8834 177.34 68.8834C177.205 68.8834 177.082 68.9117 176.97 68.9683C176.861 69.0249 176.766 69.103 176.686 69.2025C176.608 69.3021 176.546 69.4162 176.501 69.545C176.458 69.6719 176.436 69.8066 176.436 69.949Z" fill="#69717D"/>
<path d="M181.201 71.1112V69.4806C181.201 69.3557 181.176 69.2474 181.125 69.1557C181.076 69.062 181.002 68.9898 180.902 68.9391C180.802 68.8883 180.679 68.863 180.533 68.863C180.396 68.863 180.275 68.8864 180.172 68.9332C180.07 68.98 179.99 69.0415 179.931 69.1176C179.875 69.1938 179.846 69.2757 179.846 69.3635H179.304C179.304 69.2504 179.333 69.1381 179.392 69.0269C179.451 68.9156 179.535 68.8151 179.644 68.7254C179.756 68.6336 179.888 68.5614 180.043 68.5087C180.199 68.4541 180.373 68.4268 180.565 68.4268C180.795 68.4268 180.999 68.4658 181.175 68.5439C181.352 68.6219 181.491 68.74 181.591 68.8981C181.693 69.0542 181.743 69.2504 181.743 69.4865V70.9619C181.743 71.0673 181.752 71.1795 181.77 71.2986C181.789 71.4176 181.818 71.5201 181.855 71.606V71.6528H181.289C181.262 71.5904 181.24 71.5074 181.224 71.404C181.209 71.2986 181.201 71.201 181.201 71.1112ZM181.295 69.7324L181.301 70.113H180.752C180.598 70.113 180.46 70.1257 180.339 70.151C180.218 70.1744 180.116 70.2106 180.034 70.2593C179.952 70.3081 179.889 70.3696 179.846 70.4438C179.803 70.516 179.782 70.6009 179.782 70.6985C179.782 70.798 179.804 70.8887 179.849 70.9707C179.894 71.0527 179.962 71.1181 180.052 71.1669C180.144 71.2137 180.256 71.2371 180.389 71.2371C180.555 71.2371 180.702 71.202 180.829 71.1317C180.956 71.0615 181.056 70.9756 181.131 70.8741C181.207 70.7726 181.248 70.6741 181.254 70.5784L181.485 70.839C181.472 70.9209 181.435 71.0117 181.374 71.1112C181.313 71.2108 181.232 71.3064 181.131 71.3981C181.031 71.4879 180.912 71.563 180.773 71.6235C180.636 71.6821 180.482 71.7114 180.31 71.7114C180.095 71.7114 179.906 71.6694 179.744 71.5855C179.584 71.5016 179.458 71.3893 179.369 71.2488C179.281 71.1064 179.237 70.9473 179.237 70.7716C179.237 70.6019 179.27 70.4526 179.336 70.3237C179.403 70.193 179.498 70.0847 179.624 69.9988C179.749 69.911 179.899 69.8446 180.075 69.7997C180.251 69.7548 180.447 69.7324 180.664 69.7324H181.295Z" fill="#69717D"/>
<path d="M183.139 69.1616V71.6528H182.597V68.4853H183.11L183.139 69.1616ZM183.01 69.949L182.784 69.9403C182.786 69.7236 182.819 69.5236 182.881 69.3401C182.944 69.1547 183.032 68.9937 183.145 68.8571C183.258 68.7205 183.393 68.6151 183.55 68.5409C183.708 68.4648 183.883 68.4268 184.074 68.4268C184.231 68.4268 184.371 68.4482 184.497 68.4912C184.622 68.5322 184.728 68.5985 184.816 68.6902C184.906 68.782 184.975 68.901 185.021 69.0474C185.068 69.1918 185.092 69.3684 185.092 69.5772V71.6528H184.546V69.5714C184.546 69.4055 184.522 69.2728 184.473 69.1733C184.424 69.0718 184.353 68.9986 184.259 68.9537C184.165 68.9069 184.05 68.8834 183.913 68.8834C183.778 68.8834 183.655 68.9117 183.544 68.9683C183.434 69.0249 183.339 69.103 183.259 69.2025C183.181 69.3021 183.12 69.4162 183.075 69.545C183.032 69.6719 183.01 69.8066 183.01 69.949Z" fill="#69717D"/>
<path d="M187.971 68.4853H188.464V71.5855C188.464 71.8646 188.407 72.1027 188.294 72.2998C188.18 72.4969 188.022 72.6462 187.819 72.7477C187.617 72.8511 187.385 72.9028 187.121 72.9028C187.011 72.9028 186.882 72.8853 186.734 72.8501C186.587 72.817 186.442 72.7594 186.3 72.6774C186.159 72.5974 186.041 72.4891 185.945 72.3525L186.229 72.0304C186.362 72.1905 186.501 72.3017 186.646 72.3642C186.792 72.4266 186.937 72.4579 187.08 72.4579C187.252 72.4579 187.4 72.4257 187.525 72.3613C187.65 72.2968 187.747 72.2012 187.816 72.0744C187.886 71.9495 187.921 71.7953 187.921 71.6118V69.182L187.971 68.4853ZM185.787 70.1042V70.0427C185.787 69.8007 185.815 69.5812 185.872 69.384C185.93 69.185 186.013 69.0142 186.121 68.8717C186.23 68.7293 186.362 68.62 186.517 68.5439C186.671 68.4658 186.845 68.4268 187.039 68.4268C187.238 68.4268 187.412 68.4619 187.561 68.5322C187.711 68.6005 187.838 68.701 187.942 68.8337C188.047 68.9644 188.13 69.1225 188.191 69.3079C188.252 69.4933 188.294 69.7031 188.317 69.9373V70.2066C188.296 70.4389 188.253 70.6477 188.191 70.8331C188.13 71.0185 188.047 71.1766 187.942 71.3074C187.838 71.4381 187.711 71.5386 187.561 71.6089C187.41 71.6772 187.234 71.7114 187.033 71.7114C186.843 71.7114 186.671 71.6713 186.517 71.5913C186.364 71.5113 186.233 71.3991 186.124 71.2547C186.014 71.1103 185.93 70.9405 185.872 70.7453C185.815 70.5482 185.787 70.3345 185.787 70.1042ZM186.329 70.0427V70.1042C186.329 70.2623 186.345 70.4106 186.376 70.5492C186.409 70.6877 186.459 70.8097 186.526 70.9151C186.594 71.0205 186.681 71.1034 186.786 71.1639C186.892 71.2225 187.018 71.2517 187.165 71.2517C187.345 71.2517 187.493 71.2137 187.61 71.1376C187.728 71.0615 187.821 70.961 187.889 70.8361C187.959 70.7111 188.014 70.5755 188.053 70.4291V69.7236C188.032 69.6163 187.998 69.5128 187.953 69.4133C187.91 69.3118 187.854 69.2221 187.783 69.144C187.715 69.064 187.63 69.0005 187.528 68.9537C187.427 68.9069 187.307 68.8834 187.171 68.8834C187.022 68.8834 186.894 68.9147 186.786 68.9771C186.681 69.0376 186.594 69.1215 186.526 69.2289C186.459 69.3343 186.409 69.4572 186.376 69.5977C186.345 69.7363 186.329 69.8846 186.329 70.0427Z" fill="#69717D"/>
<path d="M190.604 71.7114C190.383 71.7114 190.183 71.6743 190.003 71.6001C189.825 71.524 189.672 71.4176 189.543 71.281C189.416 71.1444 189.318 70.9824 189.249 70.7951C189.181 70.6077 189.147 70.4028 189.147 70.1803V70.0573C189.147 69.7997 189.185 69.5704 189.261 69.3694C189.337 69.1664 189.441 68.9947 189.572 68.8542C189.703 68.7137 189.851 68.6073 190.018 68.5351C190.184 68.4629 190.356 68.4268 190.534 68.4268C190.76 68.4268 190.956 68.4658 191.12 68.5439C191.286 68.6219 191.422 68.7312 191.528 68.8717C191.633 69.0103 191.711 69.1742 191.762 69.3635C191.813 69.5509 191.838 69.7558 191.838 69.9783V70.2213H189.469V69.7792H191.296V69.7383C191.288 69.5977 191.259 69.4611 191.208 69.3284C191.159 69.1957 191.081 69.0864 190.973 69.0005C190.866 68.9147 190.719 68.8717 190.534 68.8717C190.41 68.8717 190.297 68.8981 190.193 68.9508C190.09 69.0015 190.001 69.0776 189.927 69.1791C189.852 69.2806 189.795 69.4045 189.754 69.5509C189.713 69.6973 189.692 69.8661 189.692 70.0573V70.1803C189.692 70.3306 189.713 70.4721 189.754 70.6048C189.797 70.7355 189.858 70.8507 189.938 70.9502C190.021 71.0498 190.119 71.1278 190.235 71.1844C190.352 71.241 190.485 71.2693 190.633 71.2693C190.825 71.2693 190.987 71.2303 191.12 71.1522C191.253 71.0741 191.369 70.9697 191.469 70.839L191.797 71.0995C191.729 71.203 191.642 71.3015 191.536 71.3952C191.431 71.4889 191.301 71.565 191.146 71.6235C190.994 71.6821 190.813 71.7114 190.604 71.7114Z" fill="#69717D"/>
<path d="M194.319 70.8126C194.319 70.7346 194.301 70.6624 194.266 70.596C194.233 70.5277 194.163 70.4662 194.058 70.4116C193.954 70.355 193.798 70.3062 193.589 70.2652C193.413 70.2281 193.254 70.1842 193.111 70.1335C192.97 70.0827 192.85 70.0212 192.75 69.949C192.652 69.8768 192.577 69.7919 192.524 69.6943C192.472 69.5968 192.445 69.4826 192.445 69.3518C192.445 69.2269 192.473 69.1089 192.527 68.9976C192.584 68.8864 192.663 68.7878 192.765 68.7019C192.868 68.6161 192.993 68.5487 193.137 68.4999C193.282 68.4512 193.443 68.4268 193.621 68.4268C193.875 68.4268 194.092 68.4716 194.272 68.5614C194.452 68.6512 194.59 68.7712 194.685 68.9215C194.781 69.0698 194.829 69.2347 194.829 69.4162H194.287C194.287 69.3284 194.26 69.2435 194.207 69.1616C194.157 69.0776 194.081 69.0083 193.982 68.9537C193.884 68.8991 193.764 68.8717 193.621 68.8717C193.471 68.8717 193.348 68.8952 193.255 68.942C193.163 68.9869 193.095 69.0445 193.052 69.1147C193.011 69.185 192.991 69.2591 192.991 69.3372C192.991 69.3957 193 69.4484 193.02 69.4953C193.041 69.5402 193.079 69.5821 193.131 69.6212C193.184 69.6582 193.258 69.6934 193.354 69.7265C193.45 69.7597 193.572 69.7929 193.721 69.8261C193.981 69.8846 194.195 69.9549 194.363 70.0369C194.531 70.1188 194.656 70.2193 194.738 70.3384C194.82 70.4574 194.861 70.6019 194.861 70.7716C194.861 70.9102 194.832 71.0371 194.773 71.1522C194.717 71.2674 194.634 71.3669 194.524 71.4508C194.417 71.5328 194.288 71.5972 194.137 71.644C193.988 71.6889 193.821 71.7114 193.636 71.7114C193.356 71.7114 193.12 71.6616 192.926 71.5621C192.733 71.4625 192.586 71.3337 192.486 71.1756C192.387 71.0176 192.337 70.8507 192.337 70.675H192.882C192.89 70.8234 192.933 70.9414 193.011 71.0293C193.089 71.1151 193.185 71.1766 193.298 71.2137C193.412 71.2488 193.524 71.2664 193.636 71.2664C193.784 71.2664 193.908 71.2469 194.008 71.2078C194.11 71.1688 194.187 71.1151 194.24 71.0468C194.292 70.9785 194.319 70.9005 194.319 70.8126Z" fill="#69717D"/>
<path fill-rule="evenodd" clip-rule="evenodd" d="M107.437 72.5755L107.437 66.1189L107.898 66.1189L107.898 72.5755L107.437 72.5755Z" fill="#C8D6EA"/>
<path fill-rule="evenodd" clip-rule="evenodd" d="M156.397 72.5755L156.397 66.1189L156.859 66.1189L156.859 72.5755L156.397 72.5755Z" fill="#C8D6EA"/>
<path fill-rule="evenodd" clip-rule="evenodd" d="M165.179 174.798C165.179 156.873 150.489 142.214 131.922 142.214V114.543C165.396 114.543 192.893 141.195 192.893 174.798C192.893 187.056 188.722 197.223 183.428 205.761L159.863 191.196C163.365 185.549 165.179 180.407 165.179 174.798Z" fill="#5B87DE"/>
</g>
<path d="M126.678 70.9014C126.678 70.8135 126.664 70.7354 126.637 70.667C126.611 70.5986 126.565 70.5361 126.499 70.4795C126.433 70.4229 126.339 70.3682 126.218 70.3154C126.099 70.2607 125.946 70.2051 125.761 70.1484C125.558 70.0859 125.37 70.0166 125.198 69.9404C125.028 69.8623 124.88 69.7725 124.753 69.6709C124.626 69.5674 124.527 69.4492 124.457 69.3164C124.387 69.1816 124.352 69.0264 124.352 68.8506C124.352 68.6768 124.388 68.5186 124.46 68.376C124.534 68.2334 124.639 68.1104 124.773 68.0068C124.91 67.9014 125.071 67.8203 125.257 67.7637C125.442 67.7051 125.647 67.6758 125.872 67.6758C126.188 67.6758 126.461 67.7344 126.689 67.8516C126.92 67.9688 127.097 68.126 127.22 68.3232C127.345 68.5205 127.407 68.7383 127.407 68.9766H126.678C126.678 68.8359 126.647 68.7119 126.587 68.6045C126.528 68.4951 126.438 68.4092 126.317 68.3467C126.198 68.2842 126.047 68.2529 125.863 68.2529C125.689 68.2529 125.545 68.2793 125.43 68.332C125.314 68.3848 125.229 68.4561 125.172 68.5459C125.115 68.6357 125.087 68.7373 125.087 68.8506C125.087 68.9307 125.105 69.0039 125.143 69.0703C125.18 69.1348 125.236 69.1953 125.312 69.252C125.389 69.3066 125.484 69.3584 125.6 69.4072C125.715 69.4561 125.851 69.5029 126.007 69.5479C126.243 69.6182 126.449 69.6963 126.625 69.7822C126.801 69.8662 126.947 69.9619 127.064 70.0693C127.182 70.1768 127.27 70.2988 127.328 70.4355C127.387 70.5703 127.416 70.7236 127.416 70.8955C127.416 71.0752 127.38 71.2373 127.308 71.3818C127.235 71.5244 127.132 71.6465 126.997 71.748C126.864 71.8477 126.704 71.9248 126.517 71.9795C126.331 72.0322 126.124 72.0586 125.896 72.0586C125.69 72.0586 125.488 72.0312 125.289 71.9766C125.092 71.9219 124.912 71.8389 124.75 71.7275C124.588 71.6143 124.459 71.4736 124.363 71.3057C124.268 71.1357 124.22 70.9375 124.22 70.7109H124.955C124.955 70.8496 124.979 70.9678 125.025 71.0654C125.074 71.1631 125.142 71.2432 125.228 71.3057C125.313 71.3662 125.413 71.4111 125.526 71.4404C125.642 71.4697 125.765 71.4844 125.896 71.4844C126.067 71.4844 126.211 71.46 126.326 71.4111C126.443 71.3623 126.531 71.2939 126.59 71.2061C126.648 71.1182 126.678 71.0166 126.678 70.9014ZM128.705 69.4395V73.2188H127.999V68.8301H128.649L128.705 69.4395ZM130.771 70.3857V70.4473C130.771 70.6777 130.743 70.8916 130.688 71.0889C130.636 71.2842 130.557 71.4551 130.451 71.6016C130.348 71.7461 130.22 71.8584 130.067 71.9385C129.915 72.0186 129.739 72.0586 129.54 72.0586C129.343 72.0586 129.17 72.0225 129.021 71.9502C128.875 71.876 128.751 71.7715 128.649 71.6367C128.548 71.502 128.466 71.3438 128.403 71.1621C128.343 70.9785 128.3 70.7773 128.274 70.5586V70.3213C128.3 70.0889 128.343 69.8779 128.403 69.6885C128.466 69.499 128.548 69.3359 128.649 69.1992C128.751 69.0625 128.875 68.957 129.021 68.8828C129.168 68.8086 129.339 68.7715 129.534 68.7715C129.733 68.7715 129.91 68.8105 130.064 68.8887C130.219 68.9648 130.349 69.0742 130.454 69.2168C130.56 69.3574 130.639 69.5273 130.691 69.7266C130.744 69.9238 130.771 70.1436 130.771 70.3857ZM130.064 70.4473V70.3857C130.064 70.2393 130.051 70.1035 130.023 69.9785C129.996 69.8516 129.953 69.7402 129.895 69.6445C129.836 69.5488 129.761 69.4746 129.669 69.4219C129.579 69.3672 129.471 69.3398 129.344 69.3398C129.219 69.3398 129.111 69.3613 129.021 69.4043C128.932 69.4453 128.856 69.5029 128.796 69.5771C128.735 69.6514 128.688 69.7383 128.655 69.8379C128.622 69.9355 128.599 70.042 128.585 70.1572V70.7256C128.608 70.8662 128.648 70.9951 128.705 71.1123C128.762 71.2295 128.842 71.3232 128.945 71.3936C129.051 71.4619 129.186 71.4961 129.35 71.4961C129.477 71.4961 129.585 71.4688 129.675 71.4141C129.765 71.3594 129.838 71.2842 129.895 71.1885C129.953 71.0908 129.996 70.9785 130.023 70.8516C130.051 70.7246 130.064 70.5898 130.064 70.4473ZM131.236 70.4502V70.3828C131.236 70.1543 131.27 69.9424 131.336 69.7471C131.402 69.5498 131.498 69.3789 131.623 69.2344C131.75 69.0879 131.904 68.9746 132.086 68.8945C132.27 68.8125 132.477 68.7715 132.707 68.7715C132.939 68.7715 133.146 68.8125 133.328 68.8945C133.512 68.9746 133.667 69.0879 133.794 69.2344C133.921 69.3789 134.018 69.5498 134.084 69.7471C134.15 69.9424 134.184 70.1543 134.184 70.3828V70.4502C134.184 70.6787 134.15 70.8906 134.084 71.0859C134.018 71.2812 133.921 71.4521 133.794 71.5986C133.667 71.7432 133.513 71.8564 133.331 71.9385C133.149 72.0186 132.943 72.0586 132.713 72.0586C132.48 72.0586 132.272 72.0186 132.089 71.9385C131.907 71.8564 131.753 71.7432 131.626 71.5986C131.499 71.4521 131.402 71.2812 131.336 71.0859C131.27 70.8906 131.236 70.6787 131.236 70.4502ZM131.942 70.3828V70.4502C131.942 70.5928 131.957 70.7275 131.986 70.8545C132.016 70.9814 132.062 71.0928 132.124 71.1885C132.187 71.2842 132.267 71.3594 132.364 71.4141C132.462 71.4688 132.578 71.4961 132.713 71.4961C132.844 71.4961 132.957 71.4688 133.053 71.4141C133.15 71.3594 133.23 71.2842 133.293 71.1885C133.355 71.0928 133.401 70.9814 133.431 70.8545C133.462 70.7275 133.478 70.5928 133.478 70.4502V70.3828C133.478 70.2422 133.462 70.1094 133.431 69.9844C133.401 69.8574 133.354 69.7451 133.29 69.6475C133.228 69.5498 133.147 69.4736 133.05 69.4189C132.954 69.3623 132.84 69.334 132.707 69.334C132.574 69.334 132.459 69.3623 132.361 69.4189C132.266 69.4736 132.187 69.5498 132.124 69.6475C132.062 69.7451 132.016 69.8574 131.986 69.9844C131.957 70.1094 131.942 70.2422 131.942 70.3828ZM136.229 68.8301V69.3457H134.441V68.8301H136.229ZM134.957 68.0537H135.663V71.124C135.663 71.2217 135.677 71.2969 135.704 71.3496C135.733 71.4004 135.773 71.4346 135.824 71.4521C135.875 71.4697 135.935 71.4785 136.003 71.4785C136.052 71.4785 136.099 71.4756 136.144 71.4697C136.188 71.4639 136.225 71.458 136.252 71.4521L136.255 71.9912C136.196 72.0088 136.128 72.0244 136.05 72.0381C135.974 72.0518 135.886 72.0586 135.786 72.0586C135.624 72.0586 135.48 72.0303 135.355 71.9736C135.23 71.915 135.133 71.8203 135.062 71.6895C134.992 71.5586 134.957 71.3848 134.957 71.168V68.0537Z" fill="#272734"/>
<path d="M144 109.2C144 107.764 145.585 106.6 147.54 106.6H199.46C201.415 106.6 203 107.764 203 109.2V117C203 118.436 201.415 119.6 199.46 119.6H147.54C145.585 119.6 144 118.436 144 117V109.2Z" fill="#F3F5FA"/>
<path d="M149.258 111.314C149.258 110.805 149.671 110.392 150.182 110.392H153.877C154.387 110.392 154.801 110.805 154.801 111.314V115.004C154.801 115.513 154.387 115.926 153.877 115.926H150.182C149.671 115.926 149.258 115.513 149.258 115.004V111.314Z" fill="#5B87DE"/>
<path d="M162.226 114.417V115H159.961V114.417H162.226ZM160.169 110.734V115H159.434V110.734H160.169ZM161.93 112.516V113.09H159.961V112.516H161.93ZM162.211 110.734V111.32H159.961V110.734H162.211ZM164.209 111.83V112.346H162.422V111.83H164.209ZM162.938 111.054H163.644V114.124C163.644 114.222 163.657 114.297 163.685 114.35C163.714 114.4 163.754 114.435 163.805 114.452C163.855 114.47 163.915 114.479 163.983 114.479C164.032 114.479 164.079 114.476 164.124 114.47C164.169 114.464 164.205 114.458 164.232 114.452L164.235 114.991C164.177 115.009 164.108 115.024 164.03 115.038C163.954 115.052 163.866 115.059 163.767 115.059C163.604 115.059 163.461 115.03 163.336 114.974C163.211 114.915 163.113 114.82 163.043 114.689C162.973 114.559 162.938 114.385 162.938 114.168V111.054ZM165.451 110.5V115H164.748V110.5H165.451ZM165.328 113.298L165.1 113.295C165.102 113.076 165.132 112.874 165.19 112.688C165.251 112.503 165.335 112.342 165.442 112.205C165.552 112.066 165.683 111.96 165.835 111.886C165.987 111.81 166.156 111.771 166.342 111.771C166.498 111.771 166.639 111.793 166.764 111.836C166.891 111.879 167 111.948 167.092 112.044C167.184 112.138 167.253 112.261 167.3 112.413C167.349 112.563 167.373 112.747 167.373 112.964V115H166.664V112.958C166.664 112.806 166.642 112.685 166.597 112.595C166.554 112.505 166.49 112.44 166.406 112.401C166.322 112.36 166.22 112.34 166.099 112.34C165.972 112.34 165.859 112.365 165.762 112.416C165.666 112.467 165.586 112.536 165.521 112.624C165.457 112.712 165.408 112.813 165.375 112.929C165.344 113.044 165.328 113.167 165.328 113.298ZM169.485 115.059C169.251 115.059 169.039 115.021 168.85 114.944C168.662 114.866 168.502 114.758 168.369 114.619C168.238 114.48 168.138 114.317 168.067 114.13C167.997 113.942 167.962 113.74 167.962 113.523V113.406C167.962 113.158 167.998 112.934 168.07 112.732C168.143 112.531 168.243 112.359 168.372 112.217C168.501 112.072 168.653 111.962 168.829 111.886C169.005 111.81 169.195 111.771 169.4 111.771C169.627 111.771 169.825 111.81 169.995 111.886C170.165 111.962 170.306 112.069 170.417 112.208C170.53 112.345 170.614 112.508 170.669 112.697C170.726 112.887 170.754 113.096 170.754 113.324V113.626H168.305V113.119H170.057V113.063C170.053 112.937 170.027 112.817 169.98 112.706C169.936 112.595 169.866 112.505 169.772 112.437C169.679 112.368 169.554 112.334 169.397 112.334C169.28 112.334 169.176 112.359 169.084 112.41C168.994 112.459 168.919 112.53 168.858 112.624C168.798 112.718 168.751 112.831 168.718 112.964C168.687 113.095 168.671 113.242 168.671 113.406V113.523C168.671 113.662 168.689 113.791 168.727 113.91C168.766 114.027 168.822 114.13 168.896 114.218C168.971 114.306 169.061 114.375 169.166 114.426C169.271 114.475 169.392 114.499 169.526 114.499C169.696 114.499 169.848 114.465 169.98 114.396C170.113 114.328 170.229 114.231 170.326 114.106L170.698 114.467C170.63 114.566 170.541 114.662 170.432 114.754C170.322 114.844 170.188 114.917 170.03 114.974C169.874 115.03 169.692 115.059 169.485 115.059ZM172.014 112.434V115H171.308V111.83H171.981L172.014 112.434ZM172.983 111.81L172.978 112.466C172.935 112.458 172.888 112.452 172.837 112.448C172.788 112.444 172.739 112.442 172.69 112.442C172.569 112.442 172.463 112.46 172.371 112.495C172.279 112.528 172.202 112.577 172.14 112.642C172.079 112.704 172.032 112.78 171.999 112.87C171.966 112.96 171.946 113.061 171.94 113.172L171.779 113.184C171.779 112.984 171.799 112.8 171.838 112.63C171.877 112.46 171.936 112.311 172.014 112.182C172.094 112.053 172.193 111.952 172.312 111.88C172.434 111.808 172.573 111.771 172.731 111.771C172.774 111.771 172.82 111.775 172.869 111.783C172.92 111.791 172.958 111.8 172.983 111.81ZM174.765 115.059C174.53 115.059 174.318 115.021 174.129 114.944C173.941 114.866 173.781 114.758 173.648 114.619C173.518 114.48 173.417 114.317 173.347 114.13C173.276 113.942 173.241 113.74 173.241 113.523V113.406C173.241 113.158 173.277 112.934 173.35 112.732C173.422 112.531 173.522 112.359 173.651 112.217C173.78 112.072 173.933 111.962 174.108 111.886C174.284 111.81 174.475 111.771 174.68 111.771C174.906 111.771 175.104 111.81 175.274 111.886C175.444 111.962 175.585 112.069 175.696 112.208C175.81 112.345 175.894 112.508 175.948 112.697C176.005 112.887 176.033 113.096 176.033 113.324V113.626H173.584V113.119H175.336V113.063C175.332 112.937 175.307 112.817 175.26 112.706C175.215 112.595 175.146 112.505 175.052 112.437C174.958 112.368 174.833 112.334 174.677 112.334C174.56 112.334 174.455 112.359 174.363 112.41C174.273 112.459 174.198 112.53 174.138 112.624C174.077 112.718 174.03 112.831 173.997 112.964C173.966 113.095 173.95 113.242 173.95 113.406V113.523C173.95 113.662 173.969 113.791 174.006 113.91C174.045 114.027 174.102 114.13 174.176 114.218C174.25 114.306 174.34 114.375 174.445 114.426C174.551 114.475 174.671 114.499 174.806 114.499C174.976 114.499 175.127 114.465 175.26 114.396C175.393 114.328 175.508 114.231 175.605 114.106L175.978 114.467C175.909 114.566 175.82 114.662 175.711 114.754C175.602 114.844 175.468 114.917 175.31 114.974C175.153 115.03 174.972 115.059 174.765 115.059ZM178.491 114.253V111.83H179.2V115H178.532L178.491 114.253ZM178.591 113.594L178.828 113.588C178.828 113.801 178.805 113.997 178.758 114.177C178.711 114.354 178.639 114.51 178.541 114.643C178.443 114.773 178.318 114.876 178.166 114.95C178.014 115.022 177.831 115.059 177.618 115.059C177.464 115.059 177.322 115.036 177.193 114.991C177.064 114.946 176.953 114.877 176.859 114.783C176.768 114.689 176.696 114.567 176.646 114.417C176.595 114.267 176.569 114.087 176.569 113.878V111.83H177.275V113.884C177.275 113.999 177.289 114.096 177.316 114.174C177.344 114.25 177.381 114.312 177.428 114.358C177.475 114.405 177.529 114.438 177.592 114.458C177.654 114.478 177.721 114.487 177.791 114.487C177.992 114.487 178.15 114.448 178.266 114.37C178.383 114.29 178.466 114.183 178.515 114.048C178.565 113.913 178.591 113.762 178.591 113.594ZM180.63 112.475V115H179.924V111.83H180.589L180.63 112.475ZM180.516 113.298L180.275 113.295C180.275 113.076 180.303 112.874 180.357 112.688C180.412 112.503 180.492 112.342 180.598 112.205C180.703 112.066 180.834 111.96 180.99 111.886C181.148 111.81 181.331 111.771 181.538 111.771C181.683 111.771 181.814 111.793 181.934 111.836C182.055 111.877 182.159 111.942 182.247 112.032C182.337 112.122 182.405 112.237 182.452 112.378C182.501 112.519 182.525 112.688 182.525 112.888V115H181.819V112.949C181.819 112.795 181.796 112.674 181.749 112.586C181.704 112.498 181.639 112.436 181.553 112.398C181.469 112.359 181.368 112.34 181.251 112.34C181.118 112.34 181.005 112.365 180.911 112.416C180.819 112.467 180.744 112.536 180.686 112.624C180.627 112.712 180.584 112.813 180.557 112.929C180.529 113.044 180.516 113.167 180.516 113.298ZM182.481 113.11L182.15 113.184C182.15 112.992 182.177 112.812 182.229 112.642C182.284 112.47 182.363 112.319 182.467 112.19C182.572 112.06 182.702 111.957 182.856 111.883C183.011 111.809 183.188 111.771 183.387 111.771C183.549 111.771 183.693 111.794 183.82 111.839C183.949 111.882 184.059 111.95 184.148 112.044C184.238 112.138 184.307 112.26 184.354 112.41C184.4 112.559 184.424 112.738 184.424 112.949V115H183.715V112.946C183.715 112.786 183.691 112.662 183.645 112.574C183.6 112.486 183.535 112.426 183.451 112.393C183.367 112.357 183.267 112.34 183.149 112.34C183.04 112.34 182.943 112.36 182.859 112.401C182.777 112.44 182.708 112.496 182.651 112.568C182.595 112.639 182.552 112.72 182.522 112.812C182.495 112.903 182.481 113.003 182.481 113.11Z" fill="#69717D"/>
<path d="M189.507 114.417V115H187.242V114.417H189.507ZM187.45 110.734V115H186.715V110.734H187.45ZM189.211 112.516V113.09H187.242V112.516H189.211ZM189.492 110.734V111.32H187.242V110.734H189.492ZM191.921 110.734V115H191.191V110.734H191.921ZM193.26 110.734V111.32H189.864V110.734H193.26ZM196.641 112.516V113.099H194.376V112.516H196.641ZM194.558 110.734V115H193.822V110.734H194.558ZM197.206 110.734V115H196.474V110.734H197.206Z" fill="#2C2C34"/>
<path d="M72.0703 70.6436H72.6328C72.6035 70.9131 72.5264 71.1543 72.4014 71.3672C72.2764 71.5801 72.0996 71.749 71.8711 71.874C71.6426 71.9971 71.3574 72.0586 71.0156 72.0586C70.7656 72.0586 70.5381 72.0117 70.333 71.918C70.1299 71.8242 69.9551 71.6914 69.8086 71.5195C69.6621 71.3457 69.5488 71.1377 69.4688 70.8955C69.3906 70.6514 69.3516 70.3799 69.3516 70.0811V69.6562C69.3516 69.3574 69.3906 69.0869 69.4688 68.8447C69.5488 68.6006 69.6631 68.3916 69.8115 68.2178C69.9619 68.0439 70.1426 67.9102 70.3535 67.8164C70.5645 67.7227 70.8018 67.6758 71.0654 67.6758C71.3877 67.6758 71.6602 67.7363 71.8828 67.8574C72.1055 67.9785 72.2783 68.1465 72.4014 68.3613C72.5264 68.5742 72.6035 68.8213 72.6328 69.1025H72.0703C72.043 68.9033 71.9922 68.7324 71.918 68.5898C71.8438 68.4453 71.7383 68.334 71.6016 68.2559C71.4648 68.1777 71.2861 68.1387 71.0654 68.1387C70.876 68.1387 70.709 68.1748 70.5645 68.2471C70.4219 68.3193 70.3018 68.4219 70.2041 68.5547C70.1084 68.6875 70.0361 68.8467 69.9873 69.0322C69.9385 69.2178 69.9141 69.4238 69.9141 69.6504V70.0811C69.9141 70.29 69.9355 70.4863 69.9785 70.6699C70.0234 70.8535 70.0908 71.0146 70.1807 71.1533C70.2705 71.292 70.3848 71.4014 70.5234 71.4814C70.6621 71.5596 70.8262 71.5986 71.0156 71.5986C71.2559 71.5986 71.4473 71.5605 71.5898 71.4844C71.7324 71.4082 71.8398 71.2988 71.9121 71.1562C71.9863 71.0137 72.0391 70.8428 72.0703 70.6436ZM73.1777 70.4502V70.3828C73.1777 70.1543 73.2109 69.9424 73.2773 69.7471C73.3438 69.5498 73.4395 69.3789 73.5645 69.2344C73.6895 69.0879 73.8408 68.9746 74.0186 68.8945C74.1963 68.8125 74.3955 68.7715 74.6162 68.7715C74.8389 68.7715 75.0391 68.8125 75.2168 68.8945C75.3965 68.9746 75.5488 69.0879 75.6738 69.2344C75.8008 69.3789 75.8975 69.5498 75.9639 69.7471C76.0303 69.9424 76.0635 70.1543 76.0635 70.3828V70.4502C76.0635 70.6787 76.0303 70.8906 75.9639 71.0859C75.8975 71.2812 75.8008 71.4521 75.6738 71.5986C75.5488 71.7432 75.3975 71.8564 75.2197 71.9385C75.0439 72.0186 74.8447 72.0586 74.6221 72.0586C74.3994 72.0586 74.1992 72.0186 74.0215 71.9385C73.8438 71.8564 73.6914 71.7432 73.5645 71.5986C73.4395 71.4521 73.3438 71.2812 73.2773 71.0859C73.2109 70.8906 73.1777 70.6787 73.1777 70.4502ZM73.7197 70.3828V70.4502C73.7197 70.6084 73.7383 70.7578 73.7754 70.8984C73.8125 71.0371 73.8682 71.1602 73.9424 71.2676C74.0186 71.375 74.1133 71.46 74.2266 71.5225C74.3398 71.583 74.4717 71.6133 74.6221 71.6133C74.7705 71.6133 74.9004 71.583 75.0117 71.5225C75.125 71.46 75.2188 71.375 75.293 71.2676C75.3672 71.1602 75.4229 71.0371 75.46 70.8984C75.499 70.7578 75.5186 70.6084 75.5186 70.4502V70.3828C75.5186 70.2266 75.499 70.0791 75.46 69.9404C75.4229 69.7998 75.3662 69.6758 75.29 69.5684C75.2158 69.459 75.1221 69.373 75.0088 69.3105C74.8975 69.248 74.7666 69.2168 74.6162 69.2168C74.4678 69.2168 74.3369 69.248 74.2236 69.3105C74.1123 69.373 74.0186 69.459 73.9424 69.5684C73.8682 69.6758 73.8125 69.7998 73.7754 69.9404C73.7383 70.0791 73.7197 70.2266 73.7197 70.3828ZM77.2852 69.5068V72H76.7432V68.8301H77.2559L77.2852 69.5068ZM77.1562 70.2949L76.9307 70.2861C76.9326 70.0693 76.9648 69.8691 77.0273 69.6855C77.0898 69.5 77.1777 69.3389 77.291 69.2021C77.4043 69.0654 77.5391 68.96 77.6953 68.8857C77.8535 68.8096 78.0283 68.7715 78.2197 68.7715C78.376 68.7715 78.5166 68.793 78.6416 68.8359C78.7666 68.877 78.873 68.9434 78.9609 69.0352C79.0508 69.127 79.1191 69.2461 79.166 69.3926C79.2129 69.5371 79.2363 69.7139 79.2363 69.9229V72H78.6914V69.917C78.6914 69.751 78.667 69.6182 78.6182 69.5186C78.5693 69.417 78.498 69.3438 78.4043 69.2988C78.3105 69.252 78.1953 69.2285 78.0586 69.2285C77.9238 69.2285 77.8008 69.2568 77.6895 69.3135C77.5801 69.3701 77.4854 69.4482 77.4053 69.5479C77.3271 69.6475 77.2656 69.7617 77.2207 69.8906C77.1777 70.0176 77.1562 70.1523 77.1562 70.2949ZM81.3867 68.8301V69.2461H79.6729V68.8301H81.3867ZM80.2529 68.0596H80.7949V71.2148C80.7949 71.3223 80.8115 71.4033 80.8447 71.458C80.8779 71.5127 80.9209 71.5488 80.9736 71.5664C81.0264 71.584 81.083 71.5928 81.1436 71.5928C81.1885 71.5928 81.2354 71.5889 81.2842 71.5811C81.335 71.5713 81.373 71.5635 81.3984 71.5576L81.4014 72C81.3584 72.0137 81.3018 72.0264 81.2314 72.0381C81.1631 72.0518 81.0801 72.0586 80.9824 72.0586C80.8496 72.0586 80.7275 72.0322 80.6162 71.9795C80.5049 71.9268 80.416 71.8389 80.3496 71.7158C80.2852 71.5908 80.2529 71.4229 80.2529 71.2119V68.0596ZM82.5645 69.3281V72H82.0225V68.8301H82.5498L82.5645 69.3281ZM83.5547 68.8125L83.5518 69.3164C83.5068 69.3066 83.4639 69.3008 83.4229 69.2988C83.3838 69.2949 83.3389 69.293 83.2881 69.293C83.1631 69.293 83.0527 69.3125 82.957 69.3516C82.8613 69.3906 82.7803 69.4453 82.7139 69.5156C82.6475 69.5859 82.5947 69.6699 82.5557 69.7676C82.5186 69.8633 82.4941 69.9688 82.4824 70.084L82.3301 70.1719C82.3301 69.9805 82.3486 69.8008 82.3857 69.6328C82.4248 69.4648 82.4844 69.3164 82.5645 69.1875C82.6445 69.0566 82.7461 68.9551 82.8691 68.8828C82.9941 68.8086 83.1426 68.7715 83.3145 68.7715C83.3535 68.7715 83.3984 68.7764 83.4492 68.7861C83.5 68.7939 83.5352 68.8027 83.5547 68.8125ZM85.8076 71.458V69.8262C85.8076 69.7012 85.7822 69.5928 85.7314 69.501C85.6826 69.4072 85.6084 69.335 85.5088 69.2842C85.4092 69.2334 85.2861 69.208 85.1396 69.208C85.0029 69.208 84.8828 69.2314 84.7793 69.2783C84.6777 69.3252 84.5977 69.3867 84.5391 69.4629C84.4824 69.5391 84.4541 69.6211 84.4541 69.709H83.9121C83.9121 69.5957 83.9414 69.4834 84 69.3721C84.0586 69.2607 84.1426 69.1602 84.252 69.0703C84.3633 68.9785 84.4961 68.9062 84.6504 68.8535C84.8066 68.7988 84.9805 68.7715 85.1719 68.7715C85.4023 68.7715 85.6055 68.8105 85.7812 68.8887C85.959 68.9668 86.0977 69.085 86.1973 69.2432C86.2988 69.3994 86.3496 69.5957 86.3496 69.832V71.3086C86.3496 71.4141 86.3584 71.5264 86.376 71.6455C86.3955 71.7646 86.4238 71.8672 86.4609 71.9531V72H85.8955C85.8682 71.9375 85.8467 71.8545 85.8311 71.751C85.8154 71.6455 85.8076 71.5479 85.8076 71.458ZM85.9014 70.0781L85.9072 70.459H85.3594C85.2051 70.459 85.0674 70.4717 84.9463 70.4971C84.8252 70.5205 84.7236 70.5566 84.6416 70.6055C84.5596 70.6543 84.4971 70.7158 84.4541 70.79C84.4111 70.8623 84.3896 70.9473 84.3896 71.0449C84.3896 71.1445 84.4121 71.2354 84.457 71.3174C84.502 71.3994 84.5693 71.4648 84.6592 71.5137C84.751 71.5605 84.8633 71.584 84.9961 71.584C85.1621 71.584 85.3086 71.5488 85.4355 71.4785C85.5625 71.4082 85.6631 71.3223 85.7373 71.2207C85.8135 71.1191 85.8545 71.0205 85.8604 70.9248L86.0918 71.1855C86.0781 71.2676 86.041 71.3584 85.9805 71.458C85.9199 71.5576 85.8389 71.6533 85.7373 71.7451C85.6377 71.835 85.5186 71.9102 85.3799 71.9707C85.2432 72.0293 85.0889 72.0586 84.917 72.0586C84.7021 72.0586 84.5137 72.0166 84.3516 71.9326C84.1914 71.8486 84.0664 71.7363 83.9766 71.5957C83.8887 71.4531 83.8447 71.2939 83.8447 71.1182C83.8447 70.9482 83.8779 70.7988 83.9443 70.6699C84.0107 70.5391 84.1064 70.4307 84.2314 70.3447C84.3564 70.2568 84.5068 70.1904 84.6826 70.1455C84.8584 70.1006 85.0547 70.0781 85.2715 70.0781H85.9014ZM88.4707 71.6133C88.5996 71.6133 88.7188 71.5869 88.8281 71.5342C88.9375 71.4814 89.0273 71.4092 89.0977 71.3174C89.168 71.2236 89.208 71.1172 89.2178 70.998H89.7334C89.7236 71.1855 89.6602 71.3604 89.543 71.5225C89.4277 71.6826 89.2764 71.8125 89.0889 71.9121C88.9014 72.0098 88.6953 72.0586 88.4707 72.0586C88.2324 72.0586 88.0244 72.0166 87.8467 71.9326C87.6709 71.8486 87.5244 71.7334 87.4072 71.5869C87.292 71.4404 87.2051 71.2725 87.1465 71.083C87.0898 70.8916 87.0615 70.6895 87.0615 70.4766V70.3535C87.0615 70.1406 87.0898 69.9395 87.1465 69.75C87.2051 69.5586 87.292 69.3896 87.4072 69.2432C87.5244 69.0967 87.6709 68.9814 87.8467 68.8975C88.0244 68.8135 88.2324 68.7715 88.4707 68.7715C88.7188 68.7715 88.9355 68.8223 89.1211 68.9238C89.3066 69.0234 89.4521 69.1602 89.5576 69.334C89.665 69.5059 89.7236 69.7012 89.7334 69.9199H89.2178C89.208 69.7891 89.1709 69.6709 89.1064 69.5654C89.0439 69.46 88.958 69.376 88.8486 69.3135C88.7412 69.249 88.6152 69.2168 88.4707 69.2168C88.3047 69.2168 88.165 69.25 88.0518 69.3164C87.9404 69.3809 87.8516 69.4688 87.7852 69.5801C87.7207 69.6895 87.6738 69.8115 87.6445 69.9463C87.6172 70.0791 87.6035 70.2148 87.6035 70.3535V70.4766C87.6035 70.6152 87.6172 70.752 87.6445 70.8867C87.6719 71.0215 87.7178 71.1436 87.7822 71.2529C87.8486 71.3623 87.9375 71.4502 88.0488 71.5166C88.1621 71.5811 88.3027 71.6133 88.4707 71.6133ZM91.6699 68.8301V69.2461H89.9561V68.8301H91.6699ZM90.5361 68.0596H91.0781V71.2148C91.0781 71.3223 91.0947 71.4033 91.1279 71.458C91.1611 71.5127 91.2041 71.5488 91.2568 71.5664C91.3096 71.584 91.3662 71.5928 91.4268 71.5928C91.4717 71.5928 91.5186 71.5889 91.5674 71.5811C91.6182 71.5713 91.6562 71.5635 91.6816 71.5576L91.6846 72C91.6416 72.0137 91.585 72.0264 91.5146 72.0381C91.4463 72.0518 91.3633 72.0586 91.2656 72.0586C91.1328 72.0586 91.0107 72.0322 90.8994 71.9795C90.7881 71.9268 90.6992 71.8389 90.6328 71.7158C90.5684 71.5908 90.5361 71.4229 90.5361 71.2119V68.0596Z" fill="#69717D"/>
<defs>
<filter id="filter0_d_953_64" x="0" y="0" width="274" height="313.821" filterUnits="userSpaceOnUse" color-interpolation-filters="sRGB">
<feFlood flood-opacity="0" result="BackgroundImageFix"/>
<feColorMatrix in="SourceAlpha" type="matrix" values="0 0 0 0 0 0 0 0 0 0 0 0 0 0 0 0 0 0 127 0" result="hardAlpha"/>
<feOffset dy="20"/>
<feGaussianBlur stdDeviation="20"/>
<feComposite in2="hardAlpha" operator="out"/>
<feColorMatrix type="matrix" values="0 0 0 0 0 0 0 0 0 0 0 0 0 0 0 0 0 0 0.12 0"/>
<feBlend mode="normal" in2="BackgroundImageFix" result="effect1_dropShadow_953_64"/>
<feBlend mode="normal" in="SourceGraphic" in2="effect1_dropShadow_953_64" result="shape"/>
</filter>
<filter id="filter1_d_953_64" x="56.4727" y="60.9673" width="150.424" height="19.2192" filterUnits="userSpaceOnUse" color-interpolation-filters="sRGB">
<feFlood flood-opacity="0" result="BackgroundImageFix"/>
<feColorMatrix in="SourceAlpha" type="matrix" values="0 0 0 0 0 0 0 0 0 0 0 0 0 0 0 0 0 0 127 0" result="hardAlpha"/>
<feOffset dy="1"/>
<feGaussianBlur stdDeviation="1"/>
<feComposite in2="hardAlpha" operator="out"/>
<feColorMatrix type="matrix" values="0 0 0 0 0 0 0 0 0 0 0 0 0 0 0 0 0 0 0.05 0"/>
<feBlend mode="normal" in2="BackgroundImageFix" result="effect1_dropShadow_953_64"/>
<feBlend mode="normal" in="SourceGraphic" in2="effect1_dropShadow_953_64" result="shape"/>
</filter>
</defs>
</svg>
