<svg width="445" height="342" viewBox="0 0 445 342" fill="none" xmlns="http://www.w3.org/2000/svg">
<path d="M379.833 306.235C292.959 353.917 152.03 353.927 65.1557 306.235C-21.7186 258.543 -21.7186 181.246 65.1557 133.563C152.03 85.881 292.959 85.8714 379.833 133.563C466.708 181.255 466.737 258.552 379.833 306.235Z" fill="#F1F6FF"/>
<path d="M167.479 208.69L155.973 215.327C155.325 215.655 154.609 215.826 153.883 215.826C153.157 215.826 152.441 215.655 151.793 215.327L56.2896 160.226C56.0375 160.141 55.8185 159.978 55.6634 159.762C55.5083 159.546 55.4249 159.286 55.4249 159.02C55.4249 158.754 55.5083 158.495 55.6634 158.279C55.8185 158.062 56.0375 157.9 56.2896 157.814L67.7956 151.178C68.4434 150.85 69.1593 150.679 69.8854 150.679C70.6116 150.679 71.3275 150.85 71.9752 151.178L167.479 206.278C167.731 206.364 167.95 206.526 168.105 206.742C168.26 206.959 168.344 207.218 168.344 207.484C168.344 207.75 168.26 208.01 168.105 208.226C167.95 208.442 167.731 208.604 167.479 208.69Z" fill="#E0E0E0"/>
<path d="M313.784 300.457L302.278 307.093C301.63 307.421 300.914 307.592 300.188 307.592C299.462 307.592 298.746 307.421 298.098 307.093L202.604 251.993C202.352 251.907 202.133 251.745 201.978 251.529C201.823 251.312 201.739 251.053 201.739 250.787C201.739 250.521 201.823 250.262 201.978 250.045C202.133 249.829 202.352 249.667 202.604 249.581L214.11 242.944C214.758 242.616 215.474 242.446 216.2 242.446C216.926 242.446 217.642 242.616 218.29 242.944L313.784 298.045C314.036 298.13 314.255 298.293 314.41 298.509C314.565 298.725 314.648 298.985 314.648 299.251C314.648 299.517 314.565 299.776 314.41 299.992C314.255 300.209 314.036 300.371 313.784 300.457Z" fill="#E0E0E0"/>
<path d="M425.135 220.902L413.629 227.539C412.982 227.867 412.266 228.038 411.539 228.038C410.813 228.038 410.097 227.867 409.45 227.539L313.946 172.438C313.694 172.353 313.475 172.191 313.32 171.974C313.165 171.758 313.081 171.499 313.081 171.233C313.081 170.966 313.165 170.707 313.32 170.491C313.475 170.275 313.694 170.112 313.946 170.027L325.452 163.39C326.1 163.062 326.816 162.891 327.542 162.891C328.268 162.891 328.984 163.062 329.632 163.39L425.135 218.49C425.387 218.576 425.606 218.738 425.761 218.955C425.917 219.171 426 219.43 426 219.696C426 219.962 425.917 220.222 425.761 220.438C425.606 220.654 425.387 220.817 425.135 220.902Z" fill="#E0E0E0"/>
<path d="M156.653 210.502L162.28 207.251C162.89 206.856 163.397 206.322 163.761 205.693C164.125 205.065 164.336 204.359 164.375 203.634V57.4323C164.336 56.7071 164.125 56.0014 163.761 55.3728C163.397 54.7442 162.89 54.2104 162.28 53.8149L71.5451 1.48291C70.8956 1.15483 70.1781 0.983887 69.4505 0.983887C68.7228 0.983887 68.0052 1.15483 67.3558 1.48291L61.7283 4.73375C61.1188 5.12925 60.6113 5.66306 60.2473 6.29168C59.8833 6.9203 59.673 7.62596 59.6337 8.35117V154.553C59.673 155.278 59.8833 155.984 60.2473 156.612C60.6113 157.241 61.1188 157.775 61.7283 158.17L152.464 210.502C153.113 210.83 153.831 211.001 154.558 211.001C155.286 211.001 156.003 210.83 156.653 210.502Z" fill="#F0F0F0"/>
<path d="M164.075 56.0455C164.079 56.0228 164.079 55.9995 164.075 55.9768V56.0455Z" fill="#407BFF"/>
<path d="M164.281 56.6718C164.233 56.457 164.165 56.247 164.079 56.0444C164.165 56.247 164.233 56.457 164.281 56.6718Z" fill="#407BFF"/>
<path d="M59.6709 8.35234C59.6709 7.02113 60.6362 6.48093 61.7656 7.14654L152.501 59.4785C153.123 59.8622 153.635 60.4006 153.987 61.0412L163.795 55.3691C163.906 55.5658 164.006 55.7687 164.094 55.9768C163.743 55.086 163.122 54.3271 162.318 53.8064L71.5823 1.47443C70.9333 1.15086 70.2179 0.982422 69.4925 0.982422C68.7672 0.982422 68.0518 1.15086 67.4027 1.47443L61.7752 4.73493C61.1639 5.12935 60.6545 5.66268 60.2888 6.29137C59.9231 6.92005 59.7114 7.62627 59.6709 8.35234Z" fill="#FAFAFA"/>
<path d="M148.008 70.2633V168.175C148.008 169.284 147.226 169.728 146.27 169.139L69.6183 124.91C69.1121 124.579 68.6911 124.132 68.3893 123.608C68.0875 123.083 67.9133 122.495 67.8809 121.891V24.0183C67.8809 22.9089 68.6627 22.4556 69.6183 23.0536L146.299 67.244C146.8 67.5791 147.216 68.0267 147.512 68.551C147.809 69.0753 147.979 69.6617 148.008 70.2633Z" fill="#E5EEFF"/>
<path d="M152.956 210.725C153.071 210.774 153.191 210.812 153.313 210.841L153.718 210.937C154.277 211.034 154.849 211.034 155.408 210.937L155.939 210.812L156.189 210.725C156.349 210.663 156.504 210.589 156.653 210.503L162.28 207.252C162.89 206.857 163.397 206.323 163.761 205.694C164.125 205.066 164.336 204.36 164.375 203.635V57.4334C164.376 57.1762 164.344 56.92 164.278 56.6713C164.169 56.2141 163.993 55.7754 163.757 55.369L153.95 61.0411C154.325 61.6628 154.535 62.3702 154.558 63.0958V209.297C154.558 210.445 153.883 211.005 152.956 210.725Z" fill="#E0E0E0"/>
<path d="M94.7453 153.049L93.6835 155.297C93.6699 155.328 93.65 155.357 93.6251 155.382C93.6001 155.406 93.5706 155.425 93.5382 155.437C93.5059 155.45 93.4713 155.456 93.4366 155.455C93.4019 155.454 93.3677 155.446 93.336 155.432L90.9711 154.525C90.5947 154.38 90.4499 154.911 90.7202 155.422L92.4287 158.634C92.5354 158.821 92.5826 159.037 92.5638 159.252L92.1584 162.145C92.0908 162.608 92.4866 163.216 92.8245 163.178L94.9384 162.917C95.025 162.919 95.1098 162.942 95.1855 162.984C95.2613 163.026 95.3255 163.086 95.3727 163.158L97.4867 165.869C97.8245 166.293 98.2203 166.139 98.1527 165.609L97.7473 162.232C97.7272 162.15 97.7291 162.064 97.7528 161.983C97.7765 161.901 97.8212 161.828 97.8824 161.769L99.591 160.525C99.8709 160.332 99.7165 159.628 99.34 159.338L96.9751 157.515C96.8092 157.377 96.6883 157.192 96.6276 156.985L95.5658 153.512C95.4017 152.991 94.9094 152.692 94.7453 153.049Z" fill="#37474F"/>
<path d="M93.6875 79.4079C91.699 79.0607 89.0252 79.5912 85.5792 82.8324C82.5965 85.6395 76.9594 95.1027 76.0617 96.7812C75.164 98.4597 89.2279 122.904 89.2279 122.904L91.7955 116.151L84.4595 98.6526L91.4288 91.0801L93.6875 79.4079Z" fill="#E39E8C"/>
<path d="M97.0781 78.9354C97.0781 78.9354 92.3194 78.0961 88.6707 79.7553C86.2575 80.8454 77.0874 90.241 75.6299 92.3729C74.1723 94.5047 74.597 95.1414 75.2631 96.9935C75.7264 98.2861 76.46 99.5209 79.5489 105.608C81.5373 109.524 85.6494 116.585 85.6494 116.585L90.022 112.409L84.8482 98.9035L91.4217 91.0706L97.0781 78.9354Z" fill="#407BFF"/>
<path opacity="0.1" d="M97.0781 78.9354C97.0781 78.9354 92.3194 78.0961 88.6707 79.7553C86.2575 80.8454 77.0874 90.241 75.6299 92.3729C74.1723 94.5047 74.597 95.1414 75.2631 96.9935C75.7264 98.2861 76.46 99.5209 79.5489 105.608C81.5373 109.524 85.6494 116.585 85.6494 116.585L90.022 112.409L84.8482 98.9035L91.4217 91.0706L97.0781 78.9354Z" fill="black"/>
<path d="M120.797 218.404L114.484 217.285V206.48L120.797 207.599V218.404Z" fill="#E3A392"/>
<path d="M94.9531 205.67L88.6403 204.773L88.3217 193.275L94.9531 194.23V205.67Z" fill="#E3A392"/>
<path d="M119.91 130.283C119.91 136.312 120.325 171.445 120.325 171.445C120.479 173.2 122.149 176.577 122.255 182.856C122.448 191.943 121.049 213.05 121.049 213.05C121.049 213.05 117.979 214.294 114.012 211.95C114.012 211.95 109.05 180.879 107.921 171.715C106.956 163.708 103.046 144.772 103.046 144.772L98.693 167.818C99.4157 171.159 99.6819 174.582 99.4845 177.995C99.1853 182.085 95.3435 202.198 95.3435 202.198C95.3435 202.198 92.3705 203.683 88.0461 201.464C88.0461 201.464 87.6697 168.782 87.5924 164.962C87.5152 160.602 89.4071 123.608 89.4071 123.608L119.91 130.283Z" fill="#37474F"/>
<path d="M114.463 214.169V213.272C114.125 213.204 113.913 213.503 113.778 214.294C113.691 214.874 113.568 215.447 113.411 216.012C113.14 217.057 112.772 218.074 112.31 219.05C111.413 221.095 110.669 221.78 108.623 223.989C107.935 224.586 107.29 225.231 106.693 225.918C106.306 226.536 106.171 228.398 106.818 228.947C109.278 230.812 112.36 231.661 115.428 231.32C116.356 231.243 117.23 230.853 117.905 230.213C118.581 229.572 119.018 228.721 119.144 227.799C119.241 227.23 119.212 226.632 119.28 226.063C119.481 224.808 120.025 223.633 120.853 222.668C121.334 222.131 121.743 221.535 122.069 220.893C122.6 219.687 122.175 218.153 121.838 216.803C121.548 215.626 121.229 214.343 120.872 214.381V215.076C119.921 215.634 118.795 215.816 117.716 215.587C116.722 215.452 114.463 214.873 114.463 214.169Z" fill="#263238"/>
<path d="M88.5759 202.815C88.2477 202.815 87.9871 203.181 87.2631 203.837C86.1712 204.74 84.9162 205.424 83.5662 205.853C81.2013 206.616 76.5969 207.628 74.5119 208.198C73.2185 208.554 73.2764 210.127 74.6181 211.265C75.9599 212.403 79.2128 213.609 83.1028 213.426C85.2264 213.329 87.9968 211.854 89.7439 212.268C91.491 212.683 94.7633 213.233 96.0568 212.577C97.3502 211.921 96.829 209.924 96.4622 208.226C96.0664 206.374 95.5645 203.509 94.9757 203.529V204.117C94.2228 205.14 90.3038 204.908 88.6338 203.77L88.5759 202.815Z" fill="#263238"/>
<path d="M103.547 142.206C100.226 140.58 97.2394 138.346 94.7436 135.618C94.7436 135.618 96.4425 139.091 101.5 142.94L99.0101 166.043L103.547 142.206Z" fill="#263238"/>
<path d="M108.957 82.0992C111.11 82.9963 115.444 84.4626 116.419 88.9192C117.587 94.2634 117.963 105.521 117.963 105.521L118.32 130.495C113.967 132.897 97.9918 131.807 88.8314 123.511C88.8314 123.511 89.9607 93.8003 89.9607 89.1508C89.9607 84.5012 92.5476 79.3596 99.6906 80.1989L108.957 82.0992Z" fill="#F5F5F5"/>
<path d="M99.8208 79.7361C97.8407 81.0601 96.3941 83.0424 95.7377 85.331C94.8689 88.9485 94.7724 130.978 94.7724 130.978C94.7724 130.978 90.3032 129.357 88.2086 127.351C88.2086 127.351 88.4789 94.2058 88.9036 88.7652C89.5503 80.556 89.4827 78.1541 99.8594 79.1187L99.8208 79.7361Z" fill="#407BFF"/>
<path d="M110.842 81.0573C110.842 81.0573 104.896 83.6714 104.828 98.2279C104.77 110.768 104.346 132.666 104.346 132.666C104.346 132.666 114.201 135.849 120.446 133.225C120.446 133.225 121.19 102.82 121.074 98.0639C120.939 92.633 119.674 85.4078 117.937 84.4046C115.647 83.1367 113.277 82.0186 110.842 81.0573Z" fill="#407BFF"/>
<path opacity="0.1" d="M111.508 89.1411L108.776 92.035L110.137 96.1155L106.556 104.662L110.88 96.2409L109.365 92.3534L111.508 89.1411Z" fill="black"/>
<path opacity="0.1" d="M92.2814 84.6653L92.8702 88.2634L90.515 90.9162L93.7969 101.826L91.2582 91.1573L93.4301 88.6686L92.2814 84.6653Z" fill="black"/>
<path d="M92.8665 64.9104C89.3311 61.052 89.0914 55.5208 92.3311 52.5561C95.5708 49.5915 101.063 50.316 104.599 54.1744C108.134 58.0329 108.374 63.5641 105.134 66.5288C101.894 69.4934 96.4019 68.7689 92.8665 64.9104Z" fill="#263238"/>
<path d="M113.742 68.3629C113.742 68.3629 112.333 74.7199 111.812 75.7039C111.621 76.0013 111.368 76.2531 111.069 76.4415C110.771 76.6299 110.434 76.7502 110.084 76.7939L110.18 72.1636L113.742 68.3629Z" fill="#263238"/>
<path d="M111.976 58.5911C112.499 58.6314 113.009 58.778 113.473 59.0218C113.938 59.2656 114.348 59.6016 114.679 60.0091C115.837 61.3982 115.19 64.9867 113.713 68.3629L111.069 68.1989L111.976 58.5911Z" fill="#263238"/>
<path d="M110.301 68.1025C110.832 68.5076 111.594 67.6202 112.231 67.051C112.869 66.4819 115.021 65.9224 116.093 68.3629C117.164 70.8035 115.127 73.5142 113.467 73.7457C110.571 74.1412 110.127 72.2022 110.127 72.2022L109.915 82.9484C107.907 85.1671 103.399 87.3954 100.967 86.5368C99.0362 85.852 98.6115 82.5046 100.465 80.6911V77.5078C99.1642 77.479 97.8701 77.3142 96.6038 77.0158C94.4705 76.3116 93.1288 74.392 92.4821 71.9611C91.4396 68.1025 91.0438 65.006 91.9222 57.8676C92.8875 50.0443 102.202 51.6071 107.222 55.6489C112.241 59.6908 110.301 68.1025 110.301 68.1025Z" fill="#E3A392"/>
<path d="M110.302 68.9511C110.573 69.009 111.586 67.5041 112.233 67.0218C113.198 66.3562 111.963 58.6005 111.963 58.6005C112.287 57.9194 112.4 57.1573 112.288 56.4115C112.176 55.6658 111.845 54.9703 111.335 54.4139C110.08 52.803 108.324 50.8158 102.648 50.4782C98.584 50.2467 94.1631 50.729 90.5916 48.3463C90.2935 49.5702 90.3336 50.852 90.7077 52.0548C91.0817 53.2577 91.7755 54.3365 92.7152 55.176C94.1437 56.1394 95.7321 56.8416 97.4064 57.25C100.495 58.0323 103.648 58.5296 106.827 58.7355C107.793 58.7355 108.024 59.758 108.555 62.4687C109.019 64.8321 109.405 68.7775 110.302 68.9511Z" fill="#263238"/>
<path d="M111.973 59.1695L115.188 58.0119C115.001 57.5463 114.651 57.1647 114.203 56.9391C113.755 56.7134 113.24 56.6593 112.755 56.7868C112.538 56.8813 112.343 57.0207 112.183 57.1959C112.024 57.371 111.903 57.5778 111.829 57.8029C111.755 58.0279 111.73 58.2661 111.755 58.5016C111.78 58.7371 111.854 58.9648 111.973 59.1695Z" fill="#263238"/>
<path d="M100.475 77.469C100.475 77.469 105.244 77.3436 106.914 76.7552C107.878 76.425 108.693 75.7613 109.211 74.8838C108.972 75.7903 108.526 76.629 107.908 77.334C106.682 78.6748 100.475 78.7327 100.475 78.7327V77.469Z" fill="#E39E8C"/>
<path d="M101.623 65.3435C101.628 65.6174 101.727 65.8812 101.902 66.0916C102.078 66.302 102.32 66.4464 102.588 66.5011C102.709 66.5265 102.833 66.5238 102.953 66.4933C103.072 66.4627 103.183 66.405 103.276 66.3248C103.369 66.2445 103.443 66.1438 103.491 66.0305C103.539 65.9172 103.56 65.7944 103.553 65.6715C103.548 65.3977 103.449 65.1339 103.274 64.9235C103.099 64.7131 102.857 64.5687 102.588 64.514C102.468 64.4885 102.343 64.4912 102.224 64.5218C102.104 64.5524 101.994 64.6101 101.9 64.6903C101.807 64.7706 101.733 64.8712 101.685 64.9845C101.637 65.0978 101.616 65.2207 101.623 65.3435Z" fill="#263238"/>
<path d="M102.65 61.9189L104.696 63.4045C104.831 63.1089 104.857 62.7749 104.769 62.4621C104.68 62.1493 104.483 61.8782 104.213 61.6971C104.101 61.5969 103.968 61.5224 103.825 61.4788C103.681 61.4352 103.529 61.4236 103.38 61.4447C103.231 61.4658 103.088 61.5192 102.962 61.6011C102.836 61.683 102.729 61.7915 102.65 61.9189Z" fill="#263238"/>
<path d="M100.943 71.8064L98.7615 72.2408C98.8582 72.5495 99.0596 72.8149 99.331 72.9911C99.6023 73.1673 99.9267 73.2433 100.248 73.206C100.392 73.1691 100.526 73.1016 100.641 73.0083C100.756 72.915 100.85 72.7979 100.916 72.6652C100.982 72.5324 101.018 72.3869 101.023 72.2388C101.028 72.0906 101 71.9431 100.943 71.8064Z" fill="#E39E8C"/>
<path d="M93.1136 61.0314L94.9766 59.9317C94.8263 59.6519 94.5746 59.44 94.2731 59.3396C93.9717 59.2392 93.6432 59.2578 93.3549 59.3915C93.2308 59.483 93.126 59.598 93.0467 59.7301C92.9673 59.8623 92.9149 60.0088 92.8924 60.1612C92.87 60.3137 92.878 60.4691 92.9159 60.6184C92.9539 60.7678 93.0211 60.9081 93.1136 61.0314Z" fill="#263238"/>
<path d="M93.6853 63.6745C93.6942 63.9473 93.7939 64.2094 93.9688 64.4191C94.1437 64.6288 94.3836 64.7742 94.6506 64.832C94.7711 64.8575 94.8958 64.8548 95.0151 64.8242C95.1344 64.7936 95.245 64.7359 95.3384 64.6557C95.4318 64.5754 95.5054 64.4748 95.5535 64.3615C95.6016 64.2482 95.623 64.1253 95.6159 64.0025C95.6122 63.7281 95.5143 63.4634 95.3385 63.2527C95.1628 63.0419 94.9199 62.898 94.6506 62.8449C94.5301 62.8195 94.4053 62.8222 94.2861 62.8528C94.1668 62.8833 94.0561 62.941 93.9628 63.0212C93.8694 63.1015 93.7958 63.2022 93.7477 63.3155C93.6995 63.4288 93.6782 63.5516 93.6853 63.6745Z" fill="#263238"/>
<path d="M98.5469 63.6265L98.238 69.3082L95.236 67.7551L98.5469 63.6265Z" fill="#E39E8C"/>
<path d="M97.5101 85.2247C98.0989 86.7199 99.18 87.4723 101.13 88.0415C102.049 88.2932 103.013 88.3373 103.951 88.1704C104.889 88.0036 105.779 87.63 106.555 87.0768L104.113 84.1829L101.024 85.9675L100.763 83.3243L97.5101 85.2247Z" fill="#407BFF"/>
<path opacity="0.1" d="M97.5101 85.2247C98.0989 86.7199 99.18 87.4723 101.13 88.0415C102.049 88.2932 103.013 88.3373 103.951 88.1704C104.889 88.0036 105.779 87.63 106.555 87.0768L104.113 84.1829L101.024 85.9675L100.763 83.3243L97.5101 85.2247Z" fill="black"/>
<path d="M99.0079 84.7327C98.7181 85.5517 98.6095 86.4239 98.6894 87.289C98.7903 88.1218 99.0881 88.9187 99.5582 89.6138C99.8472 89.8556 100.184 90.0338 100.547 90.1368C100.909 90.2399 101.289 90.2654 101.662 90.2118C102.301 89.7612 102.818 89.1601 103.168 88.4617C103.519 87.7634 103.691 86.9894 103.67 86.2086L100.987 86.0446L99.0079 84.7327Z" fill="#407BFF"/>
<path d="M99.6028 89.614C99.6028 89.614 96.4271 106.544 96.3016 107.942C96.1761 109.341 98.1259 114.695 99.3325 114.946C100.539 115.196 102.914 111.087 102.952 109.804C102.991 108.521 101.707 90.2217 101.707 90.2217L99.6028 89.614Z" fill="#407BFF"/>
<path opacity="0.1" d="M101.705 90.2125C101.333 90.301 100.944 90.2925 100.575 90.1877C100.207 90.0829 99.8714 89.8854 99.6011 89.614L99.5528 89.8746C99.8346 90.1622 100.176 90.3847 100.553 90.5264C100.93 90.6681 101.333 90.7257 101.734 90.6951L101.705 90.2125Z" fill="black"/>
<path d="M101.029 86.0449L109.967 80.8165V78.8004C109.967 78.8004 112.043 79.958 112.516 83.7008C111.096 86.5971 108.592 88.8185 105.546 89.8842L103.674 86.2089L101.029 86.0449Z" fill="#E0E0E0"/>
<path d="M100.482 78.0479C99.9358 78.0316 99.3929 78.1365 98.8922 78.355C98.3914 78.5735 97.9454 78.9002 97.5861 79.3116C96.6884 80.6332 96.8911 86.2957 96.8911 86.2957L99.0148 84.7329L100.945 86.0449C100.762 84.1156 100.395 80.6525 100.395 80.6525L100.482 78.0479Z" fill="#E0E0E0"/>
<path d="M124.646 129.84C123.913 130.476 123.353 131.248 121.963 132.608C121.344 133.309 120.606 133.894 119.781 134.335C118.695 134.839 117.535 135.165 116.345 135.3C114.738 135.455 113.117 135.189 111.644 134.528C110.782 134.144 110.004 133.594 109.356 132.907C108.709 132.228 108.288 131.365 108.15 130.438C108.104 130.27 108.104 130.094 108.15 129.926C108.275 129.647 108.604 129.56 108.893 129.492C110.617 129.235 112.325 128.881 114.009 128.431C115.341 127.959 116.181 127.467 115.94 127.274C115.698 127.081 114.907 127.447 113.594 127.274C112.281 127.1 111.104 126.116 111.152 125.422C111.2 124.727 111.21 124.862 112.494 124.872C113.884 124.705 115.283 124.631 116.683 124.65C117.896 124.796 119.126 124.701 120.303 124.37C122.947 123.791 130.303 113.942 130.303 113.942L117.532 97.3118C117.532 97.3118 114.337 90.5593 118.025 84.9161C118.025 84.9161 119.656 85.3599 122.851 88.7747C126.046 92.1896 138.585 113.441 139.396 114.685C140.206 115.929 139.984 117.579 138.488 119.093C136.992 120.608 124.646 129.84 124.646 129.84Z" fill="#E39E8C"/>
<path d="M117.352 84.0865C117.352 84.0865 113.134 91.003 117.352 97.5916C121.57 104.18 129.592 113.769 129.592 113.769L122.603 122.788L126.532 128.441C126.532 128.441 138.907 119.759 139.911 118.669C140.915 117.579 141.059 116.991 139.911 114.203C138.762 111.415 124.65 85.6879 117.352 84.0865Z" fill="#407BFF"/>
<path opacity="0.1" d="M117.352 84.0865C117.352 84.0865 113.134 91.003 117.352 97.5916C121.57 104.18 129.592 113.769 129.592 113.769L122.603 122.788L126.532 128.441C126.532 128.441 138.907 119.759 139.911 118.669C140.915 117.579 141.059 116.991 139.911 114.203C138.762 111.415 124.65 85.6879 117.352 84.0865Z" fill="black"/>
<path d="M301.723 301.662L307.351 298.411C307.96 298.015 308.468 297.482 308.832 296.853C309.196 296.224 309.406 295.519 309.445 294.793V148.592C309.407 147.865 309.198 147.157 308.834 146.527C308.47 145.897 307.962 145.361 307.351 144.965L216.615 92.6329C215.966 92.3048 215.248 92.1339 214.521 92.1339C213.793 92.1339 213.076 92.3048 212.426 92.6329L206.799 95.8838C206.189 96.2793 205.682 96.8131 205.318 97.4417C204.954 98.0703 204.743 98.776 204.704 99.5012V245.703C204.743 246.428 204.954 247.134 205.318 247.762C205.682 248.391 206.189 248.925 206.799 249.32L297.534 301.662C298.183 301.99 298.901 302.161 299.629 302.161C300.356 302.161 301.074 301.99 301.723 301.662Z" fill="#407BFF"/>
<path d="M309.188 147.205C309.183 147.185 309.183 147.165 309.188 147.145V147.205Z" fill="#407BFF"/>
<path d="M309.391 147.821C309.341 147.606 309.273 147.396 309.188 147.193C309.274 147.396 309.342 147.606 309.391 147.821Z" fill="#407BFF"/>
<path opacity="0.4" d="M204.78 99.5106C204.78 98.1697 205.745 97.6296 206.874 98.2952L297.61 150.627C298.228 151.016 298.739 151.553 299.096 152.19L308.865 146.527C308.976 146.724 309.076 146.927 309.164 147.135C308.815 146.243 308.194 145.483 307.388 144.965L216.653 92.6327C216.005 92.3047 215.289 92.1338 214.563 92.1338C213.837 92.1338 213.121 92.3047 212.473 92.6327L206.845 95.8835C206.24 96.2832 205.737 96.8199 205.379 97.4502C205.02 98.0804 204.814 98.7863 204.78 99.5106Z" fill="white"/>
<path d="M293.117 161.412V259.323C293.117 260.433 292.335 260.886 291.37 260.288L214.728 216.059C214.223 215.728 213.802 215.283 213.501 214.761C213.199 214.238 213.024 213.652 212.99 213.049V115.176C212.99 114.057 213.762 113.614 214.728 114.164L291.37 158.393C291.878 158.723 292.301 159.169 292.604 159.694C292.908 160.218 293.084 160.807 293.117 161.412Z" fill="#E6F1FF"/>
<path opacity="0.1" d="M298.065 301.874L298.422 301.999L298.818 302.086C299.38 302.182 299.954 302.182 300.517 302.086C300.696 302.053 300.873 302.011 301.047 301.96L301.298 301.874C301.458 301.815 301.613 301.744 301.762 301.661L307.389 298.411C307.991 298.01 308.491 297.474 308.848 296.846C309.205 296.218 309.409 295.515 309.445 294.793V148.582C309.446 148.325 309.413 148.069 309.349 147.82C309.237 147.367 309.061 146.932 308.828 146.527L299.02 152.19C299.396 152.815 299.605 153.526 299.629 154.254V300.446C299.667 301.594 298.991 302.153 298.065 301.874Z" fill="black"/>
<path d="M246.086 175.178C241.491 174.676 239.435 174.666 236.366 177.522C233.644 180.039 226.269 187.998 225.391 189.483C224.512 190.969 237.196 215.365 237.196 215.365L239.725 209.143L233.711 193.872L243.557 186.435L246.086 175.178Z" fill="#FFA8A7"/>
<path d="M265.217 153.849L268.586 152.644C268.392 152.148 268.022 151.741 267.546 151.502C267.07 151.263 266.522 151.21 266.009 151.351C265.783 151.452 265.581 151.6 265.416 151.785C265.251 151.97 265.127 152.187 265.053 152.423C264.978 152.659 264.954 152.908 264.982 153.154C265.011 153.4 265.091 153.637 265.217 153.849Z" fill="#263238"/>
<path d="M265.161 152.856L266.242 149.383C266.039 149.249 265.808 149.163 265.567 149.131C265.326 149.099 265.081 149.123 264.85 149.2C264.619 149.277 264.409 149.406 264.236 149.576C264.062 149.747 263.93 149.954 263.848 150.183C263.735 150.711 263.802 151.262 264.041 151.747C264.279 152.232 264.674 152.622 265.161 152.856Z" fill="#263238"/>
<path d="M238.363 172.631L255.39 175.631C262.253 176.846 267.823 172.264 267.823 165.396V162.377C268.045 154.283 261.587 146.373 253.45 144.714C245.313 143.055 238.536 148.274 238.314 156.377L238.363 172.631Z" fill="#263238"/>
<path d="M244.203 149.431C244.468 151.545 245.161 153.583 246.239 155.42C247.318 157.258 248.76 158.857 250.477 160.119C254.927 163.505 258.315 164.065 258.315 164.065C258.315 164.065 259.444 160.052 256.239 154.64C253.035 149.229 249.28 147.714 246.983 147.762C246.402 147.712 245.821 147.846 245.321 148.146C244.822 148.446 244.43 148.895 244.203 149.431Z" fill="#407BFF"/>
<path d="M263.055 311.202L256.346 310.189V301.642L263.055 302.655V311.202Z" fill="#FFA8A7"/>
<path d="M245.395 305.733C245.038 306.697 243.282 307.238 242.007 307.971C241.518 308.266 241.161 308.738 241.01 309.29C240.859 309.841 240.926 310.429 241.197 310.932C241.679 311.839 243.928 312.669 246.322 312.697C249.035 312.697 251.872 311.8 252.365 309.485C252.66 307.563 253.199 305.687 253.967 303.9C254.43 302.742 255.251 301.729 255.067 300.456C254.776 299.176 254.058 298.033 253.031 297.215C253.031 297.215 248.089 306.717 246.843 306.726C246.523 306.762 246.2 306.682 245.934 306.499C245.668 306.317 245.477 306.045 245.395 305.733Z" fill="#263238"/>
<path d="M245.19 292.247L246.445 296.896C246.64 299.605 246.402 302.327 245.74 304.961C245.516 305.773 244.983 306.466 244.254 306.89C244.254 306.89 242.458 308.135 244.543 308.819C245.421 309.147 246.371 309.23 247.293 309.061C248.214 308.891 249.072 308.474 249.775 307.855C251.155 306.514 251.329 302.067 252.256 300.34C252.854 299.26 253.289 298.594 253.443 298.237C253.597 297.88 253.028 297.562 252.478 295.777C252.019 294.066 251.677 292.326 251.455 290.568L245.19 292.247Z" fill="#FFA8A7"/>
<path d="M266.409 218.847C269.305 227.085 267.027 240.233 266.071 250.487C265.231 259.41 264.141 266.935 264.141 266.935C265.297 270.535 265.829 274.306 265.714 278.086C265.589 285.147 263.118 304.44 263.118 304.44C261.981 304.864 260.755 304.991 259.555 304.808C258.356 304.626 257.223 304.141 256.264 303.398C256.264 303.398 255.299 291.485 254.334 283.208C253.368 274.526 252.992 268.333 252.123 263.23C251.032 256.873 250.366 237.117 250.366 237.117L245.463 257.172C246.899 260.432 248.068 263.804 248.957 267.253C250.251 272.491 252.123 293.462 252.123 293.462C251.282 294.254 250.241 294.802 249.112 295.048C247.983 295.294 246.809 295.23 245.714 294.861C245.714 294.861 235.009 261.552 233.841 258.108C232.219 253.391 235.472 224.095 236.37 214.477L266.409 218.847Z" fill="#37474F"/>
<path d="M250.375 237.098L249.979 232.015C247.123 231.552 244.451 230.311 242.257 228.426C243.783 230.485 245.833 232.097 248.193 233.095L248.676 237.754L246.533 252.909L250.375 237.098Z" fill="#263238"/>
<path d="M258.375 178.949C260.019 179.456 261.631 180.062 263.202 180.763C260.644 186.329 264.09 194.682 264.09 194.682L260.615 206.451C263.559 210.019 265.551 214.273 266.406 218.818C264.225 220.95 250.846 224.538 236.377 214.477C236.377 214.477 237.699 205.216 238.307 199.708C236.135 190.255 236.676 188.403 237.294 186.116C239.041 179.682 240.894 178.882 246.145 175.206L249.34 175.766L258.375 178.949Z" fill="#407BFF"/>
<path d="M256.353 307.334V306.485C255.672 309.071 254.205 311.383 252.154 313.102C250.301 314.463 247.772 315.996 247.135 317.733C246.498 319.469 250.117 320.993 252.511 321.176C253.606 321.261 254.707 321.119 255.744 320.761C256.782 320.403 257.735 319.835 258.544 319.093C259.632 317.979 260.648 316.796 261.585 315.553C262.289 314.723 263.93 313.932 264.317 312.89C264.431 311.83 264.316 310.757 263.979 309.745C263.708 308.665 263.409 307.469 263.062 307.507V308.144C262.173 308.662 261.124 308.831 260.118 308.617C259.249 308.462 256.353 307.941 256.353 307.334Z" fill="#263238"/>
<path d="M263.055 308.105C262.166 308.624 261.117 308.792 260.111 308.578C259.252 308.462 256.346 307.941 256.346 307.295V306.456C255.662 309.038 254.195 311.346 252.147 313.064L250.738 314.028C249.773 314.993 250.033 315.958 252.35 316.565C253.607 316.799 254.902 316.711 256.115 316.309C257.329 315.908 258.421 315.206 259.29 314.269C261.047 312.466 263.055 308.105 263.055 308.105Z" fill="#FFA8A7"/>
<g opacity="0.1">
<path opacity="0.1" d="M262.609 199.689L255.515 207.869L260.611 206.451L262.609 199.689Z" fill="black"/>
</g>
<path d="M244.209 149.431C242.626 150.029 240.599 153.531 240.56 161.731C240.56 168.686 242.741 170.846 243.861 171.57C244.981 172.293 247.172 172.438 249.305 172.535V175.776C249.305 175.776 245.444 178.911 245.589 180.859C245.734 182.808 250.483 184.631 253.311 183.329C255.257 182.297 256.99 180.906 258.417 179.229L258.726 169.322C258.726 169.322 259.943 170.779 262.114 169.371C262.55 169.113 262.928 168.768 263.223 168.357C263.519 167.946 263.727 167.479 263.833 166.984C263.939 166.489 263.941 165.978 263.84 165.482C263.738 164.987 263.536 164.517 263.244 164.104C261.912 162.454 259.383 162.319 258.369 164.104C258.369 164.104 254.981 163.534 250.541 160.158C248.811 158.895 247.357 157.292 246.268 155.447C245.179 153.603 244.479 151.556 244.209 149.431Z" fill="#FFA8A7"/>
<path d="M249.224 161.962C249.211 162.21 249.283 162.456 249.429 162.658C249.575 162.86 249.785 163.005 250.025 163.071C250.134 163.107 250.25 163.118 250.363 163.101C250.476 163.085 250.584 163.042 250.678 162.976C250.772 162.911 250.849 162.824 250.903 162.723C250.958 162.622 250.987 162.51 250.991 162.396C251.004 162.147 250.932 161.902 250.786 161.7C250.64 161.498 250.43 161.352 250.189 161.287C250.081 161.25 249.965 161.24 249.852 161.257C249.739 161.273 249.631 161.316 249.537 161.381C249.443 161.447 249.366 161.534 249.312 161.635C249.257 161.735 249.227 161.847 249.224 161.962Z" fill="#263238"/>
<path d="M248.826 167.779L246.78 168.01C246.855 168.296 247.024 168.547 247.261 168.722C247.498 168.898 247.788 168.987 248.083 168.976C248.213 168.95 248.335 168.898 248.444 168.822C248.553 168.747 248.644 168.65 248.714 168.538C248.784 168.426 248.83 168.301 248.849 168.17C248.868 168.039 248.861 167.906 248.826 167.779Z" fill="#F28F8F"/>
<path d="M242.132 157.815L243.938 156.956C243.811 156.691 243.591 156.483 243.321 156.37C243.05 156.258 242.747 156.25 242.47 156.348C242.349 156.42 242.244 156.516 242.162 156.629C242.079 156.743 242.02 156.872 241.988 157.009C241.957 157.146 241.953 157.288 241.978 157.427C242.003 157.565 242.055 157.697 242.132 157.815Z" fill="#263238"/>
<path d="M250.874 158.614L252.206 160.1C252.426 159.906 252.565 159.637 252.595 159.346C252.626 159.054 252.545 158.762 252.37 158.528C252.269 158.43 252.148 158.355 252.016 158.307C251.884 158.258 251.744 158.237 251.603 158.245C251.463 158.253 251.326 158.29 251.2 158.354C251.075 158.417 250.964 158.506 250.874 158.614Z" fill="#263238"/>
<path d="M242.473 159.956C242.462 160.205 242.536 160.451 242.684 160.653C242.831 160.854 243.042 161 243.284 161.065C243.392 161.103 243.508 161.115 243.623 161.1C243.737 161.084 243.846 161.042 243.94 160.976C244.034 160.91 244.112 160.822 244.165 160.72C244.219 160.618 244.248 160.505 244.249 160.39C244.26 160.142 244.187 159.897 244.042 159.696C243.896 159.494 243.687 159.348 243.448 159.28C243.338 159.245 243.222 159.234 243.109 159.251C242.995 159.267 242.886 159.31 242.792 159.376C242.698 159.441 242.62 159.527 242.564 159.628C242.509 159.729 242.477 159.841 242.473 159.956Z" fill="#263238"/>
<path d="M246.445 159.83L246.339 165.502L243.588 164.084L246.445 159.83Z" fill="#F28F8F"/>
<path d="M249.293 172.525C251.532 172.689 256.175 172.303 256.938 170.644C256.636 171.485 256.039 172.187 255.258 172.621C253.858 173.519 249.273 173.924 249.273 173.924L249.293 172.525Z" fill="#F28F8F"/>
<path d="M269.175 223.014C268.489 223.477 267.978 224.105 266.694 225.137C266.117 225.681 265.433 226.102 264.686 226.371C263.652 226.649 262.578 226.75 261.511 226.67C259.968 226.533 258.482 226.027 257.177 225.195C256.372 224.694 255.657 224.061 255.063 223.323C254.477 222.61 254.09 221.755 253.943 220.844C253.903 220.692 253.903 220.533 253.943 220.381C254.059 220.149 254.358 220.121 254.638 220.101C256.213 220.142 257.789 220.091 259.358 219.947C260.574 219.735 261.356 219.378 261.096 219.185C260.835 218.992 260.13 219.185 258.933 218.77C257.736 218.355 256.636 217.294 256.684 216.667C256.733 216.04 256.733 216.156 257.92 216.378C259.216 216.455 260.506 216.616 261.781 216.86C262.863 217.184 263.997 217.295 265.121 217.188C267.563 217.082 273.963 208.815 273.963 208.815L264.078 194.683C264.078 194.683 259.783 185.335 263.19 180.763C266.168 181.759 268.72 183.735 270.43 186.368C273.403 190.728 282.64 207.165 283.413 208.419C283.809 209.054 283.944 209.818 283.789 210.55C283.634 211.282 283.202 211.925 282.582 212.345C281.212 213.513 269.175 223.014 269.175 223.014Z" fill="#FFA8A7"/>
<path d="M414.504 222.185L420.132 218.934C420.741 218.536 421.248 218 421.612 217.37C421.976 216.74 422.186 216.033 422.227 215.307V69.1149C422.186 68.3886 421.976 67.6818 421.612 67.0518C421.248 66.4217 420.741 65.886 420.132 65.4878L329.397 13.1559C328.749 12.8279 328.033 12.657 327.307 12.657C326.581 12.657 325.865 12.8279 325.217 13.1559L319.58 16.4067C318.972 16.8054 318.466 17.3415 318.104 17.9716C317.742 18.6017 317.533 19.3081 317.495 20.0338V166.226C317.534 166.951 317.743 167.657 318.105 168.287C318.467 168.917 318.972 169.453 319.58 169.853L410.315 222.185C410.965 222.513 411.682 222.684 412.41 222.684C413.137 222.684 413.855 222.513 414.504 222.185Z" fill="#37474F"/>
<path d="M422.133 68.3436C422.077 68.1309 422.009 67.9214 421.93 67.7162C422.015 67.9193 422.083 68.1292 422.133 68.3436Z" fill="#407BFF"/>
<path d="M317.52 20.034C317.52 18.6931 318.485 18.1047 319.614 18.8282L410.35 71.1505C410.944 71.5471 411.431 72.0838 411.769 72.7132L421.585 67.0508C421.697 67.2456 421.794 67.4488 421.875 67.6585C421.53 66.7667 420.912 66.0068 420.109 65.488L329.373 13.1561C328.724 12.8325 328.009 12.6641 327.283 12.6641C326.558 12.6641 325.843 12.8325 325.194 13.1561L319.566 16.4069C318.963 16.8076 318.464 17.345 318.108 17.9753C317.752 18.6056 317.551 19.311 317.52 20.034Z" fill="#455A64"/>
<path d="M405.859 81.9349V179.846C405.859 180.956 405.078 181.409 404.112 180.811L327.47 136.592C326.962 136.261 326.539 135.815 326.235 135.291C325.932 134.766 325.756 134.177 325.723 133.572V35.6996C325.723 34.5902 326.505 34.1368 327.47 34.7349L404.112 78.9542C404.615 79.2812 405.035 79.7209 405.338 80.2383C405.642 80.7557 405.82 81.3366 405.859 81.9349Z" fill="#F2F6FF"/>
<path d="M410.809 222.445C410.921 222.497 411.037 222.539 411.157 222.571L411.562 222.657C412.121 222.754 412.692 222.754 413.251 222.657C413.431 222.63 413.608 222.591 413.782 222.542L414.033 222.445C414.197 222.388 414.355 222.317 414.506 222.233L420.134 218.982C420.741 218.583 421.246 218.047 421.608 217.417C421.971 216.787 422.18 216.08 422.219 215.355V69.1149C422.219 68.8546 422.187 68.5953 422.122 68.3432C422.01 67.89 421.835 67.4549 421.601 67.0505L411.775 72.713C412.156 73.336 412.369 74.0474 412.392 74.7773V220.979C412.412 222.117 411.775 222.686 410.809 222.445Z" fill="#263238"/>
<path d="M358.203 92.8449C354.96 92.4494 352.518 91.8803 350.027 95.3723C347.537 98.8643 338.068 108.472 337.141 110.218C336.214 111.964 349.043 136.833 349.043 136.833L351.726 129.771L345.162 112.89L355.78 104.961L358.203 92.8449Z" fill="#E39E8C"/>
<path d="M358.203 92.845C356.459 92.1601 354.542 92.0486 352.73 92.5267C350.085 93.3949 340.963 104.102 339.4 106.34C337.836 108.578 336.716 109.437 336.822 110.797C336.929 112.157 338.338 115.206 340.809 120.588C342.74 124.727 346.263 131.585 346.263 131.585L349.651 124.63L345.626 113.16L355.8 104.961L358.203 92.845Z" fill="#E6E6E6"/>
<path d="M354.703 228.744L348.139 227.818L347.811 215.866L354.375 216.792L354.703 228.744Z" fill="#E39E8C"/>
<path d="M379.281 241.246L372.708 240.088V228.84L379.281 229.998V241.246Z" fill="#E39E8C"/>
<path d="M372.706 236.847V235.882C372.079 236.046 370.621 241.362 368.015 243.281C365.94 244.805 363.112 246.484 362.388 248.461C361.664 250.439 366.326 252.561 368.266 252.561C370.515 252.561 374.415 251.664 375.39 250.362C376.365 249.059 376.828 246.985 377.629 246.05C378.43 245.114 380.255 244.236 380.689 243.069C380.812 241.885 380.684 240.689 380.313 239.558C380.004 238.342 379.676 237.001 379.28 237.04V237.763C378.288 238.345 377.113 238.534 375.988 238.294C375.033 238.178 372.697 237.58 372.706 236.847Z" fill="#263238"/>
<path d="M348.073 225.783C347.735 225.783 347.455 226.159 346.702 226.844C345.561 227.785 344.25 228.499 342.841 228.947C340.379 229.738 335.601 230.789 333.439 231.387C332.088 231.754 332.146 233.394 333.545 234.571C334.945 235.748 338.314 237.011 342.368 236.818C344.578 236.712 347.455 235.188 349.269 235.613C351.084 236.037 354.492 236.577 355.833 235.931C357.175 235.285 356.644 233.172 356.268 231.407C355.853 229.477 355.302 226.584 354.646 226.584V227.172C353.855 228.223 349.82 228.002 348.092 226.815L348.073 225.783Z" fill="#263238"/>
<path d="M376.471 136.389C381.606 147.859 376.538 186.801 376.538 186.801C376.722 188.567 378.787 192.29 379.695 200.055C380.776 209.239 379.849 232.168 379.849 232.168C379.849 232.168 375.554 233.316 372.059 231.127C372.059 231.127 365.891 195.753 364.559 186.589C363.391 178.592 361.094 161.045 361.094 161.045L356.268 185.287C357.118 187.902 357.763 190.578 358.198 193.293C358.826 198.657 355.051 222.512 355.051 222.512C352.566 223.087 349.959 222.801 347.657 221.702C347.657 221.702 345.418 188.769 344.762 182.325C343.719 171.502 346.808 138.762 347.889 131.99L376.471 136.389Z" fill="#407BFF"/>
<path d="M369.607 95.0441C371.258 95.5264 375.09 96.8769 375.09 96.8769C377.638 98.2564 377.358 99.7709 378.063 102.327C378.922 105.501 378.362 110.787 377.329 113.575L372.416 126.945C374.25 131.71 376.017 133.321 376.905 136.852C368.864 141.395 351.576 137.99 347.86 132.318C347.705 131.218 349.124 119.228 349.713 113.893C347.203 108.906 346.248 105.482 347.56 102.231C349.81 96.6647 355.968 92.1791 358.893 92.9315L369.607 95.0441Z" fill="#F0F0F0"/>
<path d="M364.59 89.044L367.023 89.4684C374.088 90.7128 379.812 86.0054 379.812 78.9442C379.812 71.854 374.021 65.0822 366.955 63.8282L364.667 63.4327C357.563 62.1786 351.81 66.915 351.81 74.0438C351.81 81.0664 357.534 87.7996 364.59 89.044Z" fill="#263238"/>
<path d="M353.041 79.3418C349.066 75.004 348.795 68.7867 352.436 65.455C356.077 62.1234 362.25 62.939 366.225 67.2768C370.2 71.6146 370.47 77.8319 366.83 81.1636C363.189 84.4952 357.015 83.6796 353.041 79.3418Z" fill="#263238"/>
<path d="M386.367 98.7584C384.202 98.3273 382.247 97.1782 380.817 95.4974C379.387 93.8165 378.568 91.7025 378.491 89.4979V72.6262C380.655 73.0574 382.611 74.2065 384.041 75.8873C385.47 77.5681 386.29 79.6822 386.367 81.8868V98.7584Z" fill="#263238"/>
<path d="M356.005 66.5681C354.461 67.2048 352.549 70.745 352.742 78.9156C352.897 85.8321 355.136 87.935 356.256 88.6199C357.376 89.3048 359.547 89.3916 361.652 89.4109V93.5492L358.196 103.331L370.272 96.1634V86.1697C370.667 86.7635 371.265 87.1936 371.954 87.3799C372.643 87.5662 373.376 87.4961 374.017 87.1826C376.343 86.0539 376.43 82.2436 375.079 80.6423C373.727 79.041 370.822 78.9541 370.252 80.7484C370.252 80.7484 368.322 80.1696 363.92 76.7548C357.897 71.9605 356.237 69.819 356.005 66.5681Z" fill="#E3A392"/>
<path d="M361.208 78.713C361.204 78.9614 361.284 79.2038 361.434 79.4014C361.585 79.599 361.797 79.7405 362.038 79.8031C362.145 79.8292 362.257 79.8308 362.365 79.8078C362.473 79.7847 362.574 79.7376 362.661 79.6699C362.749 79.6022 362.819 79.5156 362.869 79.4168C362.918 79.3179 362.944 79.2093 362.945 79.0989C362.951 78.8527 362.872 78.6118 362.723 78.4156C362.574 78.2195 362.363 78.0795 362.125 78.0185C362.017 77.9888 361.905 77.9843 361.795 78.0052C361.686 78.0262 361.583 78.072 361.494 78.1392C361.406 78.2064 361.333 78.2931 361.284 78.3926C361.234 78.4922 361.208 78.6018 361.208 78.713Z" fill="#263238"/>
<path d="M360.208 84.3464L358.2 84.6264C358.27 84.9162 358.44 85.172 358.681 85.3487C358.921 85.5253 359.216 85.6113 359.513 85.5917C359.644 85.561 359.767 85.5034 359.874 85.4226C359.981 85.3418 360.07 85.2395 360.135 85.1224C360.201 85.0052 360.241 84.8757 360.254 84.7421C360.266 84.6085 360.251 84.4737 360.208 84.3464Z" fill="#E39E8C"/>
<path d="M354.103 74.7588L355.859 73.8515C355.728 73.595 355.506 73.3965 355.237 73.2947C354.967 73.193 354.67 73.1953 354.402 73.3013C354.283 73.3746 354.181 73.4713 354.101 73.5855C354.022 73.6998 353.966 73.8291 353.938 73.9655C353.91 74.102 353.91 74.2428 353.938 74.3792C353.967 74.5156 354.023 74.6447 354.103 74.7588Z" fill="#263238"/>
<path d="M354.506 76.8705C354.499 77.1171 354.576 77.3588 354.726 77.5554C354.875 77.752 355.087 77.8915 355.327 77.9509C355.433 77.9788 355.545 77.982 355.653 77.9603C355.761 77.9385 355.863 77.8924 355.95 77.8254C356.038 77.7584 356.109 77.6723 356.158 77.5737C356.207 77.4751 356.233 77.3665 356.234 77.2564C356.24 77.0089 356.162 76.7667 356.013 76.5688C355.864 76.371 355.653 76.2292 355.414 76.1663C355.306 76.1382 355.194 76.1351 355.085 76.1574C354.976 76.1797 354.874 76.2267 354.786 76.2948C354.698 76.3629 354.628 76.4502 354.579 76.55C354.53 76.6499 354.506 76.7595 354.506 76.8705Z" fill="#263238"/>
<path d="M358.75 77.1211L358.605 82.3109L355.864 80.9797L358.75 77.1211Z" fill="#E39E8C"/>
<path d="M361.65 89.4108C363.87 89.5169 368.407 89.0056 369.141 87.3271C368.864 88.1686 368.296 88.8837 367.538 89.3433C366.177 90.3079 361.65 90.7902 361.65 90.7902V89.4108Z" fill="#E39E8C"/>
<path opacity="0.1" d="M361.094 161.045L358.594 148.437C358.594 148.437 353.352 146.634 350.572 144.164C352.145 146.344 354.17 148.161 356.509 149.489L359.405 161.47L358.69 173.248L361.094 161.045Z" fill="black"/>
<path d="M370.266 82.5715V78.6164L368.75 78.3463V80.7387C368.762 81.1694 368.917 81.5839 369.192 81.9161C369.466 82.2483 369.844 82.479 370.266 82.5715Z" fill="#263238"/>
<path d="M378.768 73.2724L380.148 70.5714C379.995 70.4521 379.817 70.3667 379.628 70.3209C379.439 70.275 379.242 70.2696 379.05 70.3052C378.859 70.3407 378.677 70.4163 378.517 70.527C378.357 70.6377 378.222 70.7811 378.121 70.9476L378.035 71.1212C377.878 71.508 377.865 71.9384 378 72.3334C378.135 72.7285 378.408 73.0618 378.768 73.2724Z" fill="#263238"/>
<path d="M358.2 103.331L370.275 93.9255V92.4303C370.275 92.4303 372.013 93.0284 372.438 96.4046C371.164 99.0111 368.907 101.006 366.163 101.951L364.735 100.36L358.2 103.331Z" fill="#E0E0E0"/>
<path d="M361.647 91.2533C360.715 91.5137 359.872 92.0202 359.204 92.7196C358.239 93.7421 356.309 98.411 356.309 98.411L357.621 99.0862L358.201 103.311L361.656 93.5299L361.647 91.2533Z" fill="#E0E0E0"/>
<path d="M381.793 141.087C381.069 141.714 380.529 142.466 379.158 143.807C378.553 144.491 377.83 145.063 377.025 145.495C375.961 145.976 374.827 146.282 373.666 146.402C372.091 146.551 370.504 146.289 369.061 145.64C368.217 145.266 367.456 144.728 366.822 144.058C366.189 143.39 365.775 142.545 365.635 141.637C365.598 141.52 365.59 141.396 365.612 141.276C365.635 141.156 365.686 141.043 365.763 140.948C365.839 140.853 365.938 140.777 366.05 140.729C366.162 140.681 366.285 140.661 366.407 140.672C368.096 140.426 369.769 140.078 371.417 139.63C372.72 139.177 373.54 138.665 373.26 138.501C372.98 138.337 372.295 138.675 370.973 138.501C369.65 138.328 368.53 137.363 368.579 136.688C368.627 136.013 368.637 136.138 369.891 136.148C371.253 135.99 372.623 135.919 373.994 135.935C375.181 136.075 376.384 135.984 377.536 135.665C380.123 135.096 387.324 125.45 387.324 125.45L374.834 109.167C374.834 109.167 371.696 102.53 375.307 97.041C375.307 97.041 376.909 97.4655 380.036 100.784C383.164 104.102 395.365 125.064 396.234 126.25C397.102 127.437 396.803 129.067 395.346 130.572C393.888 132.077 381.793 141.087 381.793 141.087Z" fill="#E39E8C"/>
<path d="M375.098 96.8771C375.098 96.8771 370.533 103.07 374.625 109.543C378.718 116.016 386.604 125.373 386.604 125.373L379.761 134.209L383.622 139.746C383.622 139.746 395.736 131.218 396.73 130.177C397.724 129.135 397.85 128.537 396.73 125.797C395.61 123.058 381.44 97.0411 375.098 96.8771Z" fill="#E6E6E6"/>
</svg>
