<svg width="405" height="363" viewBox="0 0 405 363" fill="none" xmlns="http://www.w3.org/2000/svg">
<path d="M280.424 336.975H271.977V337.219H280.424V336.975Z" fill="#EBEBEB"/>
<path d="M126.844 324.895H104.312V325.136H126.844V324.895Z" fill="#EBEBEB"/>
<path d="M404.403 330.104H349.32V330.346H404.403V330.104Z" fill="#EBEBEB"/>
<path d="M55.0831 330.104H0V330.346H55.0831V330.104Z" fill="#EBEBEB"/>
<path d="M399.095 275.341H211.401C209.931 275.339 208.519 274.753 207.48 273.714C206.439 272.673 205.854 271.264 205.852 269.791V5.96152C205.868 4.49884 206.458 3.10103 207.497 2.07128C208.536 1.04133 209.939 0.462604 211.401 0.459961H399.095C400.555 0.465045 401.954 1.04539 402.991 2.07514C404.026 3.1051 404.613 4.50128 404.626 5.96152V269.791C404.626 271.26 404.044 272.669 403.007 273.71C401.97 274.749 400.563 275.337 399.095 275.341ZM211.401 0.654357C209.996 0.657001 208.646 1.21702 207.651 2.2118C206.657 3.20637 206.098 4.55476 206.096 5.96152V269.791C206.098 271.199 206.657 272.547 207.651 273.541C208.646 274.535 209.996 275.097 211.401 275.099H399.095C400.502 275.097 401.85 274.535 402.844 273.541C403.839 272.547 404.4 271.199 404.402 269.791V5.96152C404.4 4.55476 403.839 3.20637 402.844 2.2118C401.85 1.21702 400.502 0.657001 399.095 0.654357H211.401Z" fill="#EBEBEB"/>
<path d="M68.6016 176.742H326.687V36.55H68.6016V176.742Z" fill="#89A5EA"/>
<path d="M65.6719 176.742H323.757V36.55H65.6719V176.742Z" fill="#BACEFF"/>
<path d="M318.495 170.832V42.46H70.9375V170.832H318.495Z" fill="white"/>
<path d="M73.1536 170.843V42.47H70.9375V170.843H73.1536Z" fill="#89A5EA"/>
<path d="M67.8438 148.36H321.575V140.428H67.8438V148.36Z" fill="#BACEFF"/>
<path d="M67.8438 80.9609H321.575V73.0293H67.8438V80.9609Z" fill="#BACEFF"/>
<path d="M59.9416 26.7722H332.422C332.637 26.7749 332.843 26.8619 332.993 27.0148C333.144 27.1675 333.229 27.3737 333.229 27.5887C333.229 27.8026 333.144 28.0078 332.993 28.159C332.841 28.3105 332.635 28.3955 332.422 28.3955H59.9416C59.7267 28.3955 59.5205 28.3107 59.3676 28.1597C59.2149 28.0088 59.1276 27.8036 59.125 27.5887C59.1276 27.3729 59.2145 27.1667 59.367 27.0142C59.5197 26.8615 59.7259 26.7747 59.9416 26.7722Z" fill="#BACEFF"/>
<path d="M54.4766 27.5885C54.4766 28.3905 54.7147 29.1746 55.1604 29.8412C55.6062 30.5079 56.2398 31.0275 56.981 31.3339C57.7222 31.6406 58.5376 31.7203 59.3242 31.5631C60.1107 31.4059 60.8328 31.0188 61.3993 30.451C61.9659 29.8833 62.351 29.1602 62.5063 28.3732C62.6617 27.5863 62.58 26.771 62.2717 26.0306C61.9634 25.2901 61.4424 24.6576 60.7746 24.2135C60.1068 23.7694 59.3221 23.5333 58.5201 23.5352C57.9884 23.5352 57.4617 23.6401 56.9704 23.8439C56.4793 24.0478 56.0332 24.3463 55.6574 24.7229C55.2818 25.0995 54.9843 25.5463 54.7816 26.038C54.5791 26.5297 54.4754 27.0565 54.4766 27.5885Z" fill="#BACEFF"/>
<path opacity="0.5" d="M65.4766 57.0211H326.856V27.5889H65.4766V57.0211Z" fill="#A6BFFF"/>
<path d="M335.531 31.6416C337.77 31.6416 339.584 29.8269 339.584 27.5885C339.584 25.3498 337.77 23.5352 335.531 23.5352C333.292 23.5352 331.477 25.3498 331.477 27.5885C331.477 29.8269 333.292 31.6416 335.531 31.6416Z" fill="#BACEFF"/>
<path d="M246.078 318.692H262.661V207.846H246.078V318.692Z" fill="#E6E6E6"/>
<path d="M250.444 318.692H246.078V303.598H255.011L250.444 318.692Z" fill="#F0F0F0"/>
<path d="M380.742 318.692H397.323V207.846H380.742V318.692Z" fill="#BACEFF"/>
<path d="M246.086 309.43H384.547V207.846H246.086V309.43Z" fill="#DBE5FF"/>
<path d="M249.461 240.194H381.157V212.338H249.461V240.194Z" fill="#BACEFF"/>
<path d="M275.589 220.998H352.135C356.383 220.998 360.456 217.566 363.38 211.492H264.344C267.27 217.566 271.333 220.998 275.589 220.998Z" fill="white"/>
<path d="M380.187 318.692H384.542V303.598H375.609L380.187 318.692Z" fill="#F0F0F0"/>
<path d="M249.461 272.563H381.157V244.705H249.461V272.563Z" fill="#BACEFF"/>
<path d="M275.589 253.365H352.135C356.383 253.365 360.456 249.924 363.38 243.859H264.344C267.27 249.924 271.333 253.365 275.589 253.365Z" fill="white"/>
<path d="M249.461 304.93H381.157V277.071H249.461V304.93Z" fill="#BACEFF"/>
<path d="M275.589 285.722H352.135C356.383 285.722 360.456 282.281 363.38 276.215H264.344C267.27 282.281 271.333 285.722 275.589 285.722Z" fill="white"/>
<path d="M346.516 152.267C343.893 143.432 376.581 99.2254 390.927 100.547C405.273 101.869 380.05 155.494 372.305 160.238C363.565 165.594 349.375 161.881 346.516 152.267Z" fill="#BACEFF"/>
<path d="M372.403 160.966C375.563 155.036 352.292 120.405 339.89 119.763C327.488 119.122 343.418 159.616 349.533 163.766C356.442 168.48 368.952 167.41 372.403 160.966Z" fill="#BACEFF"/>
<path d="M360.475 142.537H360.426C359.837 142.528 359.265 142.733 358.814 143.114C358.364 143.494 358.068 144.025 357.978 144.608C355.284 162.88 354.956 181.423 357.006 199.779C357.073 200.363 357.352 200.904 357.787 201.298C358.224 201.693 358.789 201.916 359.377 201.926H359.426C359.77 201.932 360.111 201.863 360.426 201.727C360.742 201.589 361.024 201.388 361.254 201.131C361.486 200.877 361.659 200.576 361.764 200.249C361.87 199.921 361.905 199.576 361.866 199.234C359.912 181.283 360.235 163.158 362.828 145.288C362.877 144.949 362.852 144.604 362.757 144.275C362.661 143.946 362.496 143.641 362.273 143.381C362.051 143.121 361.775 142.911 361.465 142.766C361.154 142.62 360.819 142.542 360.475 142.537Z" fill="#BACEFF"/>
<path d="M358.699 207.836C367.292 207.836 374.534 202.782 376.292 195.93C376.724 194.1 377.34 192.318 378.131 190.612L378.267 190.332H339.133L339.269 190.612C340.06 192.318 340.676 194.1 341.107 195.93C342.866 202.782 350.118 207.836 358.699 207.836Z" fill="#BACEFF"/>
<path d="M339.05 192.052H378.377C379.475 192.052 380.429 190.982 380.7 189.445C381.09 187.238 379.943 185.101 378.377 185.101H339.05C337.484 185.101 336.337 187.238 336.736 189.445C337.008 190.972 337.962 192.052 339.05 192.052Z" fill="#799FFF"/>
<path d="M217.915 248.865H169.5V318.692H217.915V248.865Z" fill="#F0F0F0"/>
<path d="M38.1641 303.228H68.607V272.232H38.1641V303.228Z" fill="#FAFAFA"/>
<path d="M79.4922 303.228H109.935V272.232H79.4922V303.228Z" fill="#FAFAFA"/>
<path d="M220.587 246.453H169.5V257.971H220.587V246.453Z" fill="#F0F0F0"/>
<path d="M64.3281 226.849C64.3281 226.849 65.2515 246.453 100.584 246.453C135.916 246.453 136.839 226.849 136.839 226.849H64.3281Z" fill="#F0F0F0"/>
<path d="M64.3281 213.863C64.3281 213.863 65.2515 233.468 100.584 233.468C135.916 233.468 136.839 213.863 136.839 213.863H64.3281Z" fill="#F0F0F0"/>
<path d="M201.477 362.589C305.56 362.589 389.937 357.662 389.937 351.586C389.937 345.508 305.56 340.583 201.477 340.583C97.3923 340.583 13.0156 345.508 13.0156 351.586C13.0156 357.662 97.3923 362.589 201.477 362.589Z" fill="#F5F5F5"/>
<path d="M144.456 330.415H49.0156V348.377H144.456V330.415Z" fill="#407BFF"/>
<path opacity="0.2" d="M144.456 330.415H49.0156V332.457H144.456V330.415Z" fill="black"/>
<path opacity="0.2" d="M59.7695 330.415H56.0078V348.377H59.7695V330.415Z" fill="black"/>
<path opacity="0.2" d="M68.4021 330.415H64.6406V348.377H68.4021V330.415Z" fill="black"/>
<path opacity="0.2" d="M77.043 330.415H73.2812V348.377H77.043V330.415Z" fill="black"/>
<path opacity="0.2" d="M85.6756 330.415H81.9141V348.377H85.6756V330.415Z" fill="black"/>
<path opacity="0.2" d="M94.3008 330.415H90.5391V348.377H94.3008V330.415Z" fill="black"/>
<path opacity="0.2" d="M102.941 330.415H99.1797V348.377H102.941V330.415Z" fill="black"/>
<path opacity="0.2" d="M111.574 330.415H107.812V348.377H111.574V330.415Z" fill="black"/>
<path opacity="0.2" d="M120.207 330.415H116.445V348.377H120.207V330.415Z" fill="black"/>
<path opacity="0.2" d="M128.847 330.415H125.086V348.377H128.847V330.415Z" fill="black"/>
<path opacity="0.2" d="M137.48 330.415H133.719V348.377H137.48V330.415Z" fill="black"/>
<path d="M140.581 312.454H45.1406V330.415H140.581V312.454Z" fill="#407BFF"/>
<path opacity="0.2" d="M140.581 312.454H45.1406V314.495H140.581V312.454Z" fill="black"/>
<path opacity="0.2" d="M55.8789 312.454H52.1172V330.415H55.8789V312.454Z" fill="black"/>
<path opacity="0.2" d="M64.5195 312.454H60.7578V330.415H64.5195V312.454Z" fill="black"/>
<path opacity="0.2" d="M73.1521 312.454H69.3906V330.415H73.1521V312.454Z" fill="black"/>
<path opacity="0.2" d="M81.785 312.454H78.0234V330.415H81.785V312.454Z" fill="black"/>
<path opacity="0.2" d="M90.4258 312.454H86.6641V330.415H90.4258V312.454Z" fill="black"/>
<path opacity="0.2" d="M99.0586 312.454H95.2969V330.415H99.0586V312.454Z" fill="black"/>
<path opacity="0.2" d="M107.691 312.454H103.93V330.415H107.691V312.454Z" fill="black"/>
<path opacity="0.2" d="M116.332 312.454H112.57V330.415H116.332V312.454Z" fill="black"/>
<path opacity="0.2" d="M124.957 312.454H121.195V330.415H124.957V312.454Z" fill="black"/>
<path opacity="0.2" d="M133.59 312.454H129.828V330.415H133.59V312.454Z" fill="black"/>
<path d="M137.831 294.49H42.3906V312.454H137.831V294.49Z" fill="#407BFF"/>
<path opacity="0.2" d="M137.831 294.49H42.3906V296.532H137.831V294.49Z" fill="black"/>
<path opacity="0.2" d="M53.1367 294.49H49.375V312.454H53.1367V294.49Z" fill="black"/>
<path opacity="0.2" d="M56.7695 292.49H53.0078V310.454H56.7695V292.49Z" fill="black"/>
<path opacity="0.2" d="M70.41 294.49H66.6484V312.454H70.41V294.49Z" fill="black"/>
<path opacity="0.2" d="M79.0428 294.49H75.2812V312.454H79.0428V294.49Z" fill="black"/>
<path opacity="0.2" d="M87.6758 294.49H83.9141V312.454H87.6758V294.49Z" fill="black"/>
<path opacity="0.2" d="M96.3164 294.49H92.5547V312.454H96.3164V294.49Z" fill="black"/>
<path opacity="0.2" d="M104.949 294.49H101.188V312.454H104.949V294.49Z" fill="black"/>
<path opacity="0.2" d="M113.582 294.49H109.82V312.454H113.582V294.49Z" fill="black"/>
<path opacity="0.2" d="M122.222 294.49H118.461V312.454H122.222V294.49Z" fill="black"/>
<path opacity="0.2" d="M130.848 294.49H127.086V312.454H130.848V294.49Z" fill="black"/>
<path d="M142.152 276.539H46.7109V294.5H142.152V276.539Z" fill="#407BFF"/>
<path opacity="0.2" d="M142.152 276.539H46.7109V278.578H142.152V276.539Z" fill="black"/>
<path opacity="0.2" d="M57.457 276.539H53.6953V294.5H57.457V276.539Z" fill="black"/>
<path opacity="0.2" d="M66.0977 276.539H62.3359V294.5H66.0977V276.539Z" fill="black"/>
<path opacity="0.2" d="M74.7303 276.539H70.9688V294.5H74.7303V276.539Z" fill="black"/>
<path opacity="0.2" d="M83.3555 276.539H79.5938V294.5H83.3555V276.539Z" fill="black"/>
<path opacity="0.2" d="M92.0037 276.539H88.2422V294.5H92.0037V276.539Z" fill="black"/>
<path opacity="0.2" d="M100.629 276.539H96.8672V294.5H100.629V276.539Z" fill="black"/>
<path opacity="0.2" d="M109.262 276.539H105.5V294.5H109.262V276.539Z" fill="black"/>
<path opacity="0.2" d="M117.902 276.539H114.141V294.5H117.902V276.539Z" fill="black"/>
<path opacity="0.2" d="M126.535 276.539H122.773V294.5H126.535V276.539Z" fill="black"/>
<path opacity="0.2" d="M135.168 276.539H131.406V294.5H135.168V276.539Z" fill="black"/>
<path d="M42.5234 276.528H137.964V258.565H42.5234V276.528Z" fill="#407BFF"/>
<path opacity="0.2" d="M42.5234 260.606H137.964V258.565H42.5234V260.606Z" fill="black"/>
<path opacity="0.2" d="M127.219 276.528H130.98V258.565H127.219V276.528Z" fill="black"/>
<path opacity="0.2" d="M118.578 276.528H122.34V258.565H118.578V276.528Z" fill="black"/>
<path opacity="0.2" d="M109.945 276.528H113.707V258.565H109.945V276.528Z" fill="black"/>
<path opacity="0.2" d="M101.312 276.528H105.074V258.565H101.312V276.528Z" fill="black"/>
<path opacity="0.2" d="M92.6719 276.528H96.4334V258.565H92.6719V276.528Z" fill="black"/>
<path opacity="0.2" d="M84.0391 276.528H87.8008V258.565H84.0391V276.528Z" fill="black"/>
<path opacity="0.2" d="M75.4062 276.528H79.168V258.565H75.4062V276.528Z" fill="black"/>
<path opacity="0.2" d="M66.7656 276.528H70.5273V258.565H66.7656V276.528Z" fill="black"/>
<path opacity="0.2" d="M58.1328 276.528H61.8945V258.565H58.1328V276.528Z" fill="black"/>
<path opacity="0.2" d="M49.5078 276.528H53.2695V258.565H49.5078V276.528Z" fill="black"/>
<path d="M46.4062 258.575H141.847V240.613H46.4062V258.575Z" fill="#407BFF"/>
<path opacity="0.2" d="M46.4062 242.653H141.847V240.611H46.4062V242.653Z" fill="black"/>
<path opacity="0.2" d="M131.094 258.575H134.855V240.613H131.094V258.575Z" fill="black"/>
<path opacity="0.2" d="M122.469 258.575H126.23V240.613H122.469V258.575Z" fill="black"/>
<path opacity="0.2" d="M113.828 258.575H117.59V240.613H113.828V258.575Z" fill="black"/>
<path opacity="0.2" d="M105.188 258.575H108.949V240.613H105.188V258.575Z" fill="black"/>
<path opacity="0.2" d="M96.5703 258.575H100.332V240.613H96.5703V258.575Z" fill="black"/>
<path opacity="0.2" d="M87.9297 258.575H91.6914V240.613H87.9297V258.575Z" fill="black"/>
<path opacity="0.2" d="M79.2891 258.575H83.0508V240.613H79.2891V258.575Z" fill="black"/>
<path opacity="0.2" d="M70.6641 258.575H74.4256V240.613H70.6641V258.575Z" fill="black"/>
<path opacity="0.2" d="M62.0234 258.575H65.785V240.613H62.0234V258.575Z" fill="black"/>
<path opacity="0.2" d="M53.3828 258.575H57.1443V240.613H53.3828V258.575Z" fill="black"/>
<path d="M49.1562 240.613H144.597V222.649H49.1562V240.613Z" fill="#407BFF"/>
<path opacity="0.2" d="M49.1562 224.691H144.597V222.649H49.1562V224.691Z" fill="black"/>
<path opacity="0.2" d="M133.844 240.613H137.605V222.649H133.844V240.613Z" fill="black"/>
<path opacity="0.2" d="M125.203 240.613H128.965V222.649H125.203V240.613Z" fill="black"/>
<path opacity="0.2" d="M116.57 240.613H120.332V222.649H116.57V240.613Z" fill="black"/>
<path opacity="0.2" d="M107.938 240.613H111.699V222.649H107.938V240.613Z" fill="black"/>
<path opacity="0.2" d="M99.2969 240.613H103.058V222.649H99.2969V240.613Z" fill="black"/>
<path opacity="0.2" d="M90.6719 240.613H94.4334V222.649H90.6719V240.613Z" fill="black"/>
<path opacity="0.2" d="M82.0391 240.613H85.8008V222.649H82.0391V240.613Z" fill="black"/>
<path opacity="0.2" d="M73.3984 240.613H77.1602V222.649H73.3984V240.613Z" fill="black"/>
<path opacity="0.2" d="M64.7656 240.613H68.5271V222.649H64.7656V240.613Z" fill="black"/>
<path opacity="0.2" d="M56.1328 240.613H59.8943V222.649H56.1328V240.613Z" fill="black"/>
<path d="M44.8281 222.649H140.269V204.688H44.8281V222.649Z" fill="#407BFF"/>
<path opacity="0.2" d="M44.8281 206.729H140.269V204.688H44.8281V206.729Z" fill="black"/>
<path opacity="0.2" d="M129.516 222.649H133.277V204.688H129.516V222.649Z" fill="black"/>
<path opacity="0.2" d="M120.898 222.649H124.66V204.688H120.898V222.649Z" fill="black"/>
<path opacity="0.2" d="M112.258 222.649H116.019V204.688H112.258V222.649Z" fill="black"/>
<path opacity="0.2" d="M103.617 222.649H107.379V204.688H103.617V222.649Z" fill="black"/>
<path opacity="0.2" d="M94.9922 222.649H98.7539V204.688H94.9922V222.649Z" fill="black"/>
<path opacity="0.2" d="M86.3516 222.649H90.1133V204.688H86.3516V222.649Z" fill="black"/>
<path opacity="0.2" d="M77.7109 222.649H81.4727V204.688H77.7109V222.649Z" fill="black"/>
<path opacity="0.2" d="M69.0938 222.649H72.8553V204.688H69.0938V222.649Z" fill="black"/>
<path opacity="0.2" d="M60.4453 222.649H64.2068V204.688H60.4453V222.649Z" fill="black"/>
<path opacity="0.2" d="M51.8047 222.649H55.5662V204.688H51.8047V222.649Z" fill="black"/>
<path d="M347.915 133.624L309.851 140.146C309.119 140.269 308.44 140.607 307.901 141.118C307.36 141.628 306.986 142.287 306.821 143.012C306.658 143.736 306.713 144.493 306.982 145.185C307.248 145.878 307.716 146.475 308.326 146.901L315.343 151.868L272.313 212.695C272.032 213.092 271.676 213.428 271.268 213.686C270.857 213.944 270.399 214.119 269.924 214.2C269.446 214.282 268.956 214.267 268.484 214.16C268.012 214.052 267.565 213.851 267.17 213.57L203.923 168.858C203.122 168.295 202.13 168.071 201.164 168.238C200.198 168.402 199.338 168.945 198.77 169.742L71.2734 349.953H117.093L207.714 221.852C207.992 221.458 208.348 221.12 208.759 220.862C209.167 220.604 209.625 220.429 210.103 220.347C210.581 220.266 211.069 220.28 211.541 220.388C212.014 220.496 212.46 220.697 212.854 220.978L276.103 265.69C276.5 265.97 276.947 266.17 277.421 266.278C277.895 266.385 278.383 266.398 278.863 266.314C279.341 266.233 279.798 266.058 280.209 265.798C280.62 265.539 280.976 265.202 281.254 264.805L345.884 173.437L352.91 178.403C353.516 178.822 354.231 179.052 354.967 179.066C355.702 179.08 356.425 178.877 357.048 178.484C357.668 178.09 358.16 177.523 358.461 176.851C358.764 176.18 358.862 175.436 358.742 174.71L352.21 136.647C352.035 135.68 351.486 134.82 350.683 134.255C349.878 133.689 348.883 133.462 347.915 133.624Z" fill="#407BFF"/>
<path opacity="0.2" d="M347.915 133.624L309.851 140.146C309.119 140.269 308.44 140.607 307.901 141.118C307.36 141.628 306.986 142.287 306.821 143.012C306.658 143.736 306.713 144.493 306.982 145.185C307.248 145.878 307.716 146.475 308.326 146.901L315.343 151.868L272.313 212.695C272.032 213.092 271.676 213.428 271.268 213.686C270.857 213.944 270.399 214.119 269.924 214.2C269.446 214.282 268.956 214.267 268.484 214.16C268.012 214.052 267.565 213.851 267.17 213.57L203.923 168.858C203.122 168.295 202.13 168.071 201.164 168.238C200.198 168.402 199.338 168.945 198.77 169.742L71.2734 349.953H117.093L207.714 221.852C207.992 221.458 208.348 221.12 208.759 220.862C209.167 220.604 209.625 220.429 210.103 220.347C210.581 220.266 211.069 220.28 211.541 220.388C212.014 220.496 212.46 220.697 212.854 220.978L276.103 265.69C276.5 265.97 276.947 266.17 277.421 266.278C277.895 266.385 278.383 266.398 278.863 266.314C279.341 266.233 279.798 266.058 280.209 265.798C280.62 265.539 280.976 265.202 281.254 264.805L345.884 173.437L352.91 178.403C353.516 178.822 354.231 179.052 354.967 179.066C355.702 179.08 356.425 178.877 357.048 178.484C357.668 178.09 358.16 177.523 358.461 176.851C358.764 176.18 358.862 175.436 358.742 174.71L352.21 136.647C352.035 135.68 351.486 134.82 350.683 134.255C349.878 133.689 348.883 133.462 347.915 133.624Z" fill="black"/>
<path d="M114.227 344.656H81.9757C81.9313 344.654 81.888 344.64 81.8506 344.615C81.813 344.593 81.7825 344.558 81.762 344.52C81.7388 344.481 81.7266 344.438 81.7266 344.393C81.7266 344.349 81.7388 344.304 81.762 344.265L199.879 177.277C200.176 176.852 200.552 176.49 200.99 176.209C201.427 175.93 201.913 175.741 202.423 175.65C202.934 175.56 203.456 175.57 203.962 175.684C204.469 175.796 204.947 176.008 205.372 176.305L268.609 221.017C268.981 221.287 269.404 221.478 269.849 221.584C270.296 221.688 270.76 221.702 271.214 221.625C271.665 221.547 272.098 221.381 272.486 221.135C272.873 220.888 273.208 220.567 273.469 220.191L322.76 150.518L314.984 144.987C314.941 144.961 314.911 144.923 314.893 144.877C314.874 144.831 314.872 144.781 314.886 144.734C314.897 144.688 314.921 144.645 314.956 144.613C314.99 144.58 315.035 144.558 315.082 144.549L347.158 139.058C347.188 139.052 347.219 139.053 347.249 139.06C347.28 139.066 347.308 139.079 347.335 139.097C347.359 139.116 347.381 139.139 347.398 139.165C347.414 139.192 347.424 139.221 347.428 139.252L352.92 171.329C352.929 171.375 352.923 171.424 352.902 171.469C352.884 171.514 352.853 171.552 352.815 171.581C352.774 171.607 352.725 171.621 352.679 171.621C352.63 171.621 352.583 171.607 352.542 171.581L344.766 166.05L280.273 257.225C279.978 257.648 279.602 258.009 279.164 258.288C278.729 258.565 278.243 258.756 277.733 258.845C277.224 258.935 276.704 258.925 276.198 258.813C275.693 258.701 275.215 258.491 274.792 258.197L211.543 213.485C211.173 213.222 210.754 213.035 210.313 212.936C209.872 212.836 209.414 212.824 208.967 212.899C208.52 212.976 208.092 213.141 207.708 213.383C207.326 213.625 206.994 213.94 206.732 214.31L114.431 344.548C114.408 344.581 114.377 344.607 114.342 344.625C114.306 344.646 114.267 344.654 114.227 344.656ZM82.4423 344.17H114.1L206.187 213.989C206.787 213.133 207.702 212.549 208.733 212.366C209.762 212.185 210.821 212.419 211.68 213.017L274.927 257.729C275.297 257.991 275.716 258.178 276.157 258.278C276.6 258.378 277.058 258.39 277.505 258.312C277.95 258.237 278.379 258.073 278.762 257.831C279.146 257.589 279.478 257.273 279.74 256.903L344.368 165.535C344.384 165.507 344.406 165.484 344.433 165.468C344.461 165.452 344.492 165.44 344.522 165.438C344.551 165.423 344.583 165.417 344.616 165.417C344.646 165.417 344.679 165.423 344.707 165.438L352.241 170.763L346.885 139.651L315.673 144.997L323.207 150.323C323.256 150.362 323.291 150.416 323.303 150.479C323.327 150.538 323.327 150.604 323.303 150.662L273.877 220.541C273.58 220.964 273.202 221.324 272.765 221.598C272.328 221.875 271.842 222.06 271.331 222.145C270.311 222.314 269.263 222.076 268.415 221.484L205.176 176.772C204.804 176.502 204.383 176.309 203.936 176.205C203.489 176.101 203.025 176.087 202.574 176.162C202.12 176.239 201.687 176.406 201.301 176.652C200.912 176.898 200.579 177.22 200.316 177.598L82.4423 344.17Z" fill="white"/>
<path d="M296.785 288.939H292.789V348.377H296.785V288.939Z" fill="#263238"/>
<path d="M331.738 256.553H327.742V348.377H331.738V256.553Z" fill="#263238"/>
<path d="M367.332 278.578H363.336V348.377H367.332V278.578Z" fill="#263238"/>
<path d="M292.794 288.939H264.781V348.377H292.794V288.939Z" fill="#407BFF"/>
<path opacity="0.2" d="M264.781 288.939V324.185L278.778 288.939H264.781Z" fill="white"/>
<path d="M327.74 256.553H299.727V348.377H327.74V256.553Z" fill="#407BFF"/>
<path opacity="0.2" d="M299.727 256.553V291.798L313.733 256.553H299.727Z" fill="white"/>
<path d="M363.341 278.578H335.328V348.377H363.341V278.578Z" fill="#407BFF"/>
<path opacity="0.2" d="M335.328 278.578V309.944L349.335 278.578H335.328Z" fill="white"/>
<path d="M199.607 343.519L192.094 342.11L193.367 324.331L200.88 325.751L199.607 343.519Z" fill="#FFC3BD"/>
<path d="M250.178 343.314H242.528L240.633 325.614H248.273L250.178 343.314Z" fill="#FFC3BD"/>
<path d="M241.9 342.429H251.211C251.363 342.429 251.51 342.482 251.63 342.578C251.748 342.673 251.829 342.805 251.862 342.954L253.379 349.758C253.413 349.923 253.411 350.095 253.37 350.258C253.332 350.423 253.255 350.577 253.147 350.707C253.039 350.838 252.905 350.943 252.75 351.015C252.598 351.086 252.431 351.12 252.26 351.118C249.257 351.069 247.071 350.886 243.299 350.886C240.976 350.886 233.967 351.128 230.76 351.128C227.553 351.128 227.135 347.96 228.446 347.667C234.337 346.384 238.77 344.607 240.655 342.915C240.995 342.604 241.438 342.431 241.9 342.429Z" fill="#263238"/>
<path d="M192.255 340.457L200.486 341.876C200.637 341.901 200.771 341.978 200.872 342.09C200.972 342.203 201.033 342.346 201.041 342.498L201.371 349.447C201.381 349.615 201.35 349.782 201.285 349.937C201.22 350.093 201.12 350.232 200.994 350.341C200.868 350.453 200.718 350.535 200.557 350.579C200.395 350.626 200.226 350.634 200.059 350.604C197.143 350.04 192.838 349.127 189.115 348.485C184.751 347.737 182.622 347.192 177.51 346.307C174.417 345.772 175.088 342.419 176.44 342.332C182.553 342.059 184.71 342.992 190.339 340.729C190.939 340.461 191.604 340.367 192.255 340.457Z" fill="#263238"/>
<path d="M218.43 109.412C218.168 110.19 217.964 110.754 217.72 111.356C217.478 111.959 217.234 112.6 216.982 113.213C216.478 114.447 215.943 115.653 215.378 116.858C214.253 119.277 212.991 121.629 211.598 123.905C208.749 128.772 205.036 133.081 200.643 136.619C199.419 137.551 198.12 138.377 196.755 139.087C196.406 139.282 196.046 139.447 195.676 139.612C195.308 139.778 194.976 139.933 194.539 140.098C193.677 140.415 192.79 140.656 191.885 140.818C190.417 141.065 188.933 141.192 187.444 141.197C186.043 141.197 184.703 141.197 183.381 141.07C178.224 140.659 173.122 139.734 168.148 138.31L168.917 132.624C173.777 132.439 178.704 132.283 183.332 131.875C184.489 131.768 185.626 131.632 186.704 131.467C187.692 131.333 188.668 131.118 189.62 130.825C189.931 130.737 190.232 130.613 190.515 130.456C190.836 130.262 191.273 130.077 191.633 129.824C192.424 129.325 193.176 128.762 193.878 128.143C195.43 126.767 196.827 125.229 198.049 123.555C199.379 121.779 200.592 119.919 201.682 117.985C202.821 116.041 203.842 113.971 204.842 111.891C205.328 110.851 205.814 109.791 206.241 108.732L206.892 107.147L207.486 105.651L218.43 109.412Z" fill="#FFC3BD"/>
<path d="M214.748 100.45C228.696 100.45 213.367 130.582 213.367 130.582L195.57 123.38C195.57 123.38 200.43 112.902 203.627 106.904C204.664 104.873 206.264 103.183 208.237 102.038C210.209 100.893 212.468 100.342 214.748 100.45Z" fill="#407BFF"/>
<g opacity="0.3">
<path opacity="0.3" d="M214.748 100.45C228.696 100.45 213.367 130.582 213.367 130.582L195.57 123.38C195.57 123.38 200.43 112.902 203.627 106.904C204.664 104.873 206.264 103.183 208.237 102.038C210.209 100.893 212.468 100.342 214.748 100.45Z" fill="white"/>
</g>
<path opacity="0.2" d="M211.333 110.189C206.229 113.776 202.683 120.434 201.672 125.838L211.837 129.96C213.686 127.199 215.483 123.943 217.466 121.085C218.011 119.598 218.546 118.033 219.011 116.449L211.333 110.189Z" fill="black"/>
<path d="M173.292 133.352L167.177 129.901L162.492 138.649C165.199 139.107 167.968 139.038 170.648 138.445L173.292 133.352Z" fill="#FFC3BD"/>
<path d="M161.324 129.901L157.922 137.619L162.451 138.679L167.136 129.901H161.324Z" fill="#FFC3BD"/>
<path opacity="0.2" d="M193.369 324.339L192.719 333.496L200.232 334.905L200.883 325.751L193.369 324.339Z" fill="black"/>
<path opacity="0.2" d="M248.267 325.623H240.617L241.61 334.751H249.249L248.267 325.623Z" fill="black"/>
<path d="M252.778 103.784C250.535 112.034 248.912 120.439 247.918 128.93C247.188 134.849 246.761 140.497 246.488 145.629C245.848 157.643 246.118 166.798 245.76 169.93C239.782 169.521 217.261 167.986 204.936 167.091C199.385 123.613 209.989 101.218 209.989 101.218C213.202 100.614 216.448 100.209 219.709 100.003C220.401 100.003 221.108 99.9353 221.818 99.9255C227.617 99.9935 233.407 100.396 239.159 101.131C240.247 101.257 241.356 101.422 242.425 101.597C247.975 102.453 252.778 103.784 252.778 103.784Z" fill="#407BFF"/>
<g opacity="0.3">
<path opacity="0.3" d="M252.778 103.784C250.535 112.034 248.912 120.439 247.918 128.93C247.188 134.849 246.761 140.497 246.488 145.629C245.848 157.643 246.118 166.798 245.76 169.93C239.782 169.521 217.261 167.986 204.936 167.091C199.385 123.613 209.989 101.218 209.989 101.218C213.202 100.614 216.448 100.209 219.709 100.003C220.401 100.003 221.108 99.9353 221.818 99.9255C227.617 99.9935 233.407 100.396 239.159 101.131C240.247 101.257 241.356 101.422 242.425 101.597C247.975 102.453 252.778 103.784 252.778 103.784Z" fill="white"/>
</g>
<path opacity="0.2" d="M242.487 114.787C242.408 121.044 244.163 127.186 247.532 132.458C247.648 131.292 247.784 130.116 247.931 128.93C248.473 124.478 249.173 119.871 250.096 115.215L242.487 114.787Z" fill="black"/>
<path d="M238.886 81.4575C237.409 86.9686 235.602 97.1067 239.246 101.101C237.403 102.774 235.221 104.03 232.85 104.787C230.479 105.543 227.972 105.781 225.501 105.485C220.71 105.048 220.71 101.675 221.906 99.8962C228.232 98.8466 228.389 94.2198 227.61 89.807L238.886 81.4575Z" fill="#FFC3BD"/>
<path d="M222 107.303C222.112 108.16 222.313 109.004 222.602 109.82C222.685 110.08 222.848 110.307 223.068 110.467C223.287 110.628 223.554 110.715 223.826 110.714C224.625 110.703 225.422 110.771 226.207 110.918C226.374 110.957 226.545 110.962 226.712 110.931C226.878 110.901 227.039 110.837 227.179 110.743C228.151 110.131 229.396 109.227 229.074 108.1C228.696 106.778 226.421 105.582 226.421 105.582C226.421 105.582 222.514 106.544 222 107.303Z" fill="#263238"/>
<path d="M224.049 109.82C222.485 113.241 218.867 135.15 218.422 138.465C217.975 141.779 219.5 147.125 221.619 151.372C224.055 148.033 225.442 144.044 225.604 139.913C225.887 135.383 226.157 110.364 226.157 110.364L224.049 109.82Z" fill="#263238"/>
<path d="M226.391 105.582C227.838 106.789 229.034 108.269 229.909 109.937C232.369 109.743 243.226 104.98 241.68 101.306C240.33 100.926 239.143 100.149 238.764 100.547C238.25 101.335 233.642 104.115 226.391 105.582Z" fill="white"/>
<path d="M226.386 105.582C226.386 105.582 222.215 106.991 221.243 109.363C218.726 108.245 217.355 103.2 219.582 99.8858C220.973 99.7691 222.303 99.0791 222.557 99.5358C222.945 100.401 221.886 102.724 226.386 105.582Z" fill="white"/>
<path opacity="0.2" d="M234.287 84.8691L227.609 89.7973C227.811 90.8254 227.918 91.8698 227.931 92.9172C230.332 92.7423 233.763 90.3609 234.21 87.8921C234.422 86.8977 234.448 85.8731 234.287 84.8691Z" fill="black"/>
<path d="M222.693 63.7571C219.777 64.9042 218.697 76.189 224.637 75.0809C230.575 73.9729 228.563 61.4536 222.693 63.7571Z" fill="#263238"/>
<path d="M241.948 75.0414C239.567 82.2439 238.546 86.5791 233.861 89.3688C226.804 93.558 218.648 87.8232 218.823 80.0569C218.98 73.0683 222.837 62.4542 230.78 61.4336C232.527 61.1969 234.308 61.4114 235.949 62.0568C237.592 62.7023 239.042 63.7572 240.16 65.1211C241.281 66.4849 242.031 68.1123 242.344 69.8489C242.657 71.5853 242.521 73.3727 241.948 75.0414Z" fill="#FFC3BD"/>
<path d="M239.247 79.9993C236.223 80.0575 233.746 70.9014 239.841 68.3353C235.037 67.7812 220.293 68.5879 217.649 61.9978C215.006 55.4077 225.26 54.3871 228.75 56.8753C227.642 53.2498 232.152 47.9038 240.257 52.7638C248.365 57.6238 248.267 63.6211 247.509 65.3998C251.124 66.3718 251.834 74.4199 247.84 75.4988C250.183 78.7453 248.159 85.5688 241.841 84.1108C241.628 88.0862 237.195 86.3464 237.467 83.2944C237.74 80.2423 239.247 79.9993 239.247 79.9993Z" fill="#263238"/>
<path d="M225.779 81.7581C226.633 82.008 227.536 82.0503 228.411 81.8811C229.283 81.7121 230.104 81.3368 230.804 80.7861C230.841 80.7481 230.861 80.6976 230.861 80.6452C230.861 80.5927 230.841 80.5423 230.804 80.5042C230.767 80.4687 230.719 80.4487 230.668 80.4487C230.617 80.4487 230.568 80.4687 230.531 80.5042C229.887 81.0222 229.126 81.3803 228.315 81.549C227.506 81.718 226.666 81.693 225.867 81.4762C225.842 81.4689 225.818 81.4667 225.791 81.4697C225.767 81.4728 225.743 81.4809 225.72 81.4935C225.698 81.5063 225.68 81.5234 225.665 81.544C225.649 81.5643 225.639 81.5877 225.633 81.6123C225.641 81.6485 225.657 81.6814 225.684 81.7075C225.71 81.7335 225.743 81.7512 225.779 81.7581Z" fill="#263238"/>
<path d="M243.458 82.6819C242.061 83.9853 240.206 84.684 238.297 84.6259C235.769 84.5189 235.283 82.0694 236.633 80.0963C237.859 78.3174 240.639 76.2083 242.854 77.2873C243.338 77.5291 243.75 77.8876 244.059 78.3301C244.366 78.7725 244.56 79.285 244.621 79.821C244.68 80.357 244.604 80.8994 244.401 81.399C244.198 81.8986 243.874 82.3397 243.458 82.6819Z" fill="#FFC3BD"/>
<path d="M190.185 330.531L202.821 333.516C202.821 333.516 207.291 284.284 211.13 257.233C212.151 250.061 213.727 239.97 216.126 229.22C219.15 215.681 222.93 201.032 226.062 189.563C229.336 177.48 231.835 168.937 231.835 168.937L205.027 167.06C205.027 167.06 190.514 230.338 188.979 253.568C187.336 277.811 190.185 330.531 190.185 330.531Z" fill="#263238"/>
<path opacity="0.2" d="M216.057 229.222C219.081 215.681 222.861 201.034 225.991 189.563L223.201 183.566C216.582 191.468 214.794 215.933 216.057 229.222Z" fill="black"/>
<path d="M219.445 168.073C219.445 168.073 222.361 233.508 225.57 255.669C229.098 279.969 238.07 332.982 238.07 332.982H252.076C252.076 332.982 248.188 282.564 245.553 258.798C242.55 231.729 245.758 169.909 245.758 169.909L219.445 168.073Z" fill="#263238"/>
<path d="M236.402 333.283H252.887L253.617 328.355L235.422 328.034L236.402 333.283Z" fill="#407BFF"/>
<path d="M189.373 331.377L203.729 334.08L205.352 329.073L188.984 325.974L189.373 331.377Z" fill="#407BFF"/>
<path d="M230.88 74.4683C230.715 75.0611 230.278 75.4403 229.908 75.3624C229.54 75.2847 229.326 74.6918 229.481 74.0988C229.637 73.5059 230.082 73.1268 230.453 73.2047C230.823 73.2824 231.036 73.8753 230.88 74.4683Z" fill="#263238"/>
<path d="M224.137 72.6996C223.983 73.2926 223.535 73.6717 223.165 73.5842C222.797 73.4968 222.592 72.9233 222.748 72.3206C222.903 71.7179 223.35 71.3486 223.72 71.4263C224.088 71.5042 224.294 72.0971 224.137 72.6996Z" fill="#263238"/>
<path d="M225.626 73.2529C224.435 74.8874 223.024 76.3523 221.438 77.6074C222.224 78.8614 224.256 78.7545 224.256 78.7545L225.626 73.2529Z" fill="#E48C7A"/>
<path d="M232.97 72.5344C232.902 72.5301 232.837 72.507 232.783 72.4675C232.728 72.4279 232.685 72.3736 232.658 72.3109C232.494 71.8861 232.233 71.5059 231.896 71.2005C231.558 70.8948 231.154 70.6726 230.714 70.5516C230.668 70.5426 230.623 70.5245 230.584 70.4985C230.544 70.4723 230.511 70.4387 230.485 70.3995C230.458 70.3602 230.438 70.3161 230.43 70.2695C230.42 70.2232 230.42 70.1752 230.428 70.1286C230.438 70.082 230.454 70.0377 230.481 69.9981C230.507 69.9584 230.542 69.9244 230.58 69.8978C230.619 69.8712 230.664 69.8525 230.71 69.8429C230.757 69.8333 230.804 69.8329 230.851 69.8419C231.408 69.984 231.922 70.2577 232.353 70.64C232.783 71.0221 233.114 71.5018 233.319 72.0386C233.34 72.0826 233.35 72.13 233.35 72.1779C233.35 72.2257 233.342 72.2733 233.323 72.3176C233.305 72.3622 233.279 72.4024 233.244 72.4362C233.21 72.4702 233.169 72.497 233.126 72.5149C233.075 72.5334 233.022 72.5401 232.97 72.5344Z" fill="#263238"/>
<path d="M221.29 69.3173C221.214 69.3086 221.143 69.2783 221.084 69.2299C221.05 69.1963 221.023 69.1563 221.005 69.1121C220.985 69.0678 220.977 69.0202 220.977 68.9722C220.977 68.9243 220.985 68.8767 221.005 68.8325C221.023 68.7882 221.05 68.7482 221.084 68.7148C221.448 68.2695 221.914 67.9181 222.441 67.6897C222.969 67.4614 223.545 67.363 224.118 67.4026C224.212 67.4191 224.295 67.4703 224.352 67.546C224.411 67.6216 224.438 67.7162 224.429 67.8107C224.413 67.9055 224.364 67.9907 224.287 68.0488C224.212 68.1068 224.116 68.133 224.021 68.1218C223.565 68.1013 223.114 68.1871 222.697 68.3728C222.282 68.5584 221.916 68.8386 221.629 69.191C221.589 69.2396 221.536 69.2767 221.475 69.2988C221.416 69.321 221.351 69.3273 221.29 69.3173Z" fill="#263238"/>
<path d="M239.388 343.771C238.865 343.81 238.344 343.674 237.909 343.381C237.773 343.263 237.667 343.112 237.602 342.944C237.537 342.773 237.517 342.59 237.541 342.409C237.537 342.305 237.566 342.201 237.621 342.11C237.677 342.02 237.757 341.949 237.852 341.905C238.698 341.467 241.157 342.982 241.439 343.159C241.468 343.175 241.492 343.202 241.504 343.232C241.519 343.265 241.523 343.3 241.517 343.334C241.513 343.371 241.498 343.405 241.474 343.434C241.45 343.46 241.417 343.481 241.38 343.489C240.728 343.657 240.061 343.751 239.388 343.771ZM238.251 342.187C238.17 342.179 238.088 342.195 238.017 342.234C237.968 342.234 237.909 342.303 237.901 342.45C237.883 342.57 237.897 342.692 237.94 342.805C237.982 342.919 238.052 343.021 238.143 343.1C238.997 343.489 239.967 343.537 240.856 343.236C240.061 342.72 239.172 342.364 238.241 342.187H238.251Z" fill="#407BFF"/>
<path d="M241.328 343.499H241.24C240.453 343.072 238.916 341.39 239.083 340.583C239.109 340.448 239.18 340.328 239.284 340.243C239.39 340.156 239.52 340.109 239.656 340.107C239.795 340.087 239.937 340.097 240.071 340.137C240.205 340.178 240.327 340.247 240.433 340.339C241.318 341.059 241.503 343.255 241.513 343.362C241.513 343.395 241.505 343.428 241.49 343.456C241.474 343.484 241.452 343.509 241.425 343.527C241.391 343.529 241.356 343.519 241.328 343.499ZM239.782 340.398H239.705C239.471 340.398 239.451 340.534 239.443 340.583C239.345 341.079 240.317 342.352 241.104 342.944C241.053 342.073 240.738 341.239 240.199 340.554C240.083 340.453 239.935 340.398 239.782 340.398Z" fill="#407BFF"/>
<path d="M191.341 341.37C190.089 341.37 187.882 341.321 187.183 340.457C187.071 340.323 186.996 340.164 186.963 339.995C186.931 339.824 186.943 339.649 186.998 339.485C187.018 339.389 187.063 339.302 187.128 339.229C187.193 339.155 187.274 339.098 187.366 339.066C188.338 338.726 191.138 340.768 191.449 341.01C191.48 341.032 191.502 341.063 191.512 341.097C191.522 341.134 191.52 341.17 191.508 341.205C191.504 341.248 191.484 341.286 191.455 341.317C191.425 341.347 191.384 341.366 191.341 341.37ZM187.512 339.426C187.474 339.438 187.441 339.462 187.415 339.493C187.388 339.523 187.372 339.562 187.366 339.601C187.335 339.704 187.329 339.812 187.35 339.918C187.37 340.022 187.417 340.121 187.484 340.205C187.872 340.699 189.096 340.981 190.808 340.992C189.651 340.233 188.096 339.31 187.512 339.436V339.426Z" fill="#407BFF"/>
<path d="M191.334 341.37C191.292 341.386 191.243 341.386 191.198 341.37C190.362 340.807 188.847 338.863 189.128 338.035C189.197 337.842 189.382 337.618 189.876 337.647C190.063 337.655 190.246 337.701 190.413 337.783C190.58 337.866 190.728 337.982 190.848 338.122C191.676 339.094 191.529 341.146 191.519 341.234C191.517 341.264 191.507 341.295 191.491 341.319C191.473 341.345 191.45 341.366 191.422 341.38L191.334 341.37ZM189.644 337.996C189.508 337.996 189.478 338.094 189.47 338.122C189.303 338.618 190.305 340.115 191.131 340.825C191.198 339.955 190.991 339.084 190.537 338.338C190.454 338.236 190.35 338.153 190.234 338.092C190.116 338.033 189.988 337.996 189.858 337.988C189.787 337.974 189.714 337.978 189.644 337.996Z" fill="#407BFF"/>
<path d="M218.11 137.921L215.009 135.705L164.172 206.866L167.273 209.082C176.72 215.481 188.297 217.938 199.53 215.923C210.763 213.905 220.763 207.581 227.397 198.295C234.032 189.008 236.773 177.498 235.038 166.219C233.302 154.939 227.228 144.784 218.11 137.921Z" fill="#407BFF"/>
<path opacity="0.1" d="M218.11 137.921L215.009 135.705L164.172 206.866L167.273 209.082C176.72 215.481 188.297 217.938 199.53 215.923C210.763 213.905 220.763 207.581 227.397 198.295C234.032 189.008 236.773 177.498 235.038 166.219C233.302 154.939 227.228 144.784 218.11 137.921Z" fill="black"/>
<path d="M198.426 214.093C222.075 209.222 237.297 186.1 232.425 162.45C227.553 138.801 204.432 123.579 180.783 128.451C157.134 133.322 141.911 156.444 146.783 180.093C151.655 203.742 174.776 218.965 198.426 214.093Z" fill="#407BFF"/>
<path d="M179.271 182.342L186.131 172.748C183.748 169.753 182.473 166.889 182.313 164.154C182.189 161.36 183.045 158.609 184.732 156.378C186.337 154.001 188.805 152.344 191.614 151.762C194.517 151.209 197.521 151.769 200.032 153.326L201.683 151.014L205.008 153.385L203.347 155.699C205.38 157.405 206.794 159.736 207.371 162.328C207.804 164.872 207.395 167.491 206.204 169.783L199.866 166.399C200.329 165.527 200.559 164.551 200.535 163.563C200.51 162.576 200.234 161.613 199.729 160.763L193.334 169.724C196.289 173.34 197.867 176.412 198.068 178.94C198.214 181.642 197.379 184.306 195.715 186.443C193.958 189.06 191.278 190.917 188.212 191.643C184.978 192.308 181.615 191.777 178.744 190.146L177.093 192.46L173.768 190.087L175.342 187.881C173.077 185.935 171.549 183.269 171.017 180.329C170.612 177.128 171.253 173.883 172.845 171.076L179.289 174.71C178.681 176.006 178.378 177.421 178.404 178.852C178.416 180.066 178.713 181.262 179.271 182.342ZM196.455 158.284C195.394 157.938 194.249 157.938 193.19 158.284C192.163 158.611 191.274 159.262 190.652 160.14C190.078 160.954 189.771 161.926 189.777 162.92C189.788 164.081 190.125 165.216 190.749 166.196L196.455 158.284ZM182.361 185.042C183.569 185.628 184.946 185.768 186.249 185.441C187.555 185.122 188.7 184.333 189.466 183.226C190.168 182.277 190.514 181.11 190.438 179.93C190.251 178.507 189.643 177.173 188.688 176.101L182.361 185.042Z" fill="white"/>
<path opacity="0.1" d="M225.007 167.644C222.973 158.811 217.646 151.083 210.109 146.042C202.575 140.999 193.402 139.02 184.459 140.507C175.516 141.995 167.476 146.837 161.979 154.046C156.483 161.257 153.943 170.292 154.878 179.308C153.786 174.572 153.677 169.661 154.555 164.879C155.433 160.098 157.282 155.547 159.986 151.506C162.689 147.467 166.193 144.023 170.278 141.387C174.363 138.752 178.944 136.981 183.739 136.184C188.536 135.386 193.443 135.579 198.163 136.75C202.88 137.921 207.309 140.046 211.175 142.993C215.041 145.94 218.264 149.648 220.641 153.888C223.02 158.127 224.506 162.808 225.007 167.644Z" fill="black"/>
<path d="M253.764 107.964C254.736 109.199 255.542 110.307 256.359 111.512C257.174 112.717 257.972 113.874 258.75 115.079C260.296 117.49 261.764 119.939 263.124 122.496C264.485 125.052 265.748 127.667 266.894 130.369L267.73 132.42L268.489 134.529C268.743 135.219 268.956 135.958 269.18 136.677L269.499 137.766L269.587 138.038L269.733 138.631C269.827 139.034 269.892 139.443 269.928 139.855C270.02 141.225 269.839 142.6 269.394 143.899C269.058 144.876 268.617 145.815 268.082 146.698C267.193 148.145 266.164 149.499 265.009 150.742C262.96 152.922 260.733 154.927 258.352 156.739C253.825 160.195 249.004 163.25 243.947 165.867L240.797 161.064C244.87 157.595 248.943 153.941 252.626 150.237C254.417 148.464 256.08 146.567 257.604 144.56C258.25 143.722 258.809 142.819 259.275 141.868C259.417 141.556 259.529 141.23 259.604 140.896C259.604 140.682 259.604 140.643 259.604 140.896C259.59 140.966 259.59 141.039 259.604 141.109C259.602 141.139 259.602 141.168 259.604 141.197L259.517 140.983L259.177 140.128C258.944 139.545 258.74 138.971 258.468 138.397L257.691 136.677L256.863 134.957C255.708 132.672 254.474 130.398 253.132 128.153C251.79 125.907 250.401 123.672 248.951 121.475C248.243 120.367 247.503 119.269 246.765 118.19L244.549 115.031L253.764 107.964Z" fill="#FFC3BD"/>
<path d="M252.782 103.784C259.946 105.232 266.233 122.747 266.233 122.747L251.285 134.927C251.285 134.927 246.425 126.023 242.458 117.431C238.192 108.07 244.101 102.034 252.782 103.784Z" fill="#407BFF"/>
<g opacity="0.3">
<path opacity="0.3" d="M252.782 103.784C259.946 105.232 266.233 122.747 266.233 122.747L251.285 134.927C251.285 134.927 246.425 126.023 242.458 117.431C238.192 108.07 244.101 102.034 252.782 103.784Z" fill="white"/>
</g>
<path d="M242.561 160.393L234.844 161.239L239.848 169.618C239.848 169.618 246.264 167.441 245.487 163.923L242.561 160.393Z" fill="#FFC3BD"/>
<path d="M230.25 165.661L234.711 172.396L239.852 169.616L234.848 161.239L230.25 165.661Z" fill="#FFC3BD"/>
</svg>
