<svg width="100" height="34" viewBox="0 0 100 34" fill="none" xmlns="http://www.w3.org/2000/svg">
<path d="M4.0608 0H95.9025C98.1428 0 99.9633 1.8292 99.9633 4.08V29.92C99.9633 32.1708 98.1428 34 95.9025 34H4.0608C1.82059 34 0 32.1708 0 29.92V4.08C0 1.8292 1.82059 0 4.0608 0Z" fill="white"/>
<path d="M21.8797 16.2247C21.8594 13.7903 23.8627 12.6071 23.9507 12.5527C22.8137 10.8935 21.054 10.6623 20.4381 10.6419C18.9627 10.4855 17.5279 11.5327 16.7766 11.5327C16.0118 11.5327 14.8477 10.6623 13.6024 10.6827C11.9984 10.7099 10.4892 11.6415 9.67022 13.0967C7.97145 16.0547 9.23707 20.4067 10.8682 22.8003C11.6871 23.9699 12.6346 25.2823 13.8867 25.2347C15.1049 25.1871 15.5652 24.4527 17.0338 24.4527C18.4957 24.4527 18.9221 25.2347 20.1945 25.2075C21.5075 25.1871 22.3264 24.0311 23.1182 22.8479C24.059 21.5083 24.438 20.1823 24.4515 20.1143C24.4177 20.1007 21.9068 19.1351 21.8797 16.2247Z" fill="black"/>
<path d="M19.4758 9.07109C20.1323 8.24829 20.5789 7.12629 20.4571 5.98389C19.5096 6.02469 18.3184 6.64349 17.6349 7.45269C17.0325 8.16669 16.4911 9.32949 16.6264 10.4243C17.6958 10.5059 18.7922 9.88029 19.4758 9.07109Z" fill="black"/>
<path d="M39.5579 25.0648H37.8524L36.9184 22.1136H33.6698L32.7832 25.0648H31.125L34.3398 15.0212H36.3296L39.5579 25.0648ZM36.6409 20.876L35.7949 18.258C35.7069 17.986 35.5377 17.3604 35.2941 16.3676H35.2602C35.1587 16.796 35.0031 17.4284 34.7865 18.258L33.954 20.876H36.6409Z" fill="black"/>
<path d="M47.8229 21.3589C47.8229 22.5897 47.4912 23.5621 46.8212 24.2761C46.2256 24.9153 45.4811 25.2281 44.6013 25.2281C43.647 25.2281 42.9635 24.8881 42.5438 24.2013V28.0025H40.9398V20.2029C40.9398 19.4277 40.9195 18.6389 40.8789 17.8229H42.2867L42.3746 18.9721H42.4017C42.9364 18.1085 43.7485 17.6733 44.8314 17.6733C45.6842 17.6733 46.3881 18.0133 46.9566 18.6865C47.5386 19.3665 47.8229 20.2505 47.8229 21.3589ZM46.1918 21.4133C46.1918 20.7061 46.0361 20.1281 45.718 19.6725C45.3729 19.1965 44.9059 18.9585 44.3238 18.9585C43.9313 18.9585 43.5726 19.0945 43.2477 19.3529C42.9296 19.6181 42.713 19.9581 42.6183 20.3865C42.5709 20.5837 42.5438 20.7469 42.5438 20.8761V22.0865C42.5438 22.6101 42.7063 23.0589 43.0244 23.4193C43.3425 23.7797 43.7621 23.9633 44.2764 23.9633C44.8788 23.9633 45.3458 23.7253 45.6842 23.2629C46.0226 22.7937 46.1918 22.1817 46.1918 21.4133Z" fill="black"/>
<path d="M56.1041 21.3589C56.1041 22.5897 55.7725 23.5621 55.1025 24.2761C54.5069 24.9153 53.7624 25.2281 52.8826 25.2281C51.9283 25.2281 51.2447 24.8881 50.8251 24.2013V28.0025H49.2211V20.2029C49.2211 19.4277 49.2008 18.6389 49.1602 17.8229H50.5679L50.6559 18.9721H50.683C51.2176 18.1085 52.0298 17.6733 53.1127 17.6733C53.9654 17.6733 54.6693 18.0133 55.2378 18.6865C55.8199 19.3665 56.1041 20.2505 56.1041 21.3589ZM54.473 21.4133C54.473 20.7061 54.3174 20.1281 53.9993 19.6725C53.6541 19.1965 53.1871 18.9585 52.6051 18.9585C52.2125 18.9585 51.8538 19.0945 51.529 19.3529C51.2109 19.6181 51.0011 19.9581 50.8995 20.3865C50.8522 20.5837 50.8251 20.7469 50.8251 20.8761V22.0865C50.8251 22.6101 50.9875 23.0589 51.3056 23.4193C51.6237 23.7797 52.0433 23.9633 52.5577 23.9633C53.16 23.9633 53.6338 23.7253 53.9654 23.2629C54.3106 22.7937 54.473 22.1817 54.473 21.4133Z" fill="black"/>
<path d="M65.3763 22.2496C65.3763 23.1064 65.0785 23.8 64.4897 24.3372C63.84 24.922 62.9331 25.2144 61.769 25.2144C60.6929 25.2144 59.8333 25.0036 59.1836 24.5888L59.5558 23.2492C60.2597 23.664 61.0313 23.8748 61.8705 23.8748C62.4728 23.8748 62.9466 23.7388 63.2782 23.4668C63.6166 23.1948 63.7858 22.8276 63.7858 22.372C63.7858 21.964 63.6437 21.624 63.373 21.3452C63.0955 21.0664 62.6353 20.808 61.9923 20.57C60.2259 19.9104 59.3528 18.9516 59.3528 17.6936C59.3528 16.8708 59.6641 16.1976 60.28 15.6672C60.8959 15.1436 61.7148 14.8784 62.7368 14.8784C63.6437 14.8784 64.4017 15.0348 65.0041 15.3544L64.598 16.66C64.0295 16.354 63.3933 16.1976 62.6759 16.1976C62.1141 16.1976 61.6674 16.3404 61.3494 16.6124C61.0854 16.864 60.95 17.1632 60.95 17.5236C60.95 17.918 61.1057 18.2512 61.4103 18.5028C61.6742 18.7408 62.1615 18.9992 62.8654 19.278C63.7249 19.6248 64.3543 20.0328 64.7604 20.502C65.1733 20.9712 65.3763 21.556 65.3763 22.2496Z" fill="black"/>
<path d="M70.6825 19.0332H68.9161V22.5488C68.9161 23.4396 69.2274 23.8884 69.8501 23.8884C70.1343 23.8884 70.3712 23.8612 70.5607 23.8136L70.6081 25.0376C70.29 25.1532 69.8772 25.2144 69.3628 25.2144C68.7266 25.2144 68.2393 25.0172 67.8806 24.6296C67.5219 24.242 67.3459 23.5892 67.3459 22.678V19.0264H66.2969V17.8228H67.3459V16.4968L68.9161 16.0208V17.8228H70.6825V19.0332Z" fill="black"/>
<path d="M78.6293 21.3859C78.6293 22.5011 78.3112 23.4123 77.6818 24.1263C77.0186 24.8607 76.1387 25.2279 75.0423 25.2279C73.9865 25.2279 73.1405 24.8743 72.5111 24.1739C71.8816 23.4735 71.5703 22.5827 71.5703 21.5083C71.5703 20.3863 71.8952 19.4683 72.5381 18.7543C73.1879 18.0403 74.0609 17.6799 75.1574 17.6799C76.2132 17.6799 77.0659 18.0335 77.7089 18.7407C78.3248 19.4207 78.6293 20.3047 78.6293 21.3859ZM76.9712 21.4199C76.9712 20.7535 76.829 20.1891 76.5448 19.7131C76.2064 19.1351 75.7259 18.8495 75.1032 18.8495C74.4602 18.8495 73.9662 19.1351 73.6346 19.7131C73.3435 20.1891 73.2082 20.7671 73.2082 21.4539C73.2082 22.1203 73.3503 22.6915 73.6346 23.1607C73.9797 23.7387 74.467 24.0243 75.0897 24.0243C75.6988 24.0243 76.1793 23.7319 76.5313 23.1471C76.8223 22.6575 76.9712 22.0863 76.9712 21.4199Z" fill="black"/>
<path d="M83.8411 19.2373C83.6854 19.2101 83.5162 19.1965 83.3335 19.1965C82.7717 19.1965 82.3318 19.4073 82.0273 19.8357C81.7633 20.2097 81.628 20.6925 81.628 21.2637V25.0649H80.0239V20.1009C80.0239 19.2645 80.0104 18.5029 79.9766 17.8229H81.3708L81.4317 19.2101H81.4791C81.6483 18.7341 81.9122 18.3465 82.2777 18.0609C82.6364 17.8025 83.0222 17.6733 83.435 17.6733C83.5839 17.6733 83.7193 17.6869 83.8343 17.7005L83.8411 19.2373Z" fill="black"/>
<path d="M91.003 21.1004C91.003 21.386 90.9827 21.6308 90.9421 21.828H86.1369C86.1572 22.542 86.3873 23.0928 86.834 23.4668C87.24 23.8 87.7612 23.97 88.4041 23.97C89.1148 23.97 89.7645 23.8544 90.3466 23.63L90.597 24.7452C89.9134 25.0444 89.108 25.194 88.1808 25.194C87.0641 25.194 86.1842 24.8608 85.548 24.2012C84.9118 23.5416 84.5938 22.6508 84.5938 21.5424C84.5938 20.4544 84.8915 19.5432 85.4871 18.8156C86.1098 18.0404 86.949 17.6528 88.0048 17.6528C89.0403 17.6528 89.8322 18.0404 90.3601 18.8156C90.7865 19.4412 91.003 20.196 91.003 21.1004ZM89.4735 20.6856C89.487 20.2096 89.3787 19.7948 89.1622 19.448C88.8847 18.9992 88.4583 18.7748 87.8898 18.7748C87.3686 18.7748 86.9422 18.9924 86.6174 19.4276C86.3534 19.7744 86.191 20.196 86.1436 20.6788L89.4735 20.6856Z" fill="black"/>
<path d="M34.6953 9.53516C34.6953 9.41797 34.6771 9.3138 34.6406 9.22266C34.6068 9.13151 34.5456 9.04818 34.457 8.97266C34.3685 8.89714 34.2435 8.82422 34.082 8.75391C33.9232 8.68099 33.7201 8.60677 33.4727 8.53125C33.2018 8.44792 32.9518 8.35547 32.7227 8.25391C32.4961 8.14974 32.2982 8.02995 32.1289 7.89453C31.9596 7.75651 31.8281 7.59896 31.7344 7.42188C31.6406 7.24219 31.5938 7.03516 31.5938 6.80078C31.5938 6.56901 31.6419 6.35807 31.7383 6.16797C31.8372 5.97786 31.9766 5.8138 32.1562 5.67578C32.3385 5.53516 32.5534 5.42708 32.8008 5.35156C33.0482 5.27344 33.3216 5.23438 33.6211 5.23438C34.043 5.23438 34.4062 5.3125 34.7109 5.46875C35.0182 5.625 35.2539 5.83464 35.418 6.09766C35.5846 6.36068 35.668 6.65104 35.668 6.96875H34.6953C34.6953 6.78125 34.6549 6.61589 34.5742 6.47266C34.4961 6.32682 34.3763 6.21224 34.2148 6.12891C34.056 6.04557 33.8542 6.00391 33.6094 6.00391C33.3776 6.00391 33.1849 6.03906 33.0312 6.10938C32.8776 6.17969 32.763 6.27474 32.6875 6.39453C32.612 6.51432 32.5742 6.64974 32.5742 6.80078C32.5742 6.90755 32.599 7.00521 32.6484 7.09375C32.6979 7.17969 32.7734 7.26042 32.875 7.33594C32.9766 7.40885 33.1042 7.47786 33.2578 7.54297C33.4115 7.60807 33.5924 7.67057 33.8008 7.73047C34.1159 7.82422 34.3906 7.92839 34.625 8.04297C34.8594 8.15495 35.0547 8.28255 35.2109 8.42578C35.3672 8.56901 35.4844 8.73177 35.5625 8.91406C35.6406 9.09375 35.6797 9.29818 35.6797 9.52734C35.6797 9.76693 35.6315 9.98307 35.5352 10.1758C35.4388 10.3659 35.3008 10.5286 35.1211 10.6641C34.944 10.7969 34.7305 10.8997 34.4805 10.9727C34.2331 11.043 33.957 11.0781 33.6523 11.0781C33.3789 11.0781 33.1094 11.0417 32.8438 10.9688C32.5807 10.8958 32.3411 10.7852 32.125 10.6367C31.9089 10.4857 31.737 10.2982 31.6094 10.0742C31.4818 9.84766 31.418 9.58333 31.418 9.28125H32.3984C32.3984 9.46615 32.4297 9.6237 32.4922 9.75391C32.5573 9.88411 32.6471 9.99089 32.7617 10.0742C32.8763 10.1549 33.0091 10.2148 33.1602 10.2539C33.3138 10.293 33.4779 10.3125 33.6523 10.3125C33.8815 10.3125 34.0729 10.2799 34.2266 10.2148C34.3828 10.1497 34.5 10.0586 34.5781 9.94141C34.6562 9.82422 34.6953 9.6888 34.6953 9.53516Z" fill="black"/>
<path d="M36.6734 8.93359V8.84375C36.6734 8.53906 36.7177 8.25651 36.8063 7.99609C36.8948 7.73307 37.0224 7.50521 37.1891 7.3125C37.3583 7.11719 37.5641 6.96615 37.8063 6.85938C38.051 6.75 38.3271 6.69531 38.6344 6.69531C38.9443 6.69531 39.2203 6.75 39.4625 6.85938C39.7073 6.96615 39.9143 7.11719 40.0836 7.3125C40.2529 7.50521 40.3818 7.73307 40.4703 7.99609C40.5589 8.25651 40.6031 8.53906 40.6031 8.84375V8.93359C40.6031 9.23828 40.5589 9.52083 40.4703 9.78125C40.3818 10.0417 40.2529 10.2695 40.0836 10.4648C39.9143 10.6576 39.7086 10.8086 39.4664 10.918C39.2242 11.0247 38.9495 11.0781 38.6422 11.0781C38.3323 11.0781 38.0549 11.0247 37.8102 10.918C37.568 10.8086 37.3622 10.6576 37.193 10.4648C37.0237 10.2695 36.8948 10.0417 36.8063 9.78125C36.7177 9.52083 36.6734 9.23828 36.6734 8.93359ZM37.6148 8.84375V8.93359C37.6148 9.1237 37.6344 9.30339 37.6734 9.47266C37.7125 9.64193 37.7737 9.79036 37.857 9.91797C37.9404 10.0456 38.0471 10.1458 38.1773 10.2188C38.3076 10.2917 38.4625 10.3281 38.6422 10.3281C38.8167 10.3281 38.9677 10.2917 39.0953 10.2188C39.2255 10.1458 39.3323 10.0456 39.4156 9.91797C39.499 9.79036 39.5602 9.64193 39.5992 9.47266C39.6409 9.30339 39.6617 9.1237 39.6617 8.93359V8.84375C39.6617 8.65625 39.6409 8.47917 39.5992 8.3125C39.5602 8.14323 39.4977 7.99349 39.4117 7.86328C39.3284 7.73307 39.2216 7.63151 39.0914 7.55859C38.9638 7.48307 38.8115 7.44531 38.6344 7.44531C38.4573 7.44531 38.3036 7.48307 38.1734 7.55859C38.0458 7.63151 37.9404 7.73307 37.857 7.86328C37.7737 7.99349 37.7125 8.14323 37.6734 8.3125C37.6344 8.47917 37.6148 8.65625 37.6148 8.84375Z" fill="black"/>
<path d="M41.6125 8.93359V8.84375C41.6125 8.53906 41.6568 8.25651 41.7453 7.99609C41.8339 7.73307 41.9615 7.50521 42.1281 7.3125C42.2974 7.11719 42.5031 6.96615 42.7453 6.85938C42.9901 6.75 43.2661 6.69531 43.5734 6.69531C43.8833 6.69531 44.1594 6.75 44.4016 6.85938C44.6464 6.96615 44.8534 7.11719 45.0227 7.3125C45.1919 7.50521 45.3208 7.73307 45.4094 7.99609C45.4979 8.25651 45.5422 8.53906 45.5422 8.84375V8.93359C45.5422 9.23828 45.4979 9.52083 45.4094 9.78125C45.3208 10.0417 45.1919 10.2695 45.0227 10.4648C44.8534 10.6576 44.6477 10.8086 44.4055 10.918C44.1633 11.0247 43.8885 11.0781 43.5813 11.0781C43.2714 11.0781 42.994 11.0247 42.7492 10.918C42.507 10.8086 42.3013 10.6576 42.132 10.4648C41.9628 10.2695 41.8339 10.0417 41.7453 9.78125C41.6568 9.52083 41.6125 9.23828 41.6125 8.93359ZM42.5539 8.84375V8.93359C42.5539 9.1237 42.5734 9.30339 42.6125 9.47266C42.6516 9.64193 42.7128 9.79036 42.7961 9.91797C42.8794 10.0456 42.9862 10.1458 43.1164 10.2188C43.2466 10.2917 43.4016 10.3281 43.5813 10.3281C43.7557 10.3281 43.9068 10.2917 44.0344 10.2188C44.1646 10.1458 44.2714 10.0456 44.3547 9.91797C44.438 9.79036 44.4992 9.64193 44.5383 9.47266C44.5799 9.30339 44.6008 9.1237 44.6008 8.93359V8.84375C44.6008 8.65625 44.5799 8.47917 44.5383 8.3125C44.4992 8.14323 44.4367 7.99349 44.3508 7.86328C44.2674 7.73307 44.1607 7.63151 44.0305 7.55859C43.9029 7.48307 43.7505 7.44531 43.5734 7.44531C43.3964 7.44531 43.2427 7.48307 43.1125 7.55859C42.9849 7.63151 42.8794 7.73307 42.7961 7.86328C42.7128 7.99349 42.6516 8.14323 42.6125 8.3125C42.5734 8.47917 42.5539 8.65625 42.5539 8.84375Z" fill="black"/>
<path d="M47.6648 7.67578V11H46.7234V6.77344H47.6102L47.6648 7.67578ZM47.4969 8.73047L47.1922 8.72656C47.1948 8.42708 47.2365 8.15234 47.3172 7.90234C47.4005 7.65234 47.5151 7.4375 47.6609 7.25781C47.8094 7.07812 47.9865 6.9401 48.1922 6.84375C48.3979 6.74479 48.6271 6.69531 48.8797 6.69531C49.0828 6.69531 49.2664 6.72396 49.4305 6.78125C49.5971 6.83594 49.7391 6.92578 49.8563 7.05078C49.976 7.17578 50.0672 7.33854 50.1297 7.53906C50.1922 7.73698 50.2234 7.98047 50.2234 8.26953V11H49.2781V8.26562C49.2781 8.0625 49.2482 7.90234 49.1883 7.78516C49.131 7.66536 49.0464 7.58073 48.9344 7.53125C48.825 7.47917 48.6883 7.45312 48.5242 7.45312C48.3628 7.45312 48.2182 7.48698 48.0906 7.55469C47.963 7.6224 47.8549 7.71484 47.7664 7.83203C47.6805 7.94922 47.6141 8.08464 47.5672 8.23828C47.5203 8.39193 47.4969 8.55599 47.4969 8.73047Z" fill="black"/>
<path d="M53.7969 8.93359V8.84375C53.7969 8.53906 53.8411 8.25651 53.9297 7.99609C54.0182 7.73307 54.1458 7.50521 54.3125 7.3125C54.4818 7.11719 54.6875 6.96615 54.9297 6.85938C55.1745 6.75 55.4505 6.69531 55.7578 6.69531C56.0677 6.69531 56.3438 6.75 56.5859 6.85938C56.8307 6.96615 57.0378 7.11719 57.207 7.3125C57.3763 7.50521 57.5052 7.73307 57.5938 7.99609C57.6823 8.25651 57.7266 8.53906 57.7266 8.84375V8.93359C57.7266 9.23828 57.6823 9.52083 57.5938 9.78125C57.5052 10.0417 57.3763 10.2695 57.207 10.4648C57.0378 10.6576 56.832 10.8086 56.5898 10.918C56.3477 11.0247 56.0729 11.0781 55.7656 11.0781C55.4557 11.0781 55.1784 11.0247 54.9336 10.918C54.6914 10.8086 54.4857 10.6576 54.3164 10.4648C54.1471 10.2695 54.0182 10.0417 53.9297 9.78125C53.8411 9.52083 53.7969 9.23828 53.7969 8.93359ZM54.7383 8.84375V8.93359C54.7383 9.1237 54.7578 9.30339 54.7969 9.47266C54.8359 9.64193 54.8971 9.79036 54.9805 9.91797C55.0638 10.0456 55.1706 10.1458 55.3008 10.2188C55.431 10.2917 55.5859 10.3281 55.7656 10.3281C55.9401 10.3281 56.0911 10.2917 56.2188 10.2188C56.349 10.1458 56.4557 10.0456 56.5391 9.91797C56.6224 9.79036 56.6836 9.64193 56.7227 9.47266C56.7643 9.30339 56.7852 9.1237 56.7852 8.93359V8.84375C56.7852 8.65625 56.7643 8.47917 56.7227 8.3125C56.6836 8.14323 56.6211 7.99349 56.5352 7.86328C56.4518 7.73307 56.3451 7.63151 56.2148 7.55859C56.0872 7.48307 55.9349 7.44531 55.7578 7.44531C55.5807 7.44531 55.4271 7.48307 55.2969 7.55859C55.1693 7.63151 55.0638 7.73307 54.9805 7.86328C54.8971 7.99349 54.8359 8.14323 54.7969 8.3125C54.7578 8.47917 54.7383 8.65625 54.7383 8.84375Z" fill="black"/>
<path d="M59.8492 7.67578V11H58.9078V6.77344H59.7945L59.8492 7.67578ZM59.6812 8.73047L59.3766 8.72656C59.3792 8.42708 59.4208 8.15234 59.5016 7.90234C59.5849 7.65234 59.6995 7.4375 59.8453 7.25781C59.9937 7.07812 60.1708 6.9401 60.3766 6.84375C60.5823 6.74479 60.8115 6.69531 61.0641 6.69531C61.2672 6.69531 61.4508 6.72396 61.6148 6.78125C61.7815 6.83594 61.9234 6.92578 62.0406 7.05078C62.1604 7.17578 62.2516 7.33854 62.3141 7.53906C62.3766 7.73698 62.4078 7.98047 62.4078 8.26953V11H61.4625V8.26562C61.4625 8.0625 61.4326 7.90234 61.3727 7.78516C61.3154 7.66536 61.2307 7.58073 61.1187 7.53125C61.0094 7.47917 60.8727 7.45312 60.7086 7.45312C60.5471 7.45312 60.4026 7.48698 60.275 7.55469C60.1474 7.6224 60.0393 7.71484 59.9508 7.83203C59.8648 7.94922 59.7984 8.08464 59.7516 8.23828C59.7047 8.39193 59.6812 8.55599 59.6812 8.73047Z" fill="black"/>
<path d="M68.0984 6.77344V7.46094H65.7156V6.77344H68.0984ZM66.4031 5.73828H67.3445V9.83203C67.3445 9.96224 67.3628 10.0625 67.3992 10.1328C67.4383 10.2005 67.4917 10.2461 67.5594 10.2695C67.6271 10.293 67.7065 10.3047 67.7977 10.3047C67.8628 10.3047 67.9253 10.3008 67.9852 10.293C68.0451 10.2852 68.0932 10.2773 68.1297 10.2695L68.1336 10.9883C68.0555 11.0117 67.9643 11.0326 67.8602 11.0508C67.7586 11.069 67.6414 11.0781 67.5086 11.0781C67.2924 11.0781 67.101 11.0404 66.9344 10.9648C66.7677 10.8867 66.6375 10.7604 66.5438 10.5859C66.45 10.4115 66.4031 10.1797 66.4031 9.89062V5.73828Z" fill="black"/>
<path d="M70.1547 5V11H69.2172V5H70.1547ZM69.9906 8.73047L69.6859 8.72656C69.6885 8.4349 69.7289 8.16536 69.807 7.91797C69.8878 7.67057 69.9997 7.45573 70.143 7.27344C70.2888 7.08854 70.4633 6.94661 70.6664 6.84766C70.8695 6.74609 71.0948 6.69531 71.3422 6.69531C71.5505 6.69531 71.738 6.72396 71.9047 6.78125C72.074 6.83854 72.2198 6.93099 72.3422 7.05859C72.4646 7.18359 72.557 7.34766 72.6195 7.55078C72.6846 7.7513 72.7172 7.99609 72.7172 8.28516V11H71.7719V8.27734C71.7719 8.07422 71.7419 7.91276 71.682 7.79297C71.6247 7.67318 71.5401 7.58724 71.4281 7.53516C71.3161 7.48047 71.1794 7.45312 71.018 7.45312C70.8487 7.45312 70.699 7.48698 70.5687 7.55469C70.4411 7.6224 70.3344 7.71484 70.2484 7.83203C70.1625 7.94922 70.0974 8.08464 70.0531 8.23828C70.0115 8.39193 69.9906 8.55599 69.9906 8.73047Z" fill="black"/>
<path d="M75.9336 11.0781C75.6211 11.0781 75.3385 11.0273 75.0859 10.9258C74.8359 10.8216 74.6224 10.6771 74.4453 10.4922C74.2708 10.3073 74.1367 10.0898 74.043 9.83984C73.9492 9.58984 73.9023 9.32031 73.9023 9.03125V8.875C73.9023 8.54427 73.9505 8.24479 74.0469 7.97656C74.1432 7.70833 74.2773 7.47917 74.4492 7.28906C74.6211 7.09635 74.8242 6.94922 75.0586 6.84766C75.293 6.74609 75.5469 6.69531 75.8203 6.69531C76.1224 6.69531 76.3867 6.74609 76.6133 6.84766C76.8398 6.94922 77.0273 7.09245 77.1758 7.27734C77.3268 7.45964 77.4388 7.67708 77.5117 7.92969C77.5872 8.18229 77.625 8.46094 77.625 8.76562V9.16797H74.3594V8.49219H76.6953V8.41797C76.6901 8.2487 76.6562 8.08984 76.5938 7.94141C76.5339 7.79297 76.4414 7.67318 76.3164 7.58203C76.1914 7.49089 76.0247 7.44531 75.8164 7.44531C75.6602 7.44531 75.5208 7.47917 75.3984 7.54688C75.2786 7.61198 75.1784 7.70703 75.0977 7.83203C75.0169 7.95703 74.9544 8.10807 74.9102 8.28516C74.8685 8.45964 74.8477 8.65625 74.8477 8.875V9.03125C74.8477 9.21615 74.8724 9.38802 74.9219 9.54688C74.974 9.70312 75.0495 9.83984 75.1484 9.95703C75.2474 10.0742 75.3672 10.1667 75.5078 10.2344C75.6484 10.2995 75.8086 10.332 75.9883 10.332C76.2148 10.332 76.4167 10.2865 76.5938 10.1953C76.7708 10.1042 76.9245 9.97526 77.0547 9.80859L77.5508 10.2891C77.4596 10.4219 77.3411 10.5495 77.1953 10.6719C77.0495 10.7917 76.8711 10.8893 76.6602 10.9648C76.4518 11.0404 76.2096 11.0781 75.9336 11.0781Z" fill="black"/>
</svg>
