<svg width="100" height="34" viewBox="0 0 100 34" fill="none" xmlns="http://www.w3.org/2000/svg">
<path d="M4.06229 0H95.9377C98.1787 0 100 1.8292 100 4.08V29.92C100 32.1708 98.1787 34 95.9377 34H4.06229C1.82126 34 0 32.1708 0 29.92V4.08C0 1.8292 1.82126 0 4.06229 0Z" fill="white"/>
<path fill-rule="evenodd" clip-rule="evenodd" d="M10.3313 8.27338C10.1209 8.49085 10 8.82557 10 9.26051V24.7312C10 25.1662 10.1209 25.5009 10.3392 25.7108L10.3962 25.7571L19.4094 17.0885V16.8938L10.3883 8.22705L10.3313 8.27338Z" fill="#63697F"/>
<path fill-rule="evenodd" clip-rule="evenodd" d="M22.4048 19.9893L19.3984 17.0969V16.8946L22.4058 14.0022L22.4707 14.041L26.0276 15.985C27.0461 16.5372 27.0461 17.4468 26.0276 18.0065L22.4707 19.9505C22.4697 19.9505 22.4048 19.9893 22.4048 19.9893Z" fill="#373A48"/>
<path fill-rule="evenodd" clip-rule="evenodd" d="M22.4735 19.9506L19.4022 16.9958L10.332 25.7193C10.6633 26.0616 11.2208 26.1003 11.8441 25.7656L22.4735 19.9506Z" fill="#93989F"/>
<path fill-rule="evenodd" clip-rule="evenodd" d="M22.4735 14.0421L11.8441 8.23472C11.2217 7.89244 10.6633 7.93877 10.332 8.28105L19.4012 16.996L22.4735 14.0421Z" fill="#B8BDC0"/>
<path opacity="0.2" fill-rule="evenodd" clip-rule="evenodd" d="M22.4085 19.8882L11.8519 25.6568C11.262 25.9831 10.736 25.9604 10.3969 25.6644L10.3398 25.7193L10.3969 25.7656C10.736 26.0606 11.262 26.0842 11.8519 25.758L22.4813 19.9506L22.4085 19.8882Z" fill="black"/>
<path opacity="0.12" fill-rule="evenodd" clip-rule="evenodd" d="M26.0281 17.9054L22.3984 19.8882L22.4633 19.9506L26.0202 18.0066C26.5295 17.7267 26.7802 17.3618 26.7802 16.9958C26.7477 17.3306 26.4892 17.6492 26.0281 17.9054Z" fill="black"/>
<path fill-rule="evenodd" clip-rule="evenodd" d="M30.2559 16.505C30.2559 14.0268 32.4217 12.009 34.9984 12.009C36.4229 12.009 37.4365 12.547 38.2014 13.2477L37.3009 14.1138C36.7542 13.6202 36.013 13.2373 34.9974 13.2373C33.1157 13.2373 31.645 14.6943 31.645 16.5041C31.645 18.3138 33.1157 19.7728 34.9964 19.7728C36.2165 19.7728 36.9106 19.3019 37.3559 18.8726C37.7206 18.5218 37.9595 18.0179 38.052 17.3267H34.9984V16.1013H39.2966C39.3418 16.3206 39.3654 16.5835 39.3654 16.8681C39.3654 17.7881 39.1029 18.9293 38.2584 19.7416C37.4365 20.5642 36.3885 21.0029 34.9974 21.0029C32.4197 21.0029 30.2539 18.987 30.2539 16.5069L30.2559 16.505ZM42.8397 15.2115C41.1753 15.2115 39.8166 16.4294 39.8166 18.1058C39.8166 19.7737 41.1743 21.0001 42.8397 21.0001C44.5051 21.0001 45.8608 19.7718 45.8608 18.1048C45.8608 16.4284 44.5041 15.2106 42.8397 15.2115ZM42.8397 19.8616C41.9284 19.8616 41.1409 19.1383 41.1409 18.1067C41.1409 17.0648 41.9274 16.3518 42.8397 16.3518C43.7511 16.3518 44.5375 17.0638 44.5375 18.1067C44.5375 19.1374 43.752 19.8616 42.8397 19.8616ZM49.4315 15.2115C47.7671 15.2115 46.4104 16.4294 46.4104 18.1058C46.4104 19.7737 47.7671 21.0001 49.4315 21.0001C51.0959 21.0001 52.4526 19.7718 52.4526 18.1048C52.4526 16.4284 51.0969 15.2106 49.4315 15.2115ZM49.4315 19.8616C48.5201 19.8616 47.7327 19.1383 47.7327 18.1067C47.7327 17.0648 48.5191 16.3518 49.4315 16.3518C50.3428 16.3518 51.1303 17.0638 51.1303 18.1067C51.1303 19.1374 50.3428 19.8616 49.4315 19.8616ZM57.5215 15.3874V15.8583H57.4763C57.1804 15.5169 56.6102 15.2106 55.8925 15.2106C54.3873 15.2106 53.0061 16.4833 53.0061 18.1181C53.0061 19.7397 54.3864 21.0019 55.8925 21.0019C56.6102 21.0019 57.1804 20.6956 57.4763 20.3448H57.5215V20.7608C57.5215 21.868 56.9061 22.4609 55.9141 22.4609C55.104 22.4609 54.6026 21.9011 54.3972 21.4312L53.245 21.8917C53.5753 22.6585 54.4542 23.6021 55.9131 23.6021C57.4625 23.6021 58.774 22.7238 58.774 20.5859V15.3865L57.5215 15.3874ZM56.0055 19.8616C55.0942 19.8616 54.3284 19.126 54.3284 18.1181C54.3284 17.0988 55.0932 16.3528 56.0055 16.3528C56.9061 16.3528 57.6129 17.0979 57.6129 18.1181C57.6139 19.126 56.9071 19.8616 56.0055 19.8616ZM59.6873 12.3163H61.0106V20.8261H59.6873V12.3163ZM64.6373 19.8616C63.9648 19.8616 63.4851 19.5647 63.1793 18.9851L67.2042 17.3825L67.0656 17.0534C66.8158 16.4076 66.051 15.2115 64.4888 15.2115C62.9384 15.2115 61.6496 16.3849 61.6496 18.1067C61.6496 19.7283 62.9267 21.001 64.6373 21.001C66.0176 21.001 66.8158 20.1907 67.1462 19.7179L66.1198 19.0608C65.7767 19.5439 65.3087 19.8626 64.6373 19.8616ZM64.534 16.3301C65.058 16.3301 65.5024 16.5825 65.6509 16.9437L62.9591 18.0188C62.9257 16.9002 63.8606 16.3301 64.534 16.3301ZM73.0104 12.3163H69.8468V20.8261H71.1671V17.6028H73.0114C74.4753 17.6028 75.9145 16.5835 75.9145 14.9591C75.9145 13.3375 74.4763 12.3173 73.0134 12.3173L73.0104 12.3163ZM73.0448 16.418H71.1671V13.5001H73.0448C74.0319 13.5001 74.5942 14.2878 74.5942 14.9591C74.5942 15.6191 74.0319 16.418 73.0448 16.418ZM77.9624 20.8261V12.3163H76.642V20.8261H77.9624ZM83.8935 20.8109V17.5489C83.8935 16.0379 82.7196 15.1955 81.2047 15.1955C80.2501 15.1955 79.2601 15.6011 78.8501 16.4984L80.022 16.9683C80.2727 16.4984 80.7387 16.3443 81.2292 16.3443C81.9115 16.3443 82.6056 16.7386 82.6164 17.4401V17.5281C82.3775 17.3966 81.8663 17.199 81.2391 17.199C79.9758 17.199 78.6899 17.8666 78.6899 19.1147C78.6899 20.254 79.7261 20.9868 80.8871 20.9868C81.7759 20.9868 82.2645 20.6039 82.5712 20.1557H82.6164V20.8128H83.8925L83.8935 20.8109ZM81.0474 19.8597C80.6148 19.8597 80.0112 19.6517 80.0112 19.1383C80.0112 18.4812 80.7633 18.2278 81.4121 18.2278C81.9931 18.2278 82.2654 18.3478 82.6194 18.5124C82.5181 19.2764 81.8466 19.8503 81.0474 19.8597ZM88.5367 15.3817L87.0227 19.0702H86.9775L85.4065 15.3817H83.9839L86.3395 20.5386L84.9956 23.4064H86.3729L90.0035 15.3817H88.5367Z" fill="#808285"/>
</svg>
