<?xml version="1.0" encoding="utf-8"?><svg viewBox="0 0 30 24" xmlns="http://www.w3.org/2000/svg" xmlns:xlink="http://www.w3.org/1999/xlink"><style>:root>svg{display:none}:root>svg:target{display:block}</style><svg viewBox="0 0 21 20" id="api" xmlns="http://www.w3.org/2000/svg"><path d="M10 10v10C4.477 20 0 15.523 0 10S4.477 0 10 0v10z"/><path d="M8.57 5.714h4.286v2.857H8.57zM15.719 0h4.286v20h-4.286zM8.57 11.429h4.286v2.857H8.57z"/></svg><svg viewBox="0 0 8 13" id="arrow" xmlns="http://www.w3.org/2000/svg"><path fill-rule="evenodd" clip-rule="evenodd" d="M6.367 12.742L.28 7.123a.835.835 0 010-1.248L6.367.259c.374-.345.98-.345 1.353 0a.835.835 0 010 1.248L2.31 6.5l5.41 4.993a.835.835 0 010 1.248c-.374.345-.98.345-1.353 0z"/></svg><svg viewBox="0 0 22 20" id="best" xmlns="http://www.w3.org/2000/svg"><path d="M8 0h6v20H8zM0 7h6v13H0zm16 6h6v7h-6z"/></svg><svg viewBox="0 0 20 20" id="case" xmlns="http://www.w3.org/2000/svg"><rect y="5.263" width="20" height="14.737" rx="2"/><path fill-rule="evenodd" clip-rule="evenodd" d="M11.58 2.632H8.42c-.872 0-1.578.706-1.578 1.579v3.157c0 .872.706 1.58 1.578 1.58h3.158a1.58 1.58 0 001.58-1.58V4.211a1.58 1.58 0 00-1.58-1.58zM8.42 0a4.21 4.21 0 00-4.21 4.21v3.158a4.21 4.21 0 004.21 4.21h3.158a4.21 4.21 0 004.21-4.21V4.211A4.21 4.21 0 0011.58 0H8.421z"/><path d="M0 11.579h20v2.105H0z"/></svg><svg viewBox="0 0 20 18" id="cup" xmlns="http://www.w3.org/2000/svg"><path d="M16.106.836c.008-.276.012-.555.012-.836H3.986c0 .281.004.56.013.836H0c0 4.27 2.614 7.921 6.312 9.406.806 1.355 1.776 2.282 2.836 2.621v3.204h-.93c-.855 0-1.548.702-1.548 1.567V18h6.66v-.366c0-.865-.693-1.567-1.549-1.567h-.826v-3.204c1.074-.344 2.056-1.292 2.87-2.677A10.12 10.12 0 0020 .836h-3.894zM1.324 1.927H4.05c.173 2.497.677 4.763 1.413 6.585-2.484-1.359-4.14-3.8-4.14-6.585zM14.668 8.44c.72-1.81 1.213-4.048 1.384-6.512h2.625c0 2.736-1.599 5.14-4.009 6.512z"/></svg><svg viewBox="0 0 24 24" id="dropdown" xmlns="http://www.w3.org/2000/svg"><path d="M12 5v14m-7-7h14"/></svg><svg viewBox="0 0 9 18" id="facebook" xmlns="http://www.w3.org/2000/svg"><path d="M8.987 0H5.93C4.116 0 2.098.718 2.098 3.193c.01.862 0 1.688 0 2.617H0v3.143h2.163V18H6.14V8.893h2.624L9 5.801H6.07s.007-1.375 0-1.775c0-.978 1.081-.922 1.146-.922.515 0 1.515.002 1.772 0V0h-.001z"/></svg><svg viewBox="0 0 18 16" id="graph" xmlns="http://www.w3.org/2000/svg"><path fill-rule="evenodd" clip-rule="evenodd" d="M4.904 15.667V.333A.34.34 0 015.25 0h2.596a.34.34 0 01.346.333v15.334a.34.34 0 01-.346.333H5.25a.34.34 0 01-.346-.333zm-4.904 0V11a.34.34 0 01.346-.333h2.596a.34.34 0 01.346.333v4.667a.34.34 0 01-.346.333H.346A.34.34 0 010 15.667zm9.808 0V8.333A.34.34 0 0110.154 8h2.596a.34.34 0 01.346.333v7.334a.34.34 0 01-.346.333h-2.596a.34.34 0 01-.346-.333zm4.903 0v-10a.34.34 0 01.347-.334h2.596a.34.34 0 01.346.334v10a.34.34 0 01-.346.333h-2.596a.34.34 0 01-.347-.333z"/><path fill-rule="evenodd" clip-rule="evenodd" d="M4.904 15.667V.333A.34.34 0 015.25 0h2.596a.34.34 0 01.346.333v15.334a.34.34 0 01-.346.333H5.25a.34.34 0 01-.346-.333zm-4.904 0V11a.34.34 0 01.346-.333h2.596a.34.34 0 01.346.333v4.667a.34.34 0 01-.346.333H.346A.34.34 0 010 15.667zm9.808 0V8.333A.34.34 0 0110.154 8h2.596a.34.34 0 01.346.333v7.334a.34.34 0 01-.346.333h-2.596a.34.34 0 01-.346-.333zm4.903 0v-10a.34.34 0 01.347-.334h2.596a.34.34 0 01.346.334v10a.34.34 0 01-.346.333h-2.596a.34.34 0 01-.347-.333z"/></svg><svg viewBox="0 0 20 17" id="graphscreen" xmlns="http://www.w3.org/2000/svg"><path d="M18.938.048H1.063a.554.554 0 00-.547.57V15.61c0 .32.24.57.547.57H18.96c.307 0 .548-.25.548-.57V.618c-.022-.32-.263-.57-.57-.57zm-2.235 1.048c.438-.228.986-.023 1.205.433a.966.966 0 01-.416 1.253c-.438.228-.986.023-1.205-.433-.197-.478-.022-1.048.416-1.253zm-2.935 0c.438-.228.986-.023 1.205.433a.966.966 0 01-.416 1.253c-.439.228-.986.023-1.205-.433-.22-.478-.044-1.048.416-1.253zm-2.957 0c.438-.228.986-.023 1.205.433a.966.966 0 01-.417 1.253c-.438.228-.985.023-1.204-.433-.22-.478-.022-1.048.416-1.253zM18.39 15.04H1.61V4.035h16.802V15.04h-.022z"/><path d="M7.065 8.706H4.59v5.65h2.475v-5.65zm4.16-1.8H8.75v7.428h2.475V6.906zm4.188-2.096h-2.476v9.524h2.476V4.81z"/></svg><svg viewBox="0 0 18 19" id="group" xmlns="http://www.w3.org/2000/svg"><path fill-rule="evenodd" clip-rule="evenodd" d="M4.904 16.86V1.424a.34.34 0 01.346-.335h2.596a.34.34 0 01.346.335V16.86a.34.34 0 01-.346.336H5.25a.34.34 0 01-.346-.336zM0 16.86v-4.698a.34.34 0 01.346-.336h2.596a.34.34 0 01.346.336v4.697a.34.34 0 01-.346.336H.346A.34.34 0 010 16.859zm9.808 0V9.477c0-.185.155-.336.346-.336h2.596a.34.34 0 01.346.336v7.381a.341.341 0 01-.346.336h-2.596a.34.34 0 01-.346-.336zm4.903 0V6.793c0-.186.155-.336.347-.336h2.596a.34.34 0 01.346.336v10.065a.341.341 0 01-.346.336h-2.596a.341.341 0 01-.347-.336z"/><path fill-rule="evenodd" clip-rule="evenodd" d="M4.904 16.86V1.424a.34.34 0 01.346-.335h2.596a.34.34 0 01.346.335V16.86a.34.34 0 01-.346.336H5.25a.34.34 0 01-.346-.336zM0 16.86v-4.698a.34.34 0 01.346-.336h2.596a.34.34 0 01.346.336v4.697a.34.34 0 01-.346.336H.346A.34.34 0 010 16.859zm9.808 0V9.477c0-.185.155-.336.346-.336h2.596a.34.34 0 01.346.336v7.381a.341.341 0 01-.346.336h-2.596a.34.34 0 01-.346-.336zm4.903 0V6.793c0-.186.155-.336.347-.336h2.596a.34.34 0 01.346.336v10.065a.341.341 0 01-.346.336h-2.596a.341.341 0 01-.347-.336z"/><rect x="6" y=".385" width="12" height="12" rx="1"/><rect y="6.385" width="12" height="12" rx="1"/></svg><svg viewBox="0 0 21 22" id="layers" xmlns="http://www.w3.org/2000/svg"><path fill-rule="evenodd" clip-rule="evenodd" d="M11.063 1.147l8.636 4.067c.45.222.45.887 0 1.109l-8.637 4.067a1.485 1.485 0 01-1.126 0L1.375 6.323c-.526-.222-.526-.887 0-1.11l8.561-4.066c.376-.222.751-.222 1.127 0z"/><path fill-rule="evenodd" clip-rule="evenodd" d="M17.671 7.95l2.028.962c.45.222.45.887 0 1.11l-8.637 4.066a1.485 1.485 0 01-1.126 0l-8.561-4.067c-.526-.222-.526-.887 0-1.11l2.027-.96 6.309 2.957a1.649 1.649 0 001.652 0l6.308-2.957z"/><path fill-rule="evenodd" clip-rule="evenodd" d="M17.671 11.648l2.028.961c.45.222.45.887 0 1.11l-8.637 4.066c-.375.222-.75.222-1.126 0l-8.561-4.067c-.526-.222-.526-.887 0-1.109l2.027-.961 6.309 3.032a2.133 2.133 0 001.652 0l6.308-3.032z"/><path fill-rule="evenodd" clip-rule="evenodd" d="M17.671 15.419l2.028.887c.45.296.45.961 0 1.183l-8.637 4.067a1.485 1.485 0 01-1.126 0L1.375 17.49c-.526-.222-.526-.887 0-1.183l2.027-.887 6.309 2.958a2.134 2.134 0 001.652 0l6.308-2.958z"/></svg><svg viewBox="0 0 13 8" id="nav-arrow" xmlns="http://www.w3.org/2000/svg"><path fill-rule="evenodd" clip-rule="evenodd" d="M12.742 1.633L7.123 7.72a.835.835 0 01-1.248 0L.259 1.633a1.014 1.014 0 010-1.353.835.835 0 011.248 0L6.5 5.69 11.493.28a.835.835 0 011.248 0c.345.374.345.98 0 1.353z"/></svg><svg viewBox="0 0 16 16" id="squere" xmlns="http://www.w3.org/2000/svg"><rect width="6.632" height="6.632" rx="2"/><rect y="9.368" width="6.632" height="6.632" rx="2"/><rect x="9.367" width="6.632" height="6.632" rx="2"/><rect x="9.367" y="9.368" width="6.632" height="6.632" rx="2"/></svg><svg viewBox="0 0 30 19" id="team" xmlns="http://www.w3.org/2000/svg"><path d="M23.843 7.825c1.8 0 3.258-1.752 3.258-3.912C27.1 1.752 26.62 0 23.843 0s-3.257 1.752-3.257 3.913c0 2.16 1.458 3.912 3.257 3.912zm-17.691 0c1.799 0 3.257-1.752 3.257-3.912C9.41 1.752 8.93 0 6.152 0 3.373 0 2.895 1.752 2.895 3.913c0 2.16 1.458 3.912 3.257 3.912zm23.837 5.816c-.06-3.764-.558-4.837-4.362-5.516 0 0-.535.675-1.783.675-1.248 0-1.784-.675-1.784-.675-3.763.672-4.29 1.729-4.36 5.394-.005.299-.008.315-.009.28v.396S18.599 16 23.845 16c5.246 0 6.152-1.806 6.152-1.806v-.292a2.443 2.443 0 01-.007-.261zm-17.692 0c-.06-3.764-.557-4.837-4.361-5.516 0 0-.536.675-1.784.675S4.37 8.125 4.37 8.125C.606 8.797.079 9.854.009 13.52c-.005.299-.008.315-.009.28v.396S.907 16 6.153 16s6.152-1.806 6.152-1.806v-.292a2.443 2.443 0 01-.007-.261z"/><path d="M22.607 14.5c0 1.933.425 4-1.475 4-1.9 0-5.405-2.067-5.405-4 0-1.933.557-4.5 2.457-4.5s4.423 2.567 4.423 4.5zm-8.356-.5c0-1.933.426-4-1.474-4S7.37 12.067 7.37 14c0 1.933.557 4.5 2.457 4.5s4.423-2.567 4.423-4.5z"/><path d="M15 10.825c1.798 0 3.257-1.752 3.257-3.912 0-2.161-.479-3.913-3.258-3.913-2.778 0-3.257 1.752-3.257 3.913 0 2.16 1.459 3.912 3.257 3.912zm6.145 5.816c-.06-3.764-.557-4.837-4.361-5.516 0 0-.536.675-1.784.675s-1.784-.675-1.784-.675c-3.762.672-4.29 1.729-4.359 5.394-.006.299-.008.315-.01.28l.001.396S9.754 19 15 19s6.152-1.805 6.152-1.805v-.293a2.384 2.384 0 01-.007-.261z"/></svg><svg viewBox="0 0 18 15" id="telegram" xmlns="http://www.w3.org/2000/svg"><path d="M6.917 9.652l6.252 4.61c.71.388 1.227.195 1.408-.658l2.545-11.987c.258-1.046-.4-1.51-1.085-1.2L1.104 6.176C.085 6.59.097 7.159.924 7.404L4.76 8.605l8.874-5.593c.413-.258.8-.116.49.168L6.918 9.652z"/></svg><svg viewBox="0 0 15 12" id="twitter" xmlns="http://www.w3.org/2000/svg"><path d="M4.717 12c5.661 0 8.757-4.616 8.757-8.62a8.49 8.49 0 00-.01-.39A6.206 6.206 0 0015 1.42a6.21 6.21 0 01-1.767.477A3.05 3.05 0 0014.586.222a6.232 6.232 0 01-1.954.735A3.097 3.097 0 0010.385 0c-1.7 0-3.077 1.357-3.077 3.029 0 .238.027.469.08.69A8.785 8.785 0 011.044.556a2.985 2.985 0 00-.417 1.522c0 1.051.543 1.979 1.37 2.522a3.092 3.092 0 01-1.394-.38v.04c0 1.467 1.06 2.692 2.468 2.97a3.127 3.127 0 01-1.39.051 3.075 3.075 0 002.875 2.104 6.237 6.237 0 01-3.822 1.297A6.34 6.34 0 010 10.639a8.812 8.812 0 004.718 1.36"/></svg><svg viewBox="0 0 11 21" id="updown" xmlns="http://www.w3.org/2000/svg"><path fill-rule="evenodd" clip-rule="evenodd" d="M9.836 11.342c.547 0 .76.378.478.842l-4.582 7.522c-.283.465-.743.464-1.025 0L.125 12.184c-.283-.465-.07-.842.478-.842h9.233zM.603 8.712c-.547 0-.76-.378-.478-.841L4.707.348c.283-.465.743-.463 1.025 0l4.582 7.523c.283.464.07.841-.478.841H.603z"/></svg></svg>