<svg width="111" height="17" viewBox="0 0 111 17" fill="none" xmlns="http://www.w3.org/2000/svg">
<path d="M14.9872 6.89924C15.7852 6.09954 16.5986 5.31523 17.3967 4.51553C18.7473 3.19296 20.0671 1.83963 21.4023 0.517054C22.2464 -0.3134 23.551 -0.113476 24.0728 0.901523C24.1802 1.11683 24.2416 1.34751 24.2416 1.59357V14.7885C24.2416 15.6498 23.5817 16.3418 22.7222 16.4033H5.64062C5.67132 16.3726 5.67132 16.3264 5.68667 16.311L7.03723 14.9577C7.34418 14.6963 7.62043 14.4041 7.86599 14.0811C7.92738 14.035 7.97342 13.9888 8.03481 13.9427L9.78441 12.1895C9.96857 12.005 9.95323 12.005 10.0914 12.2203C10.4443 12.7893 10.782 13.3276 11.135 13.8966C11.181 13.9735 11.2117 14.0196 11.3038 14.0196C11.7796 14.0196 12.2246 14.0196 12.7004 13.9888C13.0994 14.0196 13.4985 14.035 13.8975 14.0196C14.2658 14.035 14.6342 14.0196 15.0025 13.9888C15.0485 13.9888 15.0946 14.0196 15.1406 14.0196H21.7553C21.9242 14.0196 21.9395 13.9427 21.9395 13.8043V3.56205C21.9395 3.48515 21.9855 3.42364 21.8935 3.3775C21.8014 3.33137 21.7707 3.42364 21.7246 3.46978L17.6115 7.59128C16.7368 8.43712 15.8926 9.3137 15.0178 10.1749C15.0025 10.1288 14.9872 10.0826 14.9872 10.0365V7.05303C14.9718 7.03765 14.9718 6.96075 14.9872 6.89924Z" fill="#1D2939"/>
<path d="M14.9691 13.6256C14.6007 13.6563 14.2324 13.6563 13.8641 13.6563C13.465 13.6717 13.066 13.6563 12.667 13.6256V6.59748C12.5902 6.62823 12.5135 6.68975 12.4521 6.76664C11.5006 7.72012 10.5644 8.65823 9.59752 9.61171C8.32369 10.8881 7.01916 12.1646 5.74533 13.4718C5.69929 13.5179 5.62256 13.5487 5.65325 13.6102C5.68394 13.6717 5.77603 13.6563 5.83742 13.6563H7.63306C7.70979 13.6563 7.77118 13.6256 7.84792 13.7025C7.60236 14.01 7.32611 14.3022 7.01916 14.5791L5.6686 15.9324C5.6379 15.9631 5.6379 15.9785 5.62255 16.0247H0.189597C0.11286 16.0247 0.0207763 16.0708 0.00542893 15.9785C-0.0252657 15.8862 0.0821661 15.8555 0.128208 15.8094L9.82773 6.08998C10.6104 5.30566 11.3778 4.53672 12.1605 3.76778C12.4828 3.39869 12.9432 3.21415 13.4344 3.22953C14.2785 3.2449 14.9537 3.92157 14.9844 4.7674C15.0151 5.36717 14.9844 5.92081 15.0151 6.52058C15.0151 6.59748 14.9844 6.65899 14.9844 6.70513V9.67322C14.9844 9.71936 14.9844 9.7655 15.0151 9.81164V12.1492C14.9691 12.6259 14.9691 13.1334 14.9691 13.6256Z" fill="#3DD4ED"/>
<path d="M89.8359 9.15058V15.3482C89.8359 15.7327 89.7439 15.825 89.3909 15.7942C89.0225 15.7788 88.6542 15.7788 88.2859 15.7942C87.9329 15.825 87.7947 15.7019 87.8408 15.3482C87.8715 15.2098 87.9175 15.0099 87.7948 14.9484C87.672 14.8715 87.5645 15.0714 87.4418 15.1329C85.8149 16.2863 84.0654 16.2863 82.3465 15.5174C80.5815 14.7177 79.5839 13.226 79.4458 11.2575C79.2616 8.93528 80.1364 7.08983 82.2083 5.99794C84.004 5.07522 85.8456 5.21363 87.5185 6.39779C87.6106 6.47468 87.7027 6.62847 87.8254 6.56696C87.9482 6.50544 87.8715 6.33628 87.8715 6.21325C87.8715 5.10598 87.9022 3.96795 87.8715 2.86068C87.8715 2.56848 87.9482 2.47621 88.2245 2.50697C88.6389 2.53773 89.0532 2.53773 89.483 2.50697C89.7899 2.49159 89.8666 2.59924 89.8666 2.89144V9.15058H89.8359ZM81.4563 10.6885C81.4103 12.5339 82.8683 14.0564 84.7099 14.1025C86.4135 14.1025 87.9022 12.5647 87.9022 10.8115C87.9022 8.9968 86.3981 7.38203 84.6639 7.39741C82.8836 7.42817 81.441 8.90452 81.4563 10.6885Z" fill="#1D2939"/>
<path d="M91.0145 9.22723V3.24489C91.0145 2.50671 91.0145 2.50671 91.7205 2.50671H99.164C99.7318 2.50671 99.7318 2.50672 99.7318 3.10649C99.7318 3.3833 99.7011 3.64474 99.7318 3.93694C99.7625 4.25989 99.6551 4.38292 99.3021 4.38292C97.4297 4.36754 95.5727 4.38292 93.7003 4.36754C93.2552 4.36754 93.1631 4.49057 93.1631 4.9058C93.1938 5.87466 93.1938 6.87428 93.1631 7.84314C93.1631 8.22761 93.2859 8.28912 93.6389 8.28912C95.4806 8.25837 97.3223 8.28912 99.1333 8.28912C99.7011 8.28912 99.7011 8.28913 99.7165 8.87352C99.7165 9.16572 99.6858 9.44253 99.7165 9.71935C99.7472 10.0423 99.6244 10.1653 99.2867 10.1653C97.4451 10.15 95.5727 10.1653 93.7463 10.1653C93.1785 10.1653 93.1785 10.1653 93.1785 10.7343C93.1785 11.6571 93.2092 12.6106 93.1478 13.5333C93.1171 13.9331 93.2706 14.01 93.6389 14.01C95.5113 13.9793 97.3683 14.01 99.2407 13.9793C99.6244 13.9793 99.7625 14.1023 99.7165 14.4714C99.6858 14.8405 99.6858 15.1942 99.7165 15.5633C99.7472 15.8862 99.6244 16.0093 99.2714 16.0093C98.2278 15.9785 97.1688 16.0093 96.1252 16.0093H91.4749C91.0913 16.0093 90.9531 15.917 90.9531 15.4864C91.0145 13.3949 91.0145 11.3034 91.0145 9.22723Z" fill="#3DD4ED"/>
<path d="M40.4774 15.9938C39.7714 15.9938 39.1114 15.9784 38.4208 15.9938C38.1599 15.9938 38.1139 15.8246 38.0371 15.6709C37.6534 14.702 37.3005 13.7024 36.9475 12.7335C36.8247 12.3952 36.6866 12.2568 36.3029 12.2875C34.9523 12.3183 33.6171 12.3183 32.2665 12.2875C32.021 12.2568 31.7754 12.4259 31.7294 12.672C31.3457 13.687 30.9467 14.702 30.5783 15.717C30.5323 15.9169 30.3481 16.0399 30.1486 16.0246C29.5194 15.9938 28.9055 16.0246 28.2148 16.0246C28.5218 15.1941 28.8287 14.4098 29.1357 13.6409C30.5016 10.1653 31.8522 6.68967 33.1874 3.21407C33.3102 2.93725 33.4176 2.81422 33.7245 2.8296C34.1696 2.84498 34.5993 2.84498 35.0444 2.8296C35.2132 2.79884 35.382 2.90649 35.4434 3.06028C37.1009 7.33557 38.7585 11.6262 40.4467 15.9015L40.4774 15.9938ZM34.3691 5.72081C33.8013 7.21255 33.2795 8.58125 32.7577 9.94996C32.6809 10.1191 32.7577 10.1806 32.9265 10.1806H35.7657C35.9345 10.1806 35.9959 10.1499 35.9345 9.94996C35.4281 8.59663 34.9063 7.19717 34.3691 5.72081Z" fill="#1D2939"/>
<path d="M65.5992 11.5186H61.8391C61.4861 11.5186 61.4554 11.6108 61.5628 11.9184C62.0079 13.0718 62.8059 13.8407 64.0644 14.0253C65.2462 14.256 66.4279 13.7177 67.0572 12.7027C67.1185 12.5336 67.2874 12.4413 67.4562 12.472C68.024 12.5028 68.5612 12.472 69.1291 12.472C69.3593 12.472 69.4667 12.5182 69.3439 12.7489C68.6379 14.3636 67.5329 15.6093 65.7833 15.9476C61.9618 16.6858 59.4602 14.1329 59.3221 10.8726C59.1993 8.28902 61.087 6.25902 62.8827 5.69C65.6145 4.81342 68.5305 6.32054 69.4206 9.04258C69.5127 9.31939 69.5741 9.61159 69.6202 9.88841C69.6815 10.319 69.7276 10.7342 69.7429 11.1648C69.7736 11.457 69.6969 11.5647 69.3593 11.5647C68.1161 11.5032 66.8423 11.5186 65.5992 11.5186ZM64.4788 9.68848C65.3536 9.68848 66.2284 9.65772 67.1032 9.68848C67.5022 9.68848 67.4869 9.56545 67.3641 9.25788C66.8269 8.04296 65.9061 7.33553 64.5555 7.36629C63.205 7.39705 62.2381 8.08909 61.6702 9.31939C61.5475 9.58083 61.5475 9.70386 61.9004 9.70386C62.7599 9.6731 63.604 9.70386 64.4788 9.68848Z" fill="#1D2939"/>
<path d="M109.83 15.9939C108.878 16.2554 108.433 15.7325 108.034 14.9789C107.343 13.6717 106.53 12.4722 105.855 11.165C105.686 10.8574 105.624 10.9497 105.471 11.1958C104.627 12.7029 103.675 14.1946 102.755 15.6864C102.647 15.9017 102.402 16.0401 102.171 16.0247C101.68 15.9939 101.158 16.0247 100.667 16.0247C100.268 16.0247 100.238 15.9786 100.452 15.6248C101.496 13.9178 102.555 12.2415 103.614 10.5345C103.875 10.1039 104.136 9.68865 104.412 9.25804C104.566 9.0735 104.566 8.81205 104.412 8.61213C103.307 6.79744 102.187 4.95199 101.112 3.12191C101.02 2.95275 100.775 2.7682 100.898 2.5529C101.02 2.38373 101.281 2.50676 101.465 2.47601C101.65 2.46063 101.849 2.46063 102.033 2.47601C103.123 2.47601 103.123 2.47601 103.66 3.39873C104.305 4.506 104.934 5.59789 105.548 6.70517C105.686 6.9666 105.763 6.9666 105.901 6.70517C106.607 5.39797 107.435 4.19843 108.187 2.92199C108.341 2.59904 108.679 2.39911 109.032 2.44525C109.461 2.47601 109.891 2.47601 110.336 2.44525C110.459 2.44525 110.612 2.36836 110.689 2.52214C110.766 2.67593 110.597 2.75282 110.551 2.8451C109.4 4.73668 108.234 6.62827 107.052 8.51986C106.898 8.68902 106.898 8.95046 107.021 9.13501C108.326 11.288 109.599 13.4411 110.889 15.5941C111.057 15.8555 111.057 15.9786 110.704 15.9786C110.413 15.9786 110.106 15.9939 109.83 15.9939Z" fill="#3DD4ED"/>
<path d="M54.1253 15.994C51.4088 15.994 49.3369 14.2255 48.9379 11.7803C48.4161 8.73528 50.3345 6.24392 52.698 5.62877C55.4144 4.92135 57.9314 6.10551 58.929 8.9352C59.0057 9.16588 59.0057 9.24278 58.7448 9.24278C58.177 9.24278 57.6398 9.21202 57.0719 9.24278C56.9185 9.25816 56.765 9.16588 56.719 9.0121C55.9362 7.56649 54.248 7.1974 52.9435 7.65877C51.639 8.13551 50.8409 9.64262 50.9791 11.1651C51.1479 13.1336 52.9435 14.6253 55.0615 13.9487C55.7828 13.718 56.3813 13.2105 56.719 12.5338C56.7957 12.3339 56.9952 12.1955 57.2101 12.2263C57.7319 12.257 58.2537 12.2263 58.7602 12.2263C58.9443 12.2263 59.0824 12.2263 58.9904 12.4877C58.3304 14.2101 57.2561 15.5173 55.3684 15.9787C54.9694 16.0094 54.555 16.0094 54.1253 15.994Z" fill="#1D2939"/>
<path d="M78.9591 12.6261V15.6557C78.9591 15.9171 78.8823 16.0094 78.6214 15.9787C78.2071 15.9633 77.7927 15.9633 77.3629 15.9787C77.01 16.0094 76.8872 15.9018 76.9179 15.5327C76.9486 13.8103 76.9486 12.0571 76.9179 10.3347C76.9179 9.19664 76.35 8.35081 75.3831 7.9971C73.8944 7.42808 72.2983 8.58149 72.2676 10.227C72.2523 12.0263 72.2676 13.8256 72.2676 15.625C72.2676 15.9325 72.2216 16.0709 71.8839 16.0248C71.4389 15.994 71.0091 15.994 70.5641 16.0248C70.3339 16.0248 70.2264 15.9787 70.2264 15.7172C70.2264 13.7795 70.1957 11.8418 70.2571 9.90406C70.3185 7.81255 71.8532 6.05938 73.9098 5.72105C76.1352 5.41347 78.115 6.64377 78.7749 8.7199C78.913 9.16588 78.9898 9.64263 78.9591 10.1194C78.9591 10.9344 78.9591 11.7803 78.9591 12.6261Z" fill="#1D2939"/>
<path d="M43.7854 16.3277C42.9259 16.4354 42.0511 16.2201 41.3298 15.7433C40.5931 15.2358 40.0867 14.4669 39.8871 13.5903C39.8411 13.3596 39.8871 13.2827 40.1173 13.2827C40.6392 13.2827 41.1763 13.3135 41.6981 13.2827C41.8363 13.2673 41.9744 13.3596 42.0051 13.498C42.4501 14.6822 43.8621 14.9436 44.8443 14.6053C45.2587 14.4823 45.5657 14.1285 45.627 13.7133C45.6884 13.2981 45.5043 12.8829 45.1513 12.6676C44.7062 12.3139 44.1537 12.1754 43.6472 11.9601C43.0026 11.6987 42.3734 11.3758 41.7902 11.0067C40.2094 10.0686 40.2862 7.70022 41.8363 6.68522C43.2789 5.7625 45.5196 5.79325 46.7627 6.7775C47.2846 7.17734 47.6682 7.7156 47.8678 8.33075C47.9445 8.56143 47.9138 8.71522 47.6068 8.68446C47.1157 8.65371 46.6246 8.65371 46.1489 8.68446C45.9033 8.69984 45.6884 8.57681 45.5657 8.37689C45.0899 7.66947 44.123 7.48492 43.417 7.96166C43.2636 8.05393 43.1408 8.19234 43.0333 8.33075C42.7878 8.59219 42.8031 9.00742 43.064 9.25348C43.4017 9.60719 43.8314 9.86863 44.2918 10.007C45.0438 10.2531 45.7805 10.5607 46.4865 10.9451C47.4227 11.5142 47.9291 12.3446 47.8524 13.4211C47.7757 14.6822 47.1157 15.528 45.9647 16.0048C45.2894 16.3585 44.6141 16.3431 43.7854 16.3277Z" fill="#1D2939"/>
</svg>
