<svg width="111" height="32" viewBox="0 0 111 32" fill="none" xmlns="http://www.w3.org/2000/svg">
<path d="M17.386 3.13875C17.386 3.41694 17.353 3.69513 17.2707 3.95695L23.0167 7.21341C24.2351 5.96974 26.2273 5.95338 27.4785 7.16432C28.7298 8.37527 28.7463 10.3553 27.5279 11.599C27.1328 12.0081 26.6224 12.3027 26.0626 12.4499V18.9138C27.7584 19.3392 28.7627 21.0575 28.3347 22.743C27.9066 24.4285 26.1779 25.4267 24.482 25.0012C23.9223 24.8539 23.4119 24.5594 23.0003 24.1503L17.2543 27.4067C17.7153 29.0759 16.7109 30.7941 15.0316 31.2523C13.3523 31.7105 11.6235 30.7123 11.1625 29.0432C11.0967 28.7813 11.0473 28.5031 11.0473 28.225C11.0473 27.9468 11.0802 27.6686 11.1625 27.4067L5.41651 24.1503C4.19816 25.394 2.20599 25.4103 0.954711 24.1994C-0.296567 22.9884 -0.313031 21.0084 0.90532 19.7647C1.30046 19.3556 1.81085 19.061 2.37063 18.9138V12.4499C0.67482 12.0245 -0.329495 10.3062 0.0985739 8.62073C0.526643 6.93522 2.25538 5.93701 3.9512 6.36248C4.51098 6.50976 5.02137 6.80431 5.43297 7.21341L11.179 3.95695C10.718 2.28781 11.7223 0.569579 13.4016 0.111384C15.081 -0.346812 16.8097 0.6514 17.2707 2.32054C17.353 2.59873 17.386 2.87692 17.386 3.13875ZM13.4346 6.18247C12.8748 6.0352 12.3644 5.74064 11.9693 5.33154L6.23972 8.588C6.70071 10.2571 5.71286 11.9754 4.03352 12.4336C4.01705 12.4336 4.00059 12.4336 4.00059 12.4499V18.9138C4.56037 19.061 5.07076 19.3556 5.4659 19.7647L11.2119 16.4919C10.7509 14.8227 11.7388 13.1045 13.4181 12.6463C13.4346 12.6463 13.451 12.6463 13.4675 12.6299L13.4346 6.18247ZM15.0151 6.18247V12.6463C16.4146 13.0063 17.386 14.25 17.386 15.69C17.386 15.9682 17.353 16.2464 17.2707 16.5082L23.0167 19.7811C23.4119 19.372 23.9223 19.0774 24.482 18.9301V12.4499C23.0826 12.0899 22.1112 10.8463 22.1112 9.40621C22.1112 9.12802 22.1441 8.84983 22.2264 8.588L16.4969 5.31518C16.0853 5.75701 15.5749 6.05156 15.0151 6.18247ZM14.2249 18.8319C13.3687 18.8319 12.562 18.4883 11.9693 17.8828L6.23972 21.1393C6.3879 21.6793 6.3879 22.252 6.23972 22.7921L11.9857 26.0485C13.2041 24.8048 15.2127 24.7885 16.4475 25.9994C16.464 26.0158 16.4804 26.0322 16.4969 26.0485L22.2429 22.7921C22.0947 22.252 22.0947 21.6793 22.2429 21.1393L16.4969 17.8828C15.9042 18.4883 15.081 18.8319 14.2249 18.8319Z" fill="#050505"/>
<path d="M34.7518 5.3974C34.7353 5.47922 34.7189 5.54468 34.7353 5.6265V25.7216C34.7189 25.8198 34.7353 25.9017 34.7683 25.9998C34.7847 26.0489 34.8341 26.0817 34.8835 26.1144C34.9658 26.1471 35.0646 26.1471 35.1634 26.1471H45.1407C48.697 26.1471 51.5782 23.2834 51.5782 19.7487C51.5782 17.8996 50.7879 16.1486 49.3885 14.9377C51.3642 12.1721 50.7056 8.34294 47.9232 6.37925C46.8859 5.64286 45.6346 5.25012 44.3504 5.25012H35.1469C35.0646 5.25012 34.9988 5.25012 34.9164 5.26649C34.8341 5.28285 34.7847 5.33194 34.7518 5.3974ZM38.9502 17.5232H45.1242C46.3591 17.4905 47.3798 18.456 47.4128 19.6833C47.4457 20.9106 46.4743 21.9252 45.2395 21.9579C45.2066 21.9579 45.1572 21.9579 45.1242 21.9579H38.9502V17.5232ZM44.334 9.42298C45.4206 9.42298 46.3097 10.3066 46.3097 11.3867C46.3097 12.4667 45.4206 13.3504 44.334 13.3504H38.9502V9.42298H44.334Z" fill="#050505"/>
<path d="M55.9108 8.89914C57.2938 8.89914 58.4133 7.78638 58.4133 6.41179C58.4133 5.0372 57.2938 3.92444 55.9108 3.92444C54.5278 3.92444 53.4082 5.0372 53.4082 6.41179C53.4082 7.78638 54.5278 8.89914 55.9108 8.89914Z" fill="#050505"/>
<path d="M53.7035 10.6012C53.6705 10.683 53.6705 10.7812 53.6705 10.8794V25.7217C53.6541 25.8198 53.6705 25.9017 53.7035 25.9999C53.7199 26.0489 53.7693 26.0817 53.8187 26.1144C53.901 26.1471 53.9998 26.1471 54.0986 26.1471H57.7207C57.8195 26.1635 57.9018 26.1471 58.0006 26.1144C58.05 26.098 58.0829 26.0489 58.1159 25.9999C58.1488 25.918 58.1488 25.8198 58.1488 25.7217V10.8794C58.1653 10.7812 58.1488 10.6994 58.1159 10.6012C58.0994 10.5521 58.05 10.5194 58.0006 10.4867C57.9183 10.4539 57.8195 10.4539 57.7207 10.4539H54.0986C53.9998 10.4376 53.9175 10.4539 53.8187 10.4867C53.7693 10.5194 53.7199 10.5521 53.7035 10.6012Z" fill="#050505"/>
<path d="M60.7643 5.65955C60.7478 5.56136 60.7643 5.47954 60.7972 5.38136C60.8137 5.33226 60.8631 5.29954 60.9124 5.26681C60.9948 5.23408 61.0936 5.23408 61.1923 5.23408H64.551C64.6498 5.21772 64.7321 5.23408 64.8309 5.26681C64.8803 5.28317 64.9132 5.33226 64.9462 5.38136C64.9791 5.46318 64.9791 5.56136 64.9791 5.65955V11.1415C66.2468 10.3561 67.6957 9.94695 69.1939 9.94695C73.6887 9.94695 77.3437 13.6943 77.3437 18.309C77.3437 22.9237 73.6887 26.6711 69.1939 26.6711C67.5804 26.6711 66.0164 26.1802 64.6828 25.2801L63.2504 26.0984C63.2339 26.1147 63.201 26.1311 63.1845 26.1311C63.168 26.1311 63.1516 26.1474 63.1351 26.1474H61.2088C61.11 26.1638 61.0277 26.1474 60.9289 26.1147C60.8795 26.0984 60.8466 26.0493 60.8137 26.0002C60.7807 25.9183 60.7807 25.8202 60.7807 25.722L60.7643 5.65955ZM69.0458 22.4819C71.3014 22.4819 73.1289 20.6 73.1289 18.2927C73.1289 15.9853 71.3014 14.1198 69.0458 14.1198C66.7902 14.1198 64.9626 16.0017 64.9626 18.309C64.9626 20.6164 66.8066 22.4819 69.0458 22.4819Z" fill="#050505"/>
<path d="M87.3429 26.6709C91.9858 26.6709 95.7561 22.9235 95.7561 18.3089C95.7561 13.6942 91.9858 9.94678 87.3429 9.94678C82.7 9.94678 78.9297 13.6942 78.9297 18.3089C78.9297 22.9235 82.6835 26.6709 87.3429 26.6709ZM87.3429 22.4817C85.0214 22.4817 83.1281 20.6162 83.1281 18.2925C83.1281 15.9851 85.005 14.1033 87.3264 14.1033C89.6479 14.1033 91.5412 15.9688 91.5412 18.2761C91.5412 20.6162 89.6643 22.4817 87.3429 22.4817Z" fill="white"/>
<path d="M95.2263 10.4696H100.297L103.129 14.6097L105.961 10.4696H110.999L105.648 18.308L110.999 26.1464H105.928L103.096 22.0063L100.264 26.1464H95.1934L100.544 18.308L95.2263 10.4696Z" fill="#050505"/>
<path d="M87.3429 26.6709C91.9858 26.6709 95.7561 22.9235 95.7561 18.3089C95.7561 13.6942 91.9858 9.94678 87.3429 9.94678C82.7 9.94678 78.9297 13.6942 78.9297 18.3089C78.9297 22.9235 82.6835 26.6709 87.3429 26.6709Z" fill="#247BFF"/>
<path d="M87.2421 12.5157C87.0939 12.483 86.9622 12.5484 86.9128 12.6957L86.5671 13.9557L85.2993 13.6121C85.1512 13.5794 85.0194 13.6448 84.9701 13.7921L84.7066 14.8067C84.6737 14.954 84.7396 15.0849 84.8877 15.134L85.6451 15.3303L84.4267 19.8796L83.6694 19.6832C83.5212 19.6505 83.3895 19.7159 83.3401 19.8632L83.0767 20.8778C83.0437 21.0251 83.1096 21.156 83.2578 21.2051L84.5255 21.5487L84.1798 22.8087C84.1468 22.956 84.2127 23.0869 84.3609 23.136L84.8713 23.2669C85.0194 23.2997 85.1512 23.2342 85.2005 23.0869L85.5463 21.8269L86.5506 22.0887L86.2049 23.3488C86.1719 23.4797 86.2543 23.6269 86.386 23.676L86.8964 23.807C87.0445 23.8397 87.1762 23.7742 87.2256 23.6269L87.5714 22.3669L87.9171 22.4651C89.1849 22.8251 90.5185 22.0887 90.8807 20.8287C91.0947 20.0596 90.9301 19.2414 90.4032 18.6359C91.3582 17.834 91.4734 16.4104 90.6502 15.4612C90.3703 15.1503 90.0246 14.9049 89.6129 14.774L89.9587 13.5139C89.9916 13.383 89.9093 13.2357 89.7776 13.1866L89.2672 13.0557C89.1355 13.0066 88.9873 13.0884 88.9379 13.2357L88.5922 14.4958L87.5714 14.2339L87.9171 12.9739C87.9501 12.8266 87.8842 12.6957 87.736 12.6466L87.2421 12.5157ZM86.4189 18.5868L88.7403 19.2086C89.2178 19.3395 89.4977 19.8141 89.366 20.2887C89.2343 20.7632 88.7568 21.0414 88.2794 20.9105L85.9744 20.2887L86.4189 18.5868ZM89.0532 16.2467C89.4483 16.3613 89.6953 16.7704 89.58 17.1631C89.4648 17.5559 89.0532 17.8013 88.658 17.6868L86.7811 17.1958L87.1762 15.7394L89.0532 16.2467Z" fill="white"/>
</svg>
