<svg width="112" height="23" viewBox="0 0 112 23" fill="none" xmlns="http://www.w3.org/2000/svg">
<path d="M6.78895 9.3288L11.1003 5.01763L15.4139 9.33108L17.9226 6.82244L11.1003 0L4.28031 6.82016L6.78895 9.3288ZM2.50864 8.59131L5.01728 11.0998L2.50864 13.6086L0 11.0999L2.50864 8.59131ZM6.78895 12.8716L11.1003 17.1828L15.4138 12.8695L17.9238 15.3768L17.9226 15.3782L11.1003 22.2004L4.28014 15.3804L4.27663 15.3769L6.78895 12.8716ZM22.2008 11.101L19.6923 13.6096L17.1835 11.1012L19.6921 8.59236L22.2008 11.101Z" fill="#F3BA2F"/>
<path d="M13.6481 11.099H13.6491L11.1035 8.55333L9.22224 10.4346H9.22207L9.00605 10.6508L8.56015 11.0967L8.55664 11.1002L8.56015 11.1039L11.1035 13.6472L13.6491 11.1016L13.6504 11.1002L13.6481 11.099ZM26.1148 5.37943H31.571C32.9252 5.37943 33.9492 5.72696 34.6432 6.42203C35.1803 6.96033 35.4487 7.62751 35.4487 8.4234V8.45706C35.4487 8.79337 35.4072 9.09058 35.3235 9.34833C35.2453 9.59545 35.1327 9.83036 34.9892 10.0462C34.8536 10.2498 34.6905 10.4337 34.5047 10.5927C34.3225 10.7488 34.1235 10.8842 33.9115 10.9964C34.5922 11.2545 35.128 11.6047 35.5187 12.0476C35.9092 12.4907 36.1047 13.1045 36.1047 13.8892V13.9227C36.1047 14.461 36.0012 14.9318 35.7942 15.3356C35.5871 15.7391 35.2904 16.0756 34.9041 16.3447C34.5178 16.6139 34.0533 16.8155 33.5105 16.9502C32.9676 17.0847 32.366 17.1518 31.7058 17.1518H26.1148V5.37943ZM31.0255 10.1388C31.5975 10.1388 32.0516 10.0409 32.3878 9.84456C32.7241 9.64835 32.8922 9.3315 32.8922 8.89437V8.8607C32.8922 8.46846 32.7463 8.16862 32.4549 7.96102C32.1633 7.75358 31.7428 7.64978 31.1937 7.64978H28.6373V10.1388H31.0255ZM31.7151 14.8816C32.2869 14.8816 32.7351 14.7782 33.0605 14.5706C33.3856 14.3632 33.5484 14.0407 33.5484 13.6034V13.5699C33.5484 13.1775 33.3969 12.8664 33.0942 12.6364C32.7914 12.4069 32.3038 12.2918 31.631 12.2918H28.6373V14.8818H31.7151V14.8816ZM39.3542 5.37943H41.9443V17.1522H39.3542V5.37943ZM45.8673 5.37943H48.2551L53.7716 12.6281V5.37943H56.3279V17.1522H54.1249L48.4235 9.66816V17.1522H45.8673V5.37943ZM64.1693 5.29544H66.5573L71.603 17.1522H68.8952L67.8187 14.5119H62.8405L61.7643 17.1522H59.1234L64.1693 5.29544ZM66.8938 12.2243L65.3296 8.40674L63.7658 12.2243H66.8938ZM74.3988 5.37943H76.7872L82.3033 12.6281V5.37943H84.8597V17.1522H82.6567L76.9552 9.66816V17.1522H74.3988V5.37943ZM94.1809 17.3538C93.3172 17.3538 92.5159 17.1967 91.7757 16.883C91.0356 16.5693 90.3967 16.1403 89.8585 15.5963C89.3202 15.0526 88.8996 14.4107 88.5973 13.6707C88.2945 12.9306 88.1432 12.1402 88.1432 11.2992V11.2657C88.1432 10.4248 88.2945 9.6373 88.5973 8.90279C88.8998 8.16845 89.3202 7.52371 89.8585 6.96875C90.3965 6.41378 91.0414 5.9763 91.7924 5.65683C92.5434 5.33735 93.3736 5.17761 94.2818 5.17761C94.8308 5.17761 95.3324 5.22268 95.7866 5.3121C96.2407 5.40205 96.6526 5.52514 97.0229 5.68208C97.3848 5.83469 97.7288 6.02643 98.049 6.25387C98.3602 6.47625 98.6526 6.72379 98.9233 6.994L97.2754 8.89437C96.8151 8.47968 96.3473 8.15424 95.8709 7.91893C95.3941 7.68362 94.859 7.56579 94.2647 7.56579C93.7713 7.56579 93.3144 7.66118 92.8943 7.85178C92.4815 8.03672 92.1119 8.3059 91.8092 8.64205C91.5068 8.97836 91.2713 9.36815 91.1028 9.81089C90.935 10.254 90.851 10.7276 90.851 11.232V11.2655C90.851 11.77 90.935 12.2468 91.1028 12.6949C91.2713 13.1436 91.5034 13.5359 91.801 13.8722C92.0979 14.2085 92.4568 14.475 92.8771 14.6712C93.2979 14.8676 93.7603 14.9655 94.2647 14.9655C94.9377 14.9655 95.5062 14.8422 95.9715 14.5955C96.4369 14.3491 96.8996 14.0126 97.3592 13.5864L99.0074 15.2515C98.7159 15.5661 98.4011 15.8584 98.0657 16.1259C97.7357 16.3868 97.3774 16.6098 96.9975 16.7904C96.6108 16.9753 96.1872 17.1157 95.728 17.2107C95.2679 17.306 94.7524 17.3538 94.1809 17.3538ZM102.056 5.37943H110.919V7.68362H104.612V10.0718H110.162V12.3758H104.612V14.8482H111.003V17.1522H102.056V5.37943Z" fill="#F3BA2F"/>
</svg>
