<svg width="111" height="10" viewBox="0 0 111 10" fill="none" xmlns="http://www.w3.org/2000/svg">
<path d="M98.5492 8.52382C99.1452 9.01359 102.423 11.3603 107.567 8.63662C111.288 6.39214 111.195 1.5262 110.838 0.0559039C110.713 0.26994 106.396 7.60115 98.5492 8.52382ZM110.838 0.0549398C110.792 0.0404779 106.006 -0.464724 101.274 1.89642C98.3364 3.36189 97.9469 5.50803 98.0813 6.94169C104.959 6.342 110.681 0.223662 110.838 0.0549398Z" fill="#97C554"/>
<path d="M110.838 0.0549398C110.792 0.0404779 106.006 -0.464724 101.274 1.89642C98.3364 3.36189 97.9469 5.50803 98.0813 6.94169C104.959 6.342 110.681 0.223662 110.838 0.0549398Z" fill="#709B30"/>
<path d="M7.67296 8.23764H2.31458V6.0269H7.67296C9.01194 6.0269 9.69636 6.52342 9.69636 7.16649C9.69636 7.78642 9.02687 8.23764 7.67296 8.23764ZM7.49875 4.84295H2.31458V2.98122H7.49875C8.9099 2.98122 9.46365 3.36687 9.46365 3.89521C9.46365 4.37728 8.82279 4.84295 7.49875 4.84295ZM8.86759 5.40696C11.1249 5.35008 11.94 4.4814 11.94 3.53463C11.9388 2.49627 10.876 1.63916 8.28396 1.63916H0V9.55752H8.5316C10.657 9.55752 12.2449 8.8701 12.2449 7.3921C12.2449 6.34313 11.3564 5.45228 8.86634 5.40696H8.86759ZM14.9788 1.63916V9.55752H17.2971V1.63916H14.9788ZM26.6762 3.13934H31.7782V1.63916H19.2708V3.13934H24.3666V9.55752H26.6812L26.6762 3.13934ZM33.7543 1.63916V9.55752H36.0689V6.47232H41.4995V5.16979H36.0689V3.00436H44.8929V1.63916H33.7543ZM46.7682 1.63916V9.55752H49.0828V1.63916H46.7682ZM54.5047 3.56741L62.1826 9.55752H64.8033V1.63916H62.5174V7.34678L55.1505 1.63916H52.21V9.55752H54.5047V3.56741ZM67.9317 1.63916V9.55752H79.2558V8.22703H70.2463V6.05003H75.647V4.82077H70.2463V3.00436H79.2582V1.63916H67.9317ZM94.761 1.63916H91.7035L87.8023 4.42548L83.9285 1.63916H80.8274L86.2729 5.54194L80.6246 9.55752H83.6821L87.7724 6.63622L91.8491 9.55752H94.9601L89.3018 5.53133L94.761 1.63916Z" fill="#A8A8A8"/>
</svg>
