<svg width="111" height="19" viewBox="0 0 111 19" fill="none" xmlns="http://www.w3.org/2000/svg">
<path d="M9.45642 0.338379H19.8486C19.8423 0.475833 19.7948 0.608214 19.7123 0.718324C19.3605 1.32166 19.0439 1.94963 18.6982 2.55297C18.2092 3.41928 17.7519 4.30142 17.255 5.16422C16.9401 5.78515 16.5848 6.38673 16.2488 6.9971C14.2295 6.9971 12.2101 6.9971 10.1908 6.9971C10.0853 6.9971 9.98061 7.00238 9.87507 7.00853C9.78712 7.24072 9.64112 7.44389 9.52327 7.66201C9.36935 7.91179 9.24446 8.17827 9.09231 8.42805C8.93136 8.76402 8.70885 9.06481 8.54702 9.3999C8.2128 9.96718 7.90058 10.5433 7.57341 11.1167C7.23216 11.703 6.89853 12.2976 6.57253 12.9003C6.43457 13.114 6.30746 13.3344 6.19171 13.5608C5.50833 14.7499 4.84694 15.9496 4.16269 17.1378C4.10465 17.2655 4.0282 17.384 3.93578 17.4896C2.76604 17.4817 1.5963 17.4896 0.426559 17.4896C0.282488 17.4923 0.139271 17.5124 0 17.5494C0 17.2257 0.216358 16.9663 0.362355 16.6945C0.538256 16.3295 0.773084 15.9909 0.949864 15.625C2.35179 13.1167 3.73877 10.5995 5.1363 8.08944C5.45292 7.54415 5.72469 6.98743 6.04307 6.45269C6.44061 5.74909 6.81088 5.02965 7.22512 4.33396C7.35705 4.04285 7.53471 3.77636 7.67983 3.49228C8.19521 2.57496 8.70093 1.65236 9.21456 0.735035C9.2755 0.591775 9.35697 0.458154 9.45642 0.338379V0.338379Z" fill="#EB4A60"/>
<path d="M21.4957 4.03162C22.1879 2.8223 22.8563 1.59979 23.5582 0.395752H27.3119C27.3666 0.398518 27.4208 0.407067 27.4737 0.421258C27.3488 0.610351 27.2442 0.810878 27.1342 1.00789C26.2289 2.63262 25.3263 4.25824 24.4262 5.88473C24.0481 6.547 23.6963 7.22422 23.3128 7.88297L23.275 7.89616L23.2679 7.97883C21.5031 11.145 19.7441 14.3136 17.9909 17.4845C14.545 17.488 11.0988 17.488 7.65234 17.4845C7.84847 17.0747 8.08066 16.6833 8.29878 16.2849C9.2803 14.4801 10.2873 12.6912 11.2548 10.8865C13.372 10.883 15.4893 10.883 17.6066 10.8865C18.9144 8.60856 20.1941 6.31305 21.4922 4.03162H21.4957Z" fill="#595FB5"/>
<path d="M60.2344 0.349121V17.6929H63.2396V5.49686L68.7216 13.5294L74.1596 5.306V17.6929H77.2528V0.349121H73.9256L68.7436 8.35524L63.5035 0.349121H60.2344Z" fill="#595FB5"/>
<path d="M46.1797 4.82251H48.1436V17.8392H46.1797V4.82251Z" fill="#595FB5"/>
<path d="M46.0117 0H48.3134V2.18381H46.0117V0Z" fill="#595FB5"/>
<path d="M51.8941 1.09216H53.9459V4.82214H57.9916V6.64007H53.9459V14.3727C53.9424 14.6706 54.0115 14.965 54.1473 15.2302C54.4947 15.8898 55.4384 16.6726 57.9916 15.7579V17.443C57.9916 17.443 55.661 18.7623 53.5502 17.5609C53.5502 17.5609 52.5018 17.1158 52.0612 15.6136C51.9467 15.2112 51.8904 14.7945 51.8941 14.3762V6.61105L50.1641 6.64007V4.82214H51.9081L51.8941 1.09216Z" fill="#595FB5"/>
<path d="M80.4219 0.349121V17.8099H93.4676V14.9955H83.603V10.3632H92.2952V7.59271H83.5881V3.18112H93.3655V0.349121H80.4219Z" fill="#595FB5"/>
<path d="M94.6931 0.349121H98.409L102.675 6.47926L106.907 0.349121H110.623L104.554 8.86448L111.001 17.795H107.087L102.69 11.2726L98.0792 17.8099H94.3633L100.718 8.94187L94.6931 0.349121Z" fill="#595FB5"/>
<path d="M40.168 8.75135C40.168 8.75135 43.0413 7.66693 42.8654 4.54469C42.8654 4.54469 42.8417 1.54206 39.4609 0.615065C38.8988 0.46445 38.319 0.389908 37.7371 0.39343H29.6289L29.6509 17.7372H38.38C38.38 17.7372 43.4881 17.6273 43.8478 13.0759C43.8478 13.0759 44.2137 9.89471 40.168 8.75135V8.75135ZM31.7248 2.1841H36.8998C40.9596 2.17003 40.8426 5.02841 40.8426 5.02841C40.9033 8.28961 37.1777 8.22365 37.1777 8.22365H31.7248V2.1841ZM38.0572 15.9044H31.7248V9.86568H37.7793C41.8391 9.85073 41.7221 12.7091 41.7221 12.7091C41.7828 15.9703 38.0572 15.9044 38.0572 15.9044Z" fill="#595FB5"/>
</svg>
