<svg width="111" height="27" viewBox="0 0 111 27" fill="none" xmlns="http://www.w3.org/2000/svg">
<path d="M26.3125 18.6757V0H7.63672V5.52876H11.039V3.4208H22.8917V15.2734H18.6757V7.65521H0V26.331H18.6757V20.8022H15.2734V22.9101H3.4393V11.0575H7.65521V18.6942H26.3125V18.6757ZM15.2734 15.2549H11.0575V11.039H15.2734V15.2549Z" fill="#1C6FE8"/>
<path d="M108.89 9.11791H107.207V9.09942H107.244V7.02844H110.961V10.7451H108.89V9.11791Z" fill="#1C6FE8"/>
<path d="M43.9879 13.6298C43.7476 13.371 43.4517 13.1676 43.1374 13.0011C42.9894 12.9272 42.823 12.8532 42.6566 12.7977L42.7675 12.7423C42.9709 12.6313 43.1559 12.5019 43.3223 12.354C43.5996 12.0766 43.803 11.7253 43.914 11.3555C44.0434 10.9487 44.0989 10.5234 44.0989 10.1166C44.0989 9.70976 44.0434 9.30297 43.8955 8.91466C43.766 8.56333 43.5626 8.24899 43.3038 8.00861C42.7306 7.45388 41.769 7.06557 40.4747 7.06557H33.707V19.0846H40.9739C41.5471 19.1031 42.1019 19.0107 42.6381 18.8073C43.0819 18.6408 43.4887 18.382 43.8215 18.0491C44.0989 17.7718 44.3208 17.4204 44.4502 17.0321C44.5981 16.6253 44.6721 16.1816 44.6721 15.7378C44.6721 15.331 44.6166 14.9242 44.5057 14.5359C44.4132 14.203 44.2283 13.8887 43.9879 13.6298ZM41.3253 16.4034C41.1958 16.4959 41.0479 16.5699 40.8815 16.6068C40.6781 16.6623 40.4562 16.6808 40.2343 16.6808H36.5361V14.24H40.2713C40.6411 14.2215 40.9924 14.3325 41.3068 14.5544C41.4362 14.6653 41.5287 14.8132 41.5841 14.9612C41.6396 15.1461 41.6766 15.3495 41.6766 15.5344C41.6766 15.7008 41.6581 15.8857 41.5841 16.0521C41.5287 16.2001 41.4362 16.311 41.3253 16.4034ZM41.0109 10.0981C41.0849 10.283 41.1219 10.4679 41.1219 10.6528C41.1219 10.8562 41.0849 11.0781 41.0109 11.2815C40.9554 11.4294 40.863 11.5773 40.752 11.6883C40.6596 11.7807 40.5302 11.8547 40.4192 11.8917C40.2898 11.9287 40.1418 11.9656 39.9939 11.9472H36.5361V9.4324H39.735C39.9384 9.4324 40.1418 9.4509 40.3452 9.50637C40.4932 9.54335 40.6411 9.61731 40.752 9.70976C40.8815 9.80222 40.9554 9.95014 41.0109 10.0981ZM46.9095 19.0846H47.0759H49.8495V7.06557H46.928V19.0846H46.9095ZM51.6062 9.52485H55.4153V19.0846H58.3553V9.54335H62.1829V7.06557H51.6247V9.52485H51.6062ZM63.2184 9.52485H67.0275V19.0846H69.9491V9.54335H73.7767V7.06557H63.2184V9.52485ZM85.3704 12.8347C85.6663 12.3355 85.8142 11.6143 85.8142 10.7083C85.8142 10.283 85.7772 9.8392 85.6848 9.41391C85.6108 9.06259 85.4629 8.72975 85.278 8.4339C85.0191 7.99012 84.6123 7.6203 84.1315 7.39841C83.5398 7.13954 82.8927 7.0101 82.227 7.02859H75.5518V19.0476H78.3809V14.4989H81.21L83.5029 19.0846H86.7388L83.9651 13.9627C84.261 13.8702 84.5383 13.7408 84.7787 13.5374C85.0191 13.334 85.2225 13.0936 85.3704 12.8347ZM82.8372 11.7438C82.8002 11.7992 82.7632 11.8547 82.7078 11.9102C82.5968 11.9841 82.4674 12.0581 82.3379 12.0766C82.1715 12.1136 81.9866 12.1506 81.8017 12.1321H78.3994V9.50637H81.6538C81.9311 9.48788 82.19 9.54335 82.4489 9.6358C82.5413 9.67278 82.6153 9.72825 82.6893 9.80222C82.7632 9.85769 82.8187 9.95015 82.8557 10.0241C82.8742 10.0796 82.8927 10.1166 82.9111 10.172C82.9666 10.4124 82.9851 10.6528 82.9851 10.8932C82.9851 11.0411 82.9666 11.189 82.9481 11.337C82.9296 11.5034 82.8927 11.6328 82.8372 11.7438ZM91.3799 14.3325H97.5744V11.7992H91.3799V9.58033H97.8148V7.04708H88.5508V19.0661H88.7173H97.8887V16.5514H91.3799V14.3325ZM106.561 12.7977L105.285 10.9856L102.641 7.04708H99.257L103.417 13.0011L99.0167 19.0846H102.327L102.4 18.9922L105.026 15.22L107.633 19.0846H110.999L106.561 12.7977Z" fill="#18222F"/>
</svg>
