<svg width="111" height="38" viewBox="0 0 111 38" fill="none" xmlns="http://www.w3.org/2000/svg">
<path d="M88.9531 23.2674V3.54248H92.9179V23.2674H88.9531Z" fill="#F7A600"/>
<path d="M42.7459 29.1265H34.2461V9.40161H42.4041C46.3689 9.40161 48.6791 11.5624 48.6791 14.9425C48.6791 17.1304 47.1954 18.5443 46.1685 19.0151C47.3943 19.5689 48.9634 20.8152 48.9634 23.4484C48.9634 27.1317 46.3689 29.1265 42.7459 29.1265ZM42.0902 12.8375H38.2109V17.3809H42.0902C43.7728 17.3809 44.7143 16.4665 44.7143 15.1084C44.7143 13.7519 43.7728 12.8375 42.0902 12.8375ZM42.3466 20.8439H38.2109V25.6921H42.3466C44.1441 25.6921 44.9986 24.5846 44.9986 23.2537C44.9986 21.9243 44.1425 20.8439 42.3466 20.8439Z" fill="#17181B"/>
<path d="M61.0605 21.037V29.1265H57.1236V21.037L51.0195 9.40161H55.3261L59.12 17.3522L62.8565 9.40161H67.1631L61.0605 21.037Z" fill="#17181B"/>
<path d="M78.3943 29.1265H69.8945V9.40161H78.0525C82.0173 9.40161 84.3275 11.5624 84.3275 14.9425C84.3275 17.1304 82.8438 18.5443 81.8169 19.0151C83.0427 19.5689 84.6119 20.8152 84.6119 23.4484C84.6119 27.1317 82.0173 29.1265 78.3943 29.1265ZM77.7387 12.8375H73.8593V17.3809H77.7387C79.4213 17.3809 80.3627 16.4665 80.3627 15.1084C80.3627 13.7519 79.4213 12.8375 77.7387 12.8375ZM77.995 20.8439H73.8593V25.6921H77.995C79.7925 25.6921 80.647 24.5846 80.647 23.2537C80.647 21.9243 79.7925 20.8439 77.995 20.8439Z" fill="#17181B"/>
<path d="M105.696 12.8375V29.128H101.731V12.8375H96.4258V9.40161H111.002V12.8375H105.696Z" fill="#17181B"/>
<path d="M0.615974 29.5869C0.738426 29.9074 0.858717 30.228 0.976863 30.549C1.26529 31.2274 1.61524 31.8774 2.02219 32.4904C1.42489 30.7774 0.7882 29.0787 0.112193 27.3944C0.212346 28.1393 0.380821 28.873 0.615472 29.586L0.615974 29.5869ZM0.092793 27.2713C0.863375 29.1173 1.5909 30.9814 2.27533 32.8637C2.47453 33.1367 2.68462 33.4033 2.9056 33.6633C2.02101 31.1533 1.05768 28.6733 0.015625 26.223C0.0290614 26.5737 0.0574423 26.9221 0.100013 27.2713" fill="#F6A700"/>
<path fill-rule="evenodd" clip-rule="evenodd" d="M0.00720809 26.1665C1.17279 28.7927 2.22492 31.4053 3.16814 33.9581C3.34439 34.1505 3.52634 34.3371 3.71398 34.5173C2.59249 31.4193 1.35673 28.3675 0.00672238 25.3616C-0.00224079 25.6291 -0.00224079 25.8967 0.00672238 26.1665" fill="#F6A700"/>
<path fill-rule="evenodd" clip-rule="evenodd" d="M0.0117188 25.3228C1.45531 28.4213 2.7827 31.5719 3.99398 34.7741C4.15833 34.9223 4.32537 35.0649 4.49508 35.2024C3.16284 31.6199 1.68249 28.0981 0.0542732 24.6375C0.0333647 24.8647 0.0191741 25.0914 0.0117188 25.3176" fill="#F6A700"/>
<path fill-rule="evenodd" clip-rule="evenodd" d="M0.0545184 24.6167C1.78181 28.1537 3.35983 31.759 4.78858 35.4328C4.94389 35.5498 5.10087 35.6621 5.25969 35.7699C3.7269 31.7741 2.01552 27.857 0.125452 24.0183C0.0963342 24.217 0.0739347 24.4173 0.0507812 24.6182" fill="#F6A700"/>
<path fill-rule="evenodd" clip-rule="evenodd" d="M0.134303 24.0029C2.22505 28.0878 4.03276 32.143 5.57912 35.9753C5.72856 36.0691 5.87784 36.1595 6.02711 36.2466C4.29781 31.8935 2.3631 27.6325 0.223165 23.4634C0.188066 23.6424 0.158211 23.823 0.132812 24.0029" fill="#F6A700"/>
<path fill-rule="evenodd" clip-rule="evenodd" d="M0.222656 23.4539C2.46874 27.6776 4.51335 32.0017 6.35675 36.4262C6.49932 36.5017 6.6419 36.5736 6.78682 36.6431C4.86233 31.9746 2.70681 27.4072 0.328673 22.9583C0.289855 23.1229 0.254002 23.2877 0.224147 23.4539" fill="#F6A700"/>
<path fill-rule="evenodd" clip-rule="evenodd" d="M0.328125 22.9526C2.81856 27.4555 5.087 32.0728 7.13345 36.8047C7.27133 36.865 7.41072 36.9227 7.55162 36.9776C5.43028 32.0283 3.05848 27.1926 0.445601 22.4902C0.404119 22.6413 0.365049 22.7948 0.328376 22.9504" fill="#F6A700"/>
<path fill-rule="evenodd" clip-rule="evenodd" d="M0.449219 22.4897C3.1767 27.2372 5.66562 32.1133 7.91613 37.1177C8.04882 37.1646 8.18301 37.2089 8.31855 37.2508C6.00002 32.0546 3.41578 26.9842 0.576161 22.0602C0.530608 22.2045 0.489042 22.3481 0.449219 22.4917" fill="#F6A700"/>
<path fill-rule="evenodd" clip-rule="evenodd" d="M0.574219 22.0558C3.53212 27.018 6.24268 32.1269 8.69591 37.3632C8.82592 37.3995 8.95726 37.4321 9.08945 37.4641C6.56954 32.0492 3.77303 26.7704 0.711615 21.6495C0.66308 21.784 0.617527 21.9185 0.574722 22.0546" fill="#F6A700"/>
<path fill-rule="evenodd" clip-rule="evenodd" d="M9.48418 37.5507C9.61167 37.5765 9.73934 37.6004 9.86733 37.6224C7.14487 32.0213 4.14012 26.5652 0.864939 21.2759L0.857467 21.2645C0.807692 21.3915 0.760397 21.5201 0.714844 21.6484C3.89669 26.798 6.81952 32.0983 9.48317 37.5492" fill="#F6A700"/>
<path d="M10.2673 37.6824C10.3917 37.6997 10.5162 37.7156 10.6407 37.727C7.71 31.9622 4.49515 26.3501 1.00836 20.9118L1.0009 20.9012C0.948633 21.0216 0.898858 21.1427 0.851562 21.2646L0.858281 21.276C4.25574 26.5863 7.39185 32.0548 10.2666 37.6815L10.2673 37.6824Z" fill="#F6A700"/>
<path d="M11.0547 37.7614C11.175 37.7697 11.2968 37.7739 11.4158 37.7795C8.16307 31.6807 4.72238 25.9031 1.16891 20.5675L1.15995 20.554C1.1062 20.6688 1.05393 20.7852 1.00391 20.9016L1.00987 20.9121C4.61935 26.3645 7.96722 31.9822 11.0536 37.7651" fill="#F6A700"/>
<path d="M11.8439 37.7872C11.9611 37.7872 12.0784 37.7834 12.1964 37.7797C8.72501 31.5681 5.07524 25.6752 1.32684 20.2299C1.32659 20.2276 1.32659 20.2253 1.32684 20.2231C1.27083 20.3327 1.21632 20.4438 1.16406 20.5548L1.17301 20.5684C5.39188 26.7089 8.98268 32.6729 11.8507 37.7866" fill="#F6A700"/>
<path d="M12.631 37.7581C12.7453 37.749 12.8604 37.74 12.9753 37.7279C9.40612 31.6208 5.57641 25.6825 1.48599 19.913C1.43074 20.0157 1.37624 20.1192 1.32422 20.2228V20.229C5.34488 25.9031 9.11393 31.746 12.6314 37.7576" fill="#F6A700"/>
<path fill-rule="evenodd" clip-rule="evenodd" d="M13.7468 37.6237C9.96364 31.4523 5.93474 25.4465 1.66019 19.6061C1.6027 19.7043 1.5467 19.8041 1.49219 19.9038C5.70203 25.6616 9.67531 31.5858 13.4124 37.6762C13.5236 37.6603 13.6364 37.6437 13.7483 37.6242" fill="#F6A700"/>
<path fill-rule="evenodd" clip-rule="evenodd" d="M14.5095 37.4703C10.5148 31.2581 6.29104 25.2061 1.83827 19.3143C1.77913 19.4096 1.72099 19.5054 1.66406 19.6016C6.05799 25.4218 10.232 31.4029 14.186 37.5451C14.2942 37.5217 14.4026 37.4974 14.5095 37.4694" fill="#F6A700"/>
<path fill-rule="evenodd" clip-rule="evenodd" d="M15.2699 37.2605C11.0621 31.0299 6.64684 24.951 2.02435 19.0238C1.9632 19.115 1.90289 19.2078 1.84375 19.3019C7.01156 25.9131 11.4759 32.2093 14.9533 37.3515L15.2699 37.2563" fill="#F6A700"/>
<path fill-rule="evenodd" clip-rule="evenodd" d="M15.7075 37.1143C15.8092 37.0789 15.9099 37.0387 16.0108 37.0026L15.8242 36.738C11.4679 30.6057 6.93235 24.6101 2.21722 18.7515C2.15456 18.8396 2.09257 18.9293 2.03125 19.0204C6.77067 24.9106 11.3297 30.9424 15.708 37.1158" fill="#F6A700"/>
<path fill-rule="evenodd" clip-rule="evenodd" d="M16.4417 36.8256C16.5402 36.7834 16.6366 36.7388 16.7351 36.6949L16.3581 36.1894C11.8584 30.1676 7.20864 24.2659 2.4084 18.484C2.34423 18.5701 2.28074 18.6578 2.21875 18.7455C7.11549 24.6447 11.8564 30.6714 16.4417 36.8256Z" fill="#F6A700"/>
<path fill-rule="evenodd" clip-rule="evenodd" d="M17.4289 36.3394C13.205 30.9517 8.16032 24.7136 2.60416 18.2268C2.53849 18.3107 2.47348 18.3954 2.41016 18.4808C7.45064 24.3754 12.3635 30.3786 17.1483 36.4899C17.2416 36.4416 17.3356 36.3924 17.4289 36.3389" fill="#F6A700"/>
<path d="M18.1115 35.9314C13.1153 29.8582 8.01581 23.8729 2.81332 17.9754C2.74614 18.0569 2.67896 18.139 2.61328 18.2224C7.79031 24.0935 12.8678 30.0532 17.8456 36.1017C17.9358 36.0467 18.0247 35.9908 18.1122 35.934L18.1115 35.9314ZM18.7694 35.4805C13.5922 29.4991 8.34284 23.5829 3.0209 17.732C2.9507 17.8075 2.88285 17.8914 2.81566 17.973C8.64508 24.3746 14.0077 30.4621 18.5139 35.6632C18.5991 35.6042 18.6842 35.5429 18.7686 35.4802L18.7694 35.4805ZM19.3928 34.98C14.7395 29.8696 9.20951 23.858 3.23601 17.4945C3.16514 17.5699 3.09411 17.6501 3.02542 17.728C8.98651 24.0762 14.5058 30.0775 19.1539 35.1809C19.2354 35.116 19.3156 35.0495 19.395 34.9795L19.3928 34.98ZM19.9864 34.4379C14.4924 28.6972 8.984 22.9713 3.46152 17.26C3.38679 17.3354 3.31224 17.4111 3.24489 17.4867C9.31807 23.7667 14.9821 29.6593 19.7618 34.6517C19.8363 34.5813 19.911 34.5081 19.9858 34.4348L19.9864 34.4379ZM20.5405 33.8554C15.6392 28.9884 9.85234 23.2199 3.68551 17.0341C3.61079 17.1097 3.53624 17.1808 3.46152 17.2556C9.63505 23.4466 15.4234 29.2174 20.3299 34.0874C20.4046 34.0118 20.4718 33.9363 20.5428 33.8561L20.5405 33.8554ZM21.058 33.2389C15.3055 27.8065 9.59283 22.3324 3.91989 16.8166C3.84534 16.8868 3.77062 16.9587 3.69154 17.0307C9.94046 23.1136 15.8431 28.7445 20.8608 33.4853C20.928 33.4037 20.9938 33.3216 21.058 33.2397V33.2389ZM21.5328 32.5898C15.6764 27.3332 9.88501 22.0038 4.15897 16.6014L3.92442 16.8108C9.66772 22.2298 15.4767 27.5759 21.3513 32.8496L21.5321 32.5903L21.5328 32.5898ZM21.963 31.9102C16.0239 26.8396 10.1717 21.6678 4.40675 16.3948C4.3255 16.4598 4.24508 16.5293 4.16567 16.5982C9.95454 21.8944 15.8325 27.0887 21.8 32.1815C21.8551 32.0914 21.9104 32.0016 21.9635 31.9102H21.963ZM22.3458 31.202C16.3449 26.3275 10.4501 21.3233 4.66174 16.1893C4.57948 16.255 4.49521 16.3201 4.41379 16.3881C10.2328 21.5507 16.1609 26.5832 22.1982 31.4854C22.248 31.3909 22.2977 31.2956 22.3475 31.2005" fill="#F6A700"/>
<path fill-rule="evenodd" clip-rule="evenodd" d="M22.5457 30.7786C22.5897 30.6804 22.6328 30.5805 22.6742 30.4808L22.2366 30.143C16.346 25.5778 10.5742 20.862 4.9209 15.9956C4.83378 16.0585 4.74833 16.1233 4.66406 16.1884C10.4957 21.211 16.4562 26.0745 22.5457 30.7786Z" fill="#F6A700"/>
<path fill-rule="evenodd" clip-rule="evenodd" d="M22.8463 30.0384C22.8851 29.9363 22.921 29.8344 22.956 29.7301C22.8927 29.684 22.8292 29.6385 22.7664 29.5902C16.7734 25.1733 10.9147 20.5773 5.19015 15.8018C5.10153 15.8638 5.0134 15.9266 4.92578 15.99C10.6723 20.7889 16.5596 25.4092 22.5879 29.851L22.8463 30.0421" fill="#F6A700"/>
<path fill-rule="evenodd" clip-rule="evenodd" d="M23.1873 28.9641C18.1374 25.4236 11.957 20.8777 5.46315 15.6149C5.37285 15.6737 5.28171 15.7349 5.19141 15.7977C11.0041 20.5009 16.9724 24.9963 23.0961 29.2838C23.1283 29.178 23.1585 29.0715 23.1866 28.9641" fill="#F6A700"/>
<path fill-rule="evenodd" clip-rule="evenodd" d="M23.3761 28.1885C17.3463 24.162 11.4737 19.9105 5.75802 15.4341C5.6632 15.4899 5.56904 15.5504 5.47656 15.6103C11.2544 20.1411 17.1967 24.4433 23.3037 28.5171C23.3299 28.4067 23.3535 28.2972 23.3783 28.186" fill="#F6A700"/>
<path fill-rule="evenodd" clip-rule="evenodd" d="M23.5116 27.3977C17.5342 23.5928 11.7179 19.5461 6.06222 15.2576C5.9627 15.3135 5.86519 15.3708 5.76953 15.4298C12.1687 20.3035 18.3274 24.4699 23.4615 27.7358C23.4794 27.6232 23.4967 27.5091 23.5114 27.3956" fill="#F6A700"/>
<path fill-rule="evenodd" clip-rule="evenodd" d="M23.589 26.6016C17.6897 23.0195 11.9526 19.1824 6.37786 15.0902H6.37115C6.26879 15.144 6.16726 15.1998 6.06641 15.2566C11.7246 19.4126 17.556 23.311 23.5607 26.9515C23.5731 26.8344 23.5823 26.7172 23.5905 26.6" fill="#F6A700"/>
<path fill-rule="evenodd" clip-rule="evenodd" d="M23.6073 26.158L23.6133 25.799C17.8159 22.4389 12.18 18.8156 6.70528 14.929L6.69288 14.9198C6.58281 14.9737 6.47424 15.029 6.36719 15.0853H6.37389C11.7203 18.9034 17.5063 22.6208 23.6075 26.1561" fill="#F6A700"/>
<path d="M23.6094 25.3658C23.6049 25.2427 23.5989 25.1194 23.5906 24.9963C17.9159 21.8534 12.3974 18.4416 7.03508 14.7606C6.92165 14.811 6.81108 14.8649 6.69531 14.92L6.70888 14.9292C11.9481 18.5484 17.621 22.0511 23.6079 25.3658" fill="#F6A700"/>
<path fill-rule="evenodd" clip-rule="evenodd" d="M23.5599 24.5729C23.5474 24.4459 23.5338 24.3182 23.5172 24.1912C17.9952 21.2694 12.625 18.0768 7.40647 14.6134L7.39524 14.606C7.27579 14.6563 7.15718 14.7067 7.03906 14.757L7.04962 14.7631C12.3856 18.3134 17.8961 21.5875 23.5599 24.5729Z" fill="#F6A700"/>
<path d="M23.4557 23.7804C23.4348 23.6493 23.4116 23.5192 23.3863 23.3899C18.0374 20.6788 12.8259 17.6984 7.77149 14.4595C7.64466 14.5064 7.51918 14.5548 7.39453 14.6061L7.40559 14.6138C12.5975 17.9468 17.956 21.0066 23.4594 23.7809" fill="#F6A700"/>
<path fill-rule="evenodd" clip-rule="evenodd" d="M23.2001 22.5925C18.0547 20.0927 13.0372 17.3317 8.16676 14.3202C8.0339 14.3648 7.90088 14.4109 7.76953 14.4601C12.7959 17.5764 17.9802 20.4244 23.3006 22.9923C23.2693 22.858 23.2361 22.7242 23.2011 22.591" fill="#F6A700"/>
<path fill-rule="evenodd" clip-rule="evenodd" d="M22.9587 21.7927C18.0467 19.503 13.2515 16.9651 8.591 14.1885C8.44909 14.2292 8.30652 14.2722 8.16797 14.3192C13.0012 17.2091 17.9809 19.8406 23.0865 22.203C23.0447 22.0655 23.0014 21.9287 22.955 21.7927" fill="#F6A700"/>
<path fill-rule="evenodd" clip-rule="evenodd" d="M22.6557 20.9972C18.0109 18.9159 13.4754 16.6065 9.04955 14.0687C8.90028 14.1057 8.75084 14.1442 8.60156 14.1881C13.2162 16.8474 17.9636 19.2629 22.8252 21.425C22.7709 21.2814 22.7141 21.1393 22.655 20.9987" fill="#F6A700"/>
<path fill-rule="evenodd" clip-rule="evenodd" d="M22.2847 20.206C17.9417 18.3302 13.6948 16.248 9.54394 13.959C9.38127 13.9912 9.21943 14.027 9.05859 14.0663C13.4261 16.4865 17.912 18.6809 22.499 20.6413C22.4311 20.4902 22.3594 20.3481 22.2856 20.2036" fill="#F6A700"/>
<path fill-rule="evenodd" clip-rule="evenodd" d="M21.8423 19.4114C17.8425 17.7442 13.924 15.8958 10.0871 13.8657C9.90869 13.891 9.73177 13.9232 9.55469 13.9573C13.6416 16.1338 17.8261 18.1047 22.108 19.8701C22.0229 19.7154 21.9343 19.5625 21.8423 19.4114Z" fill="#F6A700"/>
<path fill-rule="evenodd" clip-rule="evenodd" d="M21.3055 18.6137C17.6998 17.1592 14.1599 15.5524 10.686 13.793C10.4894 13.8121 10.2932 13.836 10.0977 13.8647C13.8624 15.7869 17.7088 17.5299 21.6369 19.0936C21.5305 18.9315 21.4199 18.7714 21.3055 18.6137Z" fill="#F6A700"/>
<path fill-rule="evenodd" clip-rule="evenodd" d="M20.6558 17.8019C17.5128 16.5689 14.4192 15.2164 11.3751 13.7444C11.1511 13.7534 10.9271 13.7678 10.7031 13.789C14.0956 15.445 17.553 16.9519 21.0754 18.3098C20.9401 18.136 20.8002 17.9661 20.6558 17.8004" fill="#F6A700"/>
<path fill-rule="evenodd" clip-rule="evenodd" d="M20.158 17.2575C20.0595 17.1578 19.959 17.0603 19.8593 16.9637C17.2749 15.9736 14.7238 14.9002 12.2066 13.7434C11.9437 13.7343 11.6808 13.7343 11.418 13.7434C14.3659 15.1164 17.3626 16.376 20.4081 17.5221C20.327 17.4339 20.2444 17.3467 20.1603 17.2606" fill="#F6A700"/>
<path d="M18.7819 16.0554C16.9357 15.3585 15.106 14.6168 13.2931 13.8305C12.9515 13.7866 12.6091 13.758 12.2656 13.7444C14.6684 14.8094 17.1027 15.7955 19.5682 16.7023C19.3159 16.4766 19.0542 16.2623 18.7834 16.0591L18.7819 16.0554ZM16.5113 14.7318C16.196 14.6104 15.8807 14.4874 15.5654 14.363C14.8654 14.1244 14.1445 13.9533 13.4126 13.8522C15.0662 14.5383 16.7338 15.1872 18.4154 15.7988C17.8141 15.3839 17.1759 15.0266 16.509 14.7318" fill="#F6A700"/>
<path d="M23.0043 8.19902C22.8829 7.87857 22.7626 7.55789 22.6435 7.23695C22.355 6.55846 22.0052 5.90852 21.598 5.29547C22.1983 7.00847 22.8353 8.70704 23.5088 10.3913C23.4094 9.64677 23.2416 8.91306 23.0079 8.19976L23.0043 8.19902ZM23.5245 10.5146C22.7539 8.66804 22.0266 6.80391 21.3427 4.92213C21.1435 4.64654 20.9329 4.38001 20.7109 4.12256C21.6001 6.63161 22.5662 9.11094 23.6096 11.5605C23.5962 11.2109 23.5681 10.8621 23.5252 10.5138" fill="#F6A700"/>
<path fill-rule="evenodd" clip-rule="evenodd" d="M23.6072 11.6195C22.4716 9.05701 21.4177 6.45982 20.4449 3.82785C20.2687 3.63471 20.0866 3.4478 19.8984 3.26709C21.0204 6.36459 22.2565 9.417 23.6068 12.4241C23.6151 12.1558 23.6151 11.8883 23.6068 11.62" fill="#F6A700"/>
<path fill-rule="evenodd" clip-rule="evenodd" d="M23.6096 12.463C22.1659 9.36435 20.8376 6.214 19.6244 3.01169C19.4628 2.86508 19.2962 2.723 19.125 2.58545C20.4581 6.16766 21.9384 9.68755 23.5662 13.1453C23.5865 12.9186 23.5999 12.6919 23.6088 12.4652" fill="#F6A700"/>
<path fill-rule="evenodd" clip-rule="evenodd" d="M23.5605 13.1694C21.8335 9.63361 20.2553 6.02843 18.8257 2.35403C18.6713 2.23766 18.5146 2.12732 18.3555 2.01697C19.8891 6.01332 21.601 9.93086 23.4911 13.7695C23.5194 13.5692 23.5427 13.3697 23.562 13.1648" fill="#F6A700"/>
<path fill-rule="evenodd" clip-rule="evenodd" d="M23.4828 13.7827C21.4914 9.87707 19.6765 5.88627 18.0378 1.81034C17.8886 1.71739 17.7391 1.62668 17.5898 1.54053C19.3202 5.89358 21.2555 10.1546 23.3961 14.3238C23.4305 14.144 23.4605 13.9634 23.4864 13.7822" fill="#F6A700"/>
<path fill-rule="evenodd" clip-rule="evenodd" d="M23.3915 14.333C21.1454 10.1084 19.1009 5.78427 17.2582 1.36069C17.1163 1.28511 16.9729 1.21281 16.8281 1.1438C18.7518 5.81336 20.907 10.3817 23.2856 14.8315C23.3245 14.6677 23.3604 14.5039 23.3917 14.3372" fill="#F6A700"/>
<path fill-rule="evenodd" clip-rule="evenodd" d="M23.2892 14.8341C20.8003 10.3313 18.532 5.71328 16.4846 0.979836C16.3465 0.918622 16.2068 0.86119 16.0664 0.80603C18.1879 5.75519 20.5597 10.5905 23.1724 15.2928C23.2135 15.1417 23.2539 14.9904 23.2897 14.8341" fill="#F6A700"/>
<path fill-rule="evenodd" clip-rule="evenodd" d="M23.1701 15.2974C20.4433 10.5509 17.9542 5.67539 15.7032 0.670894C15.5705 0.623534 15.4363 0.578684 15.3008 0.536377C17.6198 5.73206 20.2039 10.8024 23.0428 15.7266C23.0875 15.5823 23.1307 15.4387 23.1704 15.2952" fill="#F6A700"/>
<path fill-rule="evenodd" clip-rule="evenodd" d="M23.0395 15.7332C20.0816 10.7702 17.3712 5.66015 14.9185 0.422551C14.787 0.386281 14.6556 0.353011 14.5234 0.321777C17.0435 5.73659 19.84 11.0152 22.9012 16.1363C22.951 16.0003 22.9954 15.8658 23.0395 15.7312" fill="#F6A700"/>
<path fill-rule="evenodd" clip-rule="evenodd" d="M14.1362 0.234104C14.0092 0.208906 13.8817 0.185489 13.7539 0.163818C16.476 5.76449 19.4803 11.2201 22.7551 16.5088L22.7618 16.5216C22.8134 16.3937 22.8597 16.2653 22.9052 16.1361C19.7239 10.9866 16.8009 5.687 14.1362 0.237122" fill="#F6A700"/>
<path fill-rule="evenodd" clip-rule="evenodd" d="M13.35 0.102213C13.2255 0.0848155 13.101 0.0704703 12.9766 0.0576172C15.9073 5.82228 19.1221 11.4344 22.6089 16.8727L22.6156 16.8854C22.6672 16.7637 22.7186 16.6436 22.7649 16.5212L22.7581 16.5105C19.3617 11.1965 16.2258 5.72707 13.35 0.102213Z" fill="#F6A700"/>
<path fill-rule="evenodd" clip-rule="evenodd" d="M12.5582 0.0222327C12.4372 0.01467 12.3163 0.00963396 12.1953 0.00561523C15.45 6.10441 18.8885 11.879 22.4435 17.2167L22.4519 17.2293C22.507 17.1145 22.5586 17.0026 22.6093 16.8832L22.6026 16.8707C18.9931 11.4193 15.645 5.80312 12.5582 0.0222327Z" fill="#F6A700"/>
<path d="M11.7679 0C11.65 0 11.5315 3.4032e-07 11.4141 0.00679995C14.8869 6.21896 18.5343 12.1113 22.2835 17.5572L22.2888 17.5627C22.3439 17.4529 22.3986 17.3419 22.4505 17.2308L22.4423 17.2183C18.2222 11.0783 14.6323 5.11383 11.7662 0H11.7679Z" fill="#F6A700"/>
<path d="M10.9895 0.0264893C10.8746 0.034815 10.7595 0.0453957 10.6445 0.0567227C14.2137 6.16509 18.0434 12.104 22.1338 17.8733C22.1891 17.7694 22.2434 17.6656 22.2967 17.5618L22.2913 17.5566C18.2756 11.8815 14.5089 6.03814 10.991 0.0264893" fill="#F6A700"/>
<path fill-rule="evenodd" clip-rule="evenodd" d="M9.86853 0.163792C13.6517 6.33514 17.6804 12.3411 21.9544 18.1813C22.0127 18.0838 22.0693 17.9841 22.1231 17.8835C17.9133 12.1264 13.9398 6.20289 10.2026 0.113159C10.0905 0.128268 9.9786 0.145649 9.86719 0.163538" fill="#F6A700"/>
<path fill-rule="evenodd" clip-rule="evenodd" d="M9.10156 0.317277C13.0965 6.53044 17.3202 12.5829 21.773 18.4747C21.8341 18.3794 21.8924 18.2834 21.9491 18.1874C17.5541 12.3677 13.3801 6.38711 9.42708 0.245483C9.31819 0.268154 9.20979 0.291588 9.10156 0.321059" fill="#F6A700"/>
<path fill-rule="evenodd" clip-rule="evenodd" d="M8.34766 0.523821C11.8503 5.71121 16.3634 12.0769 21.5902 18.7613C21.6515 18.6689 21.7117 18.576 21.771 18.4824C17.1998 12.6193 12.8302 6.60255 8.66262 0.432373C8.55724 0.461844 8.4527 0.492078 8.34816 0.523821" fill="#F6A700"/>
<path fill-rule="evenodd" clip-rule="evenodd" d="M7.91329 0.669922C7.81159 0.706192 7.71006 0.745497 7.60938 0.78253L7.79668 1.04627C11.4175 6.13918 16.0647 12.4134 21.4058 19.0327L21.5902 18.763C16.9011 12.9355 12.3882 6.9689 8.05134 0.86338L7.91329 0.669922Z" fill="#F6A700"/>
<path fill-rule="evenodd" clip-rule="evenodd" d="M7.17399 0.96167C7.07632 1.00325 6.97915 1.04708 6.88281 1.09242L7.25625 1.598C11.7553 7.61972 16.4049 13.5218 21.2051 19.3042C21.2693 19.216 21.3335 19.1304 21.3948 19.0427C16.4997 13.1425 11.7596 7.1154 7.17399 0.96167Z" fill="#F6A700"/>
<path fill-rule="evenodd" clip-rule="evenodd" d="M6.1875 1.44624C10.4101 6.8354 15.4561 13.074 21.0107 19.5587C21.0779 19.4748 21.1421 19.3902 21.2056 19.3049C16.1654 13.4113 11.2533 7.40875 6.46896 1.29736C6.37497 1.34572 6.28149 1.39485 6.18817 1.4485" fill="#F6A700"/>
<path d="M5.49934 1.85416C10.4986 7.92826 15.5994 13.9142 20.8019 19.812C20.8691 19.7303 20.9363 19.6482 21.0021 19.5648C15.8249 13.6937 10.7476 7.73454 5.76957 1.68713C5.67927 1.74078 5.59115 1.79671 5.50235 1.85416H5.49934ZM4.84662 2.30759C9.36188 7.52445 14.7455 13.631 20.5928 20.056L20.7967 19.8168C14.9695 13.4131 9.60464 7.32645 5.09909 2.1247C5.01315 2.1844 4.92804 2.24562 4.84377 2.30759H4.84662ZM4.21718 2.80788C8.86982 7.91969 14.3998 13.9298 20.3725 20.2926C20.4472 20.2171 20.5152 20.1415 20.5841 20.0599C15.1652 14.2826 9.78893 8.465 4.45559 2.60686C4.37433 2.67186 4.29392 2.73987 4.21601 2.80839L4.21718 2.80788ZM3.6231 3.35C9.12079 9.08899 14.6312 14.8142 20.1547 20.5257C20.2294 20.4501 20.3005 20.3745 20.3713 20.2988C14.8522 14.5909 9.3468 8.86872 3.85514 3.13211C3.78042 3.20314 3.70201 3.2757 3.62729 3.349L3.6231 3.35ZM3.07258 3.93016C7.97384 8.79717 13.7614 14.5641 19.9275 20.7514C20.0022 20.6758 20.0768 20.6047 20.1515 20.5291C13.9808 14.3396 8.18812 8.56893 3.28535 3.69816L3.07258 3.93016ZM2.5559 4.54734C7.56757 9.27975 13.4575 14.9009 19.6947 20.9703C19.7692 20.9 19.8485 20.8289 19.9238 20.7562C13.6748 14.674 7.77297 9.04219 2.75376 4.30147C2.68658 4.38234 2.62073 4.46397 2.5559 4.54709V4.54734ZM2.08294 5.19778C7.93648 10.4531 13.7275 15.7819 19.4559 21.1838L19.6903 20.9746C13.9467 15.5568 8.13752 10.2108 2.26321 4.9368C2.20189 5.0222 2.14141 5.10912 2.08244 5.19678L2.08294 5.19778ZM1.65234 5.87695C7.59354 10.9474 13.4456 16.1192 19.2085 21.3922L19.4504 21.1889C13.6605 15.8922 7.78268 10.6973 1.81656 5.60411C1.7606 5.69556 1.70532 5.7855 1.65234 5.87695Z" fill="#F6A700"/>
<path fill-rule="evenodd" clip-rule="evenodd" d="M1.27957 6.58535C7.28088 11.4593 13.1753 16.4626 18.9627 21.595C19.0471 21.5301 19.1307 21.4651 19.2116 21.3971C13.3933 16.2338 7.46483 11.2014 1.42667 6.29968C1.37689 6.39415 1.32712 6.48938 1.27734 6.58535" fill="#F6A700"/>
<path d="M1.07523 7.00769C1.03043 7.10594 0.988128 7.20569 0.94606 7.30545L1.38162 7.64251C6.26645 11.431 12.3004 16.2723 18.6996 21.79C18.7854 21.7269 18.8713 21.6614 18.9565 21.5965C13.1234 16.575 7.16226 11.7132 1.07325 7.01071L1.07523 7.00769ZM0.774569 7.74832C0.736488 7.85033 0.699898 7.95387 0.664062 8.05666L0.855204 8.19647C6.84964 12.6134 12.7089 17.2095 18.4331 21.985C18.521 21.9238 18.61 21.861 18.6981 21.7968C12.9474 16.9968 7.05839 12.3762 1.03118 7.93473L0.771588 7.74303" fill="#F6A700"/>
<path fill-rule="evenodd" clip-rule="evenodd" d="M0.421875 8.82043C5.47173 12.3625 11.6528 16.9069 18.146 22.1717L18.4171 21.9889C12.6046 17.2859 6.63677 12.7903 0.513953 8.50232C0.481853 8.60813 0.451729 8.71394 0.423617 8.82043" fill="#F6A700"/>
<path fill-rule="evenodd" clip-rule="evenodd" d="M0.242773 9.59789C6.27159 13.6219 12.1441 17.8724 17.86 22.3494C17.9557 22.292 18.0499 22.2323 18.1439 22.1717C12.3645 17.6419 6.42086 13.3402 0.312952 9.26672C0.286816 9.37643 0.263177 9.48665 0.238281 9.59789" fill="#F6A700"/>
<path fill-rule="evenodd" clip-rule="evenodd" d="M0.106959 10.3893C6.0834 14.1953 11.8999 18.2426 17.5563 22.5315C17.6541 22.4757 17.7528 22.4182 17.8489 22.3592C12.1229 18.0103 6.22564 13.908 0.157002 10.0522C0.138322 10.1648 0.12115 10.279 0.105469 10.3915" fill="#F6A700"/>
<path fill-rule="evenodd" clip-rule="evenodd" d="M0.0234375 11.1851C5.92322 14.7673 11.6607 18.6044 17.2354 22.6964L17.2413 22.7017C17.3436 22.6466 17.4445 22.5921 17.5452 22.534C11.8878 18.3748 6.05724 14.4753 0.053309 10.8351C0.0408611 10.9531 0.0309096 11.0694 0.0234375 11.1857" fill="#F6A700"/>
<path fill-rule="evenodd" clip-rule="evenodd" d="M0.00671853 11.6277C0.00671853 11.7472 0.000753912 11.8671 0 11.9867C5.79725 15.3468 11.433 18.9701 16.9072 22.8567L16.9198 22.8666C17.0295 22.8137 17.1378 22.7577 17.2453 22.7004L17.2401 22.6965C11.893 18.8785 6.10535 15.1643 0.00646768 11.6272" fill="#F6A700"/>
<path d="M0.0117188 12.4197C0.0117188 12.5445 0.0214362 12.6669 0.0296455 12.79C5.70446 15.9314 11.2192 19.3415 16.574 23.0204L16.5844 23.0266C16.6987 22.9743 16.8084 22.9223 16.925 22.8663L16.9124 22.858C11.6712 19.2388 6.00016 15.7352 0.0117188 12.4197Z" fill="#F6A700"/>
<path d="M0.0546875 13.2141C0.0671354 13.3411 0.081561 13.4673 0.0987502 13.5919C5.62077 16.5142 10.991 19.7073 16.2092 23.1717L16.2204 23.1777C16.3392 23.1302 16.4587 23.0788 16.5774 23.0266L16.5669 23.0189C11.2302 19.4711 5.71945 16.1986 0.0561798 13.2141" fill="#F6A700"/>
<path fill-rule="evenodd" clip-rule="evenodd" d="M0.160741 14.0055C0.183141 14.1363 0.206277 14.2655 0.235412 14.3947C5.58111 17.1064 10.7851 20.0831 15.8472 23.3251C15.9717 23.2798 16.0989 23.2313 16.2205 23.1784L16.2101 23.1725C11.0185 19.8388 5.66002 16.779 0.15625 14.0054" fill="#F6A700"/>
<path d="M0.414797 15.1961C5.55964 17.695 10.5763 20.4554 15.4456 23.4669C15.5785 23.4223 15.7122 23.3755 15.8438 23.3256C10.8173 20.2095 5.63302 17.3618 0.3125 14.7941C0.3446 14.9285 0.376717 15.0616 0.413307 15.1946" fill="#F6A700"/>
<path fill-rule="evenodd" clip-rule="evenodd" d="M0.655589 15.9934C5.5658 18.2832 10.3593 20.8211 15.0182 23.5976C15.1601 23.5552 15.3018 23.5122 15.443 23.4669C10.6091 20.5766 5.62913 17.9446 0.523438 15.5815C0.565254 15.7191 0.608561 15.8557 0.655589 15.9919" fill="#F6A700"/>
<path fill-rule="evenodd" clip-rule="evenodd" d="M0.961728 16.7874C5.60706 18.8698 10.1421 21.1798 14.5664 23.7175C14.7157 23.6804 14.8651 23.6419 15.0181 23.5973C10.4033 20.9377 5.65515 18.5224 0.792969 16.3611C0.84524 16.5056 0.901984 16.6461 0.961728 16.7874Z" fill="#F6A700"/>
<path fill-rule="evenodd" clip-rule="evenodd" d="M1.33333 17.5799C5.67712 19.4551 9.9255 21.5369 14.0785 23.825C14.2414 23.7942 14.4041 23.757 14.5654 23.7177C10.1977 21.298 5.71197 19.1035 1.125 17.1429C1.19369 17.294 1.26462 17.4368 1.3378 17.582" fill="#F6A700"/>
<path fill-rule="evenodd" clip-rule="evenodd" d="M1.77837 18.3754C5.5424 19.9512 9.52288 21.7907 13.5334 23.9204C13.7111 23.8941 13.8884 23.8636 14.0651 23.8288C9.97875 21.6518 5.7942 19.6811 1.51172 17.9167C1.5976 18.0678 1.68488 18.2237 1.77837 18.3702" fill="#F6A700"/>
<path fill-rule="evenodd" clip-rule="evenodd" d="M2.31051 19.1727C5.91656 20.6268 9.45659 22.2338 12.9306 23.9937C13.1271 23.9755 13.3226 23.9506 13.519 23.9218C9.7543 21.9998 5.90801 20.2568 1.98047 18.6929C2.08652 18.8553 2.19776 19.0149 2.31135 19.1727" fill="#F6A700"/>
<path fill-rule="evenodd" clip-rule="evenodd" d="M2.95812 19.9861C5.97628 21.1726 9.09882 22.5201 12.2394 24.0418C12.4619 24.0335 12.6859 24.0191 12.9114 23.9988C9.52 22.3423 6.06374 20.835 2.54297 19.4769C2.67633 19.6494 2.81572 19.8191 2.96114 19.9863" fill="#F6A700"/>
<path fill-rule="evenodd" clip-rule="evenodd" d="M3.45783 20.5283C3.55567 20.6292 3.65703 20.7271 3.75655 20.8239C6.26088 21.7851 8.83021 22.8553 11.4079 24.0433C11.6711 24.0524 11.9345 24.0524 12.1978 24.0433C9.24888 22.6694 6.252 21.4099 3.20703 20.2646C3.28829 20.3528 3.37055 20.44 3.45582 20.5261" fill="#F6A700"/>
<path d="M4.82921 21.7311C6.67613 22.428 8.50596 23.1694 10.3189 23.9551C10.6601 23.9982 11.0034 24.027 11.347 24.0398C8.94373 22.9788 6.5091 21.9963 4.04297 21.0925C4.29829 21.3192 4.55898 21.5332 4.82921 21.7342V21.7311ZM7.10067 23.0619L8.04641 23.4285C8.7462 23.6672 9.46678 23.8381 10.1984 23.9394C8.54432 23.2537 6.87667 22.6052 5.19562 21.9941C5.79673 22.4089 6.43505 22.766 7.10201 23.0603" fill="#F6A700"/>
</svg>
