<svg width="111" height="19" viewBox="0 0 111 19" fill="none" xmlns="http://www.w3.org/2000/svg">
<path d="M110.999 10.8127C111.073 7.10969 108.185 4.07325 104.482 3.9992C100.779 3.92514 97.7424 6.81345 97.6683 10.5164C97.5942 14.2194 100.483 17.2558 104.186 17.3299H104.334C106.555 17.4039 108.703 16.4412 110.036 14.6637L108.407 13.5528C107.444 14.8119 105.963 15.5524 104.334 15.4784C102.112 15.4784 100.26 13.9231 99.816 11.7754H110.925C110.999 11.4051 110.999 11.1089 110.999 10.8127ZM104.334 6.14692C106.555 6.14692 108.407 7.70216 108.851 9.84988H99.816C100.26 7.70216 102.186 6.14692 104.334 6.14692ZM50.6406 4.44355H52.6402V16.8855H50.6406V4.44355Z" fill="#616670"/>
<path d="M51.6749 2.66614C52.4111 2.66614 53.0079 2.0693 53.0079 1.33307C53.0079 0.596835 52.4111 0 51.6749 0C50.9386 0 50.3418 0.596835 50.3418 1.33307C50.3418 2.0693 50.9386 2.66614 51.6749 2.66614Z" fill="#616670"/>
<path d="M41.7513 3.999C38.0483 3.999 35.0859 6.96137 35.0859 10.6643C35.0859 14.3673 38.0483 17.3297 41.7513 17.3297C45.4542 17.3297 48.4166 14.3673 48.4166 10.6643C48.4166 6.96137 45.4542 3.999 41.7513 3.999ZM41.7513 15.3301C39.1592 15.3301 37.0115 13.2564 37.0115 10.6643C37.0115 8.07226 39.0851 5.92454 41.6772 5.92454C44.2693 5.92454 46.417 7.9982 46.417 10.5903V10.6643C46.417 13.2564 44.3434 15.3301 41.7513 15.3301ZM75.7445 3.999C72.0415 3.999 69.0792 6.96137 69.0792 10.6643C69.0792 14.3673 72.0415 17.3297 75.7445 17.3297C79.4475 17.3297 82.4098 14.3673 82.4098 10.6643C82.4098 6.96137 79.4475 3.999 75.7445 3.999ZM75.7445 15.3301C73.1524 15.3301 71.0047 13.2564 71.0047 10.6643C71.0047 8.07226 73.0784 5.92454 75.6704 5.92454C78.2625 5.92454 80.4102 7.9982 80.4102 10.5903C80.4102 13.2564 78.3366 15.3301 75.7445 15.3301ZM61.5251 3.999C60.0439 3.92494 58.5627 4.59147 57.5259 5.70236V4.44336H55.5263V16.8113H57.5259V10.4422C57.5259 7.77603 59.0812 5.85048 61.5251 5.85048C63.9691 5.85048 65.3021 7.70197 65.3021 10.5903V16.8113H67.3017V10.5903C67.3017 6.44296 65.08 3.999 61.5251 3.999Z" fill="#616670"/>
<path d="M90.1869 3.9994C88.7057 3.92534 87.2246 4.59187 86.1877 5.70276V4.44376H84.1881V16.8117H86.1877V10.4426C86.1877 7.77643 87.743 5.85088 90.1869 5.85088C92.6309 5.85088 93.964 7.70237 93.964 10.5907V16.8117H95.9636V10.5907C95.8895 6.44336 93.7418 3.9994 90.1869 3.9994ZM29.1621 3.77722C25.311 3.77722 22.2745 6.88771 22.2005 10.6647C22.1264 14.4418 25.311 17.5523 29.088 17.6263C31.0135 17.6263 32.865 16.8117 34.1981 15.4045L32.791 13.9974C30.9395 16.0711 27.829 16.2192 25.7553 14.4418C23.6817 12.6643 23.5336 9.47979 25.311 7.40613C27.0884 5.33247 30.2729 5.18435 32.3466 6.96177L32.791 7.40613L34.1981 5.999C32.865 4.59187 31.0876 3.77722 29.1621 3.77722Z" fill="#616670"/>
<path d="M15.1407 9.99012L17.2026 7.14937C16.5326 5.15442 15.1792 3.46374 13.3839 2.37905C11.5887 1.29436 9.46841 0.886256 7.40156 1.22756C5.3347 1.56887 3.45574 2.63739 2.10001 4.24241C0.744281 5.84743 0 7.88452 0 9.99012C0 12.0957 0.744281 14.1328 2.10001 15.7378C3.45574 17.3428 5.3347 18.4114 7.40156 18.7527C9.46841 19.094 11.5887 18.6859 13.3839 17.6012C15.1792 16.5165 16.5326 14.8258 17.2026 12.8309L15.1407 9.99012ZM13.374 12.6118C12.4705 14.0859 10.6819 15.149 8.83108 15.149C7.94944 15.1484 7.08281 14.9195 6.31475 14.4843C5.54669 14.0491 4.90311 13.4224 4.44606 12.6645C3.98902 11.9066 3.73391 11.0431 3.70535 10.1573C3.67678 9.27143 3.87572 8.39314 4.28299 7.60707C4.69025 6.821 5.2921 6.15367 6.03051 5.66941C6.76892 5.18515 7.61899 4.9003 8.49874 4.84232C9.3785 4.78434 10.2583 4.95519 11.0533 5.33839C11.8482 5.7216 12.5316 6.30423 13.0375 7.03012L15.0565 9.99012L13.374 12.6118Z" fill="url(#paint0_linear_881_1153)"/>
<defs>
<linearGradient id="paint0_linear_881_1153" x1="6.84062" y1="1.50846" x2="10.7782" y2="18.2867" gradientUnits="userSpaceOnUse">
<stop stop-color="#01AEFF"/>
<stop offset="1" stop-color="#0157FF"/>
</linearGradient>
</defs>
</svg>
