<svg width="111" height="22" viewBox="0 0 111 22" fill="none" xmlns="http://www.w3.org/2000/svg">
<path d="M10.9425 21.9508C16.9859 21.9508 21.885 17.037 21.885 10.9754C21.885 4.91386 16.9859 0 10.9425 0C4.89913 0 0 4.91386 0 10.9754C0 17.037 4.89913 21.9508 10.9425 21.9508Z" fill="#3259A5"/>
<path d="M14.7127 11.6915C14.3784 13.4682 12.8241 14.8117 10.9557 14.8117C8.84326 14.8117 7.13119 13.0945 7.13119 10.9757C7.13119 8.85685 8.84326 7.13963 10.9557 7.13963C12.8241 7.13963 14.3784 8.48387 14.7127 10.2599H18.5718C18.2119 6.35826 14.9395 3.30359 10.9557 3.30359C6.73078 3.30359 3.30664 6.73877 3.30664 10.9757C3.30664 15.2133 6.73153 18.6478 10.9557 18.6478C14.9395 18.6478 18.2119 15.5931 18.5718 11.6915H14.7127Z" fill="white"/>
<path d="M44.9413 5.90459C41.9348 5.90459 39.5857 8.19371 39.5857 11.2582C39.5857 14.3234 41.8755 16.5922 44.9413 16.5922C48.0071 16.5922 50.3367 14.2835 50.3367 11.2386C50.3359 8.2133 48.0469 5.90459 44.9413 5.90459ZM44.9608 14.3837C43.2487 14.3837 41.9942 13.05 41.9942 11.2589C41.9942 9.44753 43.2285 8.11459 44.9405 8.11459C46.6729 8.11459 47.9267 9.46787 47.9267 11.2589C47.9274 13.05 46.6729 14.3837 44.9608 14.3837ZM50.9932 8.23365H52.4867V16.394H54.8756V6.10427H50.9932V8.23365ZM33.5736 8.11384C34.8281 8.11384 35.8235 8.88994 36.2014 10.0443H38.7301C38.2718 7.5766 36.2412 5.90459 33.5938 5.90459C30.5874 5.90459 28.2383 8.19371 28.2383 11.2582C28.2383 14.3234 30.528 16.5922 33.5938 16.5922C36.1819 16.5922 38.2523 14.9202 38.7105 12.4321H36.2021C35.8438 13.5865 34.8484 14.3829 33.5938 14.3829C31.8615 14.3829 30.6475 13.0492 30.6475 11.2582C30.6467 9.44753 31.8412 8.11384 33.5736 8.11384ZM96.3845 10.2636L94.6326 10.0051C93.7964 9.88606 93.1992 9.60727 93.1992 8.95022C93.1992 8.23365 93.976 7.87574 95.0307 7.87574C96.1854 7.87574 96.9223 8.37304 97.0816 9.18908H99.3909C99.1317 7.11923 97.5391 5.90535 95.0908 5.90535C92.5622 5.90535 90.8899 7.1991 90.8899 9.03009C90.8899 10.7812 91.9852 11.7969 94.1946 12.1149L95.9465 12.3733C96.8029 12.4924 97.2807 12.8315 97.2807 13.4682C97.2807 14.2842 96.4446 14.6225 95.2899 14.6225C93.8761 14.6225 93.0798 14.0454 92.9603 13.1698H90.6112C90.8306 15.1801 92.4029 16.5929 95.2696 16.5929C97.8779 16.5929 99.6095 15.3986 99.6095 13.3484C99.6095 11.5174 98.355 10.5619 96.3845 10.2636ZM53.6804 1.86435C52.8045 1.86435 52.1471 2.50106 52.1471 3.37662C52.1471 4.25218 52.8045 4.88964 53.6804 4.88964C54.5564 4.88964 55.2137 4.25293 55.2137 3.37737C55.2137 2.50181 54.5571 1.86435 53.6804 1.86435ZM88.7391 9.62686C88.7391 7.39802 87.3854 5.90535 84.5187 5.90535C81.8112 5.90535 80.2982 7.27897 79.9992 9.38876H82.3686C82.4881 8.57272 83.1251 7.89608 84.4789 7.89608C85.6936 7.89608 86.2908 8.43332 86.2908 9.09037C86.2908 9.94634 85.1955 10.1649 83.8418 10.3043C82.0103 10.5032 79.7408 11.1399 79.7408 13.5285C79.7408 15.3798 81.1148 16.5733 83.3047 16.5733C85.0168 16.5733 86.0918 15.8568 86.6297 14.722C86.7093 15.7369 87.4658 16.394 88.5213 16.394H89.9148V14.2646H88.7399V9.62686H88.7391ZM86.39 12.2144C86.39 13.588 85.1955 14.6029 83.7419 14.6029C82.8457 14.6029 82.0892 14.2247 82.0892 13.429C82.0892 12.414 83.3039 12.1352 84.4188 12.0162C85.4938 11.9167 86.091 11.6779 86.39 11.2197V12.2144ZM73.7084 5.90459C72.3742 5.90459 71.2594 6.46218 70.463 7.39727V1.76489H68.0741V16.394H70.4232V15.0407C71.2195 16.0157 72.3547 16.5929 73.7084 16.5929C76.5751 16.5929 78.7454 14.3242 78.7454 11.2589C78.7454 8.19371 76.5353 5.90459 73.7084 5.90459ZM73.35 14.3837C71.638 14.3837 70.3834 13.05 70.3834 11.2589C70.3834 9.46787 71.6575 8.11459 73.3696 8.11459C75.1019 8.11459 76.3159 9.44828 76.3159 11.2589C76.3167 13.05 75.0621 14.3837 73.35 14.3837ZM62.361 5.90459C60.8081 5.90459 59.7925 6.5413 59.1952 7.4372V6.10352H56.8258V16.3932H59.2148V10.8008C59.2148 9.22826 60.2102 8.11384 61.6833 8.11384C63.0574 8.11384 63.913 9.08886 63.913 10.5024V16.394H66.3019V10.3238C66.3027 7.73634 64.9685 5.90459 62.361 5.90459ZM110.997 10.9206C110.997 7.9752 108.847 5.90535 105.96 5.90535C102.894 5.90535 100.644 8.21406 100.644 11.2589C100.644 14.4635 103.053 16.5929 106 16.5929C108.488 16.5929 110.439 15.1198 110.937 13.0304H108.448C108.089 13.9459 107.214 14.4635 106.039 14.4635C104.505 14.4635 103.351 13.5081 103.092 11.8361H110.996V10.9206H110.997ZM103.233 10.1242C103.611 8.69102 104.686 7.99479 105.921 7.99479C107.274 7.99479 108.31 8.77089 108.548 10.1242H103.233Z" fill="#3259A5"/>
</svg>
