<svg width="111" height="22" viewBox="0 0 111 22" fill="none" xmlns="http://www.w3.org/2000/svg">
<path d="M9.23155 0L0 5.32803V15.9841L9.23155 21.3121L18.4631 15.9841V5.32803L9.23155 0ZM9.23155 0L0 5.32803V15.9841L9.23155 21.3121L18.4631 15.9841V5.32803L9.23155 0Z" fill="white"/>
<path d="M12.8761 17.1496H11.5626L9.99006 15.7066V14.9666L11.6181 13.4126V10.9521L13.7456 9.56456L16.1691 11.3961L12.8761 17.1496ZM7.43704 13.2646L7.67754 10.9521L6.88204 8.88005H11.5811L10.8041 10.9521L11.0261 13.2646H9.21305H7.43704ZM8.51005 15.7066L6.93754 17.1681H5.60553L2.29401 11.3961L4.73603 9.58306L6.88204 10.9521V13.4126L8.51005 14.9666V15.7066ZM5.58703 4.60653H12.8576L13.7271 8.30655H4.73603L5.58703 4.60653ZM9.23155 0L0 5.32803V15.9841L9.23155 21.3121L18.4631 15.9841V5.32803L9.23155 0Z" fill="#03316C"/>
<path d="M28.8225 15.5955C26.3804 15.5955 24.5859 13.69 24.5859 11.3404C24.5859 8.99092 26.3989 7.02991 28.841 7.02991C30.395 7.02991 31.357 7.60341 32.1155 8.43592L30.95 9.69393C30.3765 9.08342 29.766 8.67642 28.8225 8.67642C27.4535 8.67642 26.4544 9.86043 26.4544 11.3034C26.4544 12.7834 27.472 13.9674 28.915 13.9674C29.803 13.9674 30.4505 13.5419 31.0425 12.9499L32.171 14.0785C31.357 14.948 30.4135 15.5955 28.8225 15.5955Z" fill="#002E73"/>
<path d="M35.7425 15.596H33.8555V7.04891H35.7425V9.04693C36.2605 7.82592 37.204 6.97491 38.647 7.04891V9.04693H38.536C36.8895 9.04693 35.7425 10.1199 35.7425 12.3029V15.596Z" fill="#002E73"/>
<path d="M48.5055 7.01135L44.343 17.8894H42.4375L43.344 15.5954L39.7734 7.01135H41.79L44.2135 13.3569L46.5445 7.01135H48.5055Z" fill="#002E73"/>
<path d="M54.0568 8.65786C52.7803 8.65786 51.6703 9.69387 51.6703 11.3034C51.6703 12.9129 52.7988 13.9489 54.0568 13.9489C55.3518 13.9489 56.4064 12.9314 56.4064 11.3034C56.4064 9.67537 55.3333 8.65786 54.0568 8.65786ZM54.4823 15.5769C53.1318 15.5769 52.2808 14.8924 51.7073 14.1339V17.8894H49.8203V7.01135H51.7073V8.54686C52.3178 7.69586 53.1688 7.01135 54.4823 7.01135C56.4249 7.01135 58.3119 8.54686 58.3119 11.2849C58.3119 14.0229 56.4434 15.5769 54.4823 15.5769Z" fill="#002E73"/>
<path d="M62.4386 8.80622V12.8392C62.4386 13.5608 62.8086 13.8568 63.4561 13.8568H64.1961V15.5403H62.9011C61.5321 15.5403 60.5516 14.9298 60.5516 13.1352V8.80622H59.5156V7.19671H60.5516V4.9397H62.4386V7.19671H64.1961V8.80622H62.4386Z" fill="#002E73"/>
<path d="M70.1327 8.65792C68.6157 8.65792 67.6537 9.84192 67.6537 11.2849C67.6537 12.7464 68.6897 13.949 70.1512 13.949C71.6682 13.949 72.6302 12.7649 72.6302 11.3219C72.6672 9.86043 71.6127 8.65792 70.1327 8.65792ZM70.1327 15.5955C67.6352 15.5955 65.7852 13.69 65.7852 11.3404C65.7852 8.97242 67.6537 7.02991 70.1697 7.02991C72.6857 7.02991 74.5357 8.93542 74.5357 11.3034C74.5357 13.6344 72.6857 15.5955 70.1327 15.5955Z" fill="#002E73"/>
<path d="M92.535 8.65792C91.018 8.65792 90.056 9.84192 90.056 11.2849C90.056 12.7464 91.092 13.949 92.5535 13.949C94.0705 13.949 95.0325 12.7649 95.0325 11.3219C95.0511 9.86043 94.015 8.65792 92.535 8.65792ZM92.535 15.5955C90.0375 15.5955 88.1875 13.69 88.1875 11.3404C88.1875 8.97242 90.056 7.02991 92.572 7.02991C95.088 7.02991 96.9381 8.93542 96.9381 11.3034C96.9381 13.6344 95.0696 15.5955 92.535 15.5955Z" fill="#002E73"/>
<path d="M108.112 7.01135C109.907 7.01135 110.998 8.13986 110.998 10.1564V15.5769H109.111V10.7299C109.111 9.41636 108.501 8.73186 107.446 8.73186C106.429 8.73186 105.689 9.45336 105.689 10.7669V15.5954H103.802V10.7299C103.802 9.45336 103.173 8.73186 102.137 8.73186C101.101 8.73186 100.379 9.50887 100.379 10.7854V15.5954H98.4922V7.02985H100.379V8.43586C100.916 7.71435 101.619 7.02985 102.877 7.02985C104.061 7.02985 104.875 7.60335 105.319 8.47286C106.003 7.58485 106.873 7.01135 108.112 7.01135Z" fill="#002E73"/>
<path d="M77.9935 13.8566V14.8186L77.938 14.9111L77.1055 15.3736H76.9945L76.1805 14.9111L76.125 14.8186V13.8566L76.1805 13.7641L76.9945 13.3016H77.1055L77.938 13.7641L77.9935 13.8566Z" fill="#002E73"/>
<path d="M83.7139 15.5771C81.2719 15.5216 79.5144 13.5791 79.5514 11.2296C79.5884 8.88006 81.4384 6.95605 83.8989 7.01155C85.4529 7.04855 86.4149 7.64055 87.1549 8.49156L85.9709 9.73106C85.4159 9.12055 84.8054 8.67655 83.8619 8.65805C82.4929 8.63955 81.4754 9.78656 81.4569 11.2481C81.4199 12.7281 82.4189 13.9306 83.8619 13.9491C84.7499 13.9676 85.4159 13.5606 86.0079 12.9686L87.1179 14.1156C86.2854 14.9851 85.3234 15.6141 83.7139 15.5771Z" fill="#002E73"/>
</svg>
