<svg width="111" height="19" viewBox="0 0 111 19" fill="none" xmlns="http://www.w3.org/2000/svg">
<path d="M57.7785 13.8751V10.9521H63.6985V8.67661H57.7785V5.93861H64.494V3.58911H54.8555V5.79061V16.2246H64.7345V13.8751H57.7785Z" fill="black"/>
<path d="M92.6649 16.2246L92.6464 8.63961L88.8909 14.8926H87.5589L83.8219 8.80611V16.2246H81.0469V3.58911H83.4889L88.2619 11.4331L92.9609 3.58911H95.3844L95.4214 16.2246H92.6649Z" fill="black"/>
<path d="M104.323 3.27466C100.623 3.27466 97.6445 6.23466 97.6445 9.89766C97.6445 13.5607 100.642 16.5207 104.323 16.5207C108.023 16.5207 111.002 13.5607 111.002 9.89766C111.002 6.25316 108.005 3.27466 104.323 3.27466ZM104.323 5.80916C106.599 5.80916 108.449 7.64066 108.449 9.89766C108.449 12.1547 106.599 13.9862 104.323 13.9862C102.048 13.9862 100.198 12.1547 100.198 9.89766C100.198 7.64066 102.029 5.80916 104.323 5.80916Z" fill="black"/>
<path d="M79.161 3.58911H75.8865L72.871 7.69611H72.8525L71.2245 9.89761L66.5625 16.2246H69.837L72.871 12.1176L75.8865 16.2246H79.161L74.499 9.89761L79.161 3.58911Z" fill="black"/>
<path d="M71.835 6.29011L69.837 3.58911H66.5625L70.207 8.51011L71.835 6.29011Z" fill="black"/>
<path d="M25.0299 3.5705H8.41686L7.38086 1.7945L8.41686 0H25.0299L23.9939 1.7945L25.0299 3.5705Z" fill="black"/>
<mask id="mask0_881_1161" style="mask-type:alpha" maskUnits="userSpaceOnUse" x="21" y="0" width="14" height="19">
<path d="M21.8281 0H34.4081V18.019H21.8281V0Z" fill="white"/>
</mask>
<g mask="url(#mask0_881_1161)">
<path d="M21.8359 16.243L31.3079 0H33.3799L34.4159 1.7945L24.9624 18.019L23.9079 16.2245L21.8359 16.243Z" fill="black"/>
</g>
<mask id="mask1_881_1161" style="mask-type:alpha" maskUnits="userSpaceOnUse" x="37" y="0" width="13" height="19">
<path d="M37.043 0H49.623V18.019H37.043V0Z" fill="white"/>
</mask>
<g mask="url(#mask1_881_1161)">
<path d="M37.0391 16.243L46.5111 0H48.5831L49.6191 1.7945L40.1656 18.019L39.1296 16.2245L37.0391 16.243Z" fill="black"/>
</g>
<path d="M39.2573 6.51208L33.5963 16.2246H31.5243L30.4883 14.4486L36.1493 4.73608L37.1853 6.51208H39.2573Z" fill="black"/>
<path d="M17.649 16.2245H1.036L0 14.4485L1.036 12.6725H17.649L16.613 14.4485L17.649 16.2245Z" fill="black"/>
<path d="M4.73438 6.34546H16.0379L17.0739 8.12146L16.0379 9.89746H4.73438L5.77038 8.12146L4.73438 6.34546Z" fill="black"/>
</svg>
