<svg width="112" height="35" viewBox="0 0 112 35" fill="none" xmlns="http://www.w3.org/2000/svg">
<path d="M20.4146 25.2445H11.2578V34.4041H20.4146V25.2445Z" fill="#ABEBF4"/>
<path d="M28.521 12.6382H11.2578V21.7645H31.6389V12.6382H28.521Z" fill="#00B3C8"/>
<path d="M39.5816 0H11.2578V9.15957H39.5816V0Z" fill="#009BB5"/>
<path d="M9.1568 12.6382H0V21.7964H9.1568V12.6382Z" fill="#00B3C8"/>
<path d="M57.012 12.4427V17.0384H66.2674V21.6342H57.012V28.8233H51.0703V7.84692H67.5134V12.4094H57.012V12.4427ZM76.0805 12.5412H69.6476V7.84692H88.4205V12.5412H82.0208V28.79H76.0805V12.5412ZM104.177 28.79L99.8432 22.2905L95.5777 28.79H88.8159L96.3978 18.2193L89.1115 7.87884H95.7734L99.975 13.9191L104.11 7.87884H110.511L103.223 17.9889L111.002 28.8219H104.177V28.79Z" fill="black"/>
</svg>
