<svg width="111" height="26" viewBox="0 0 111 26" fill="none" xmlns="http://www.w3.org/2000/svg">
<path d="M92.9232 5.40881L91.6193 10.4903L82.6797 11.6494L92.9232 5.40881Z" fill="#57BAE5"/>
<path d="M95.3436 25.9069L97.5651 16.6776L94.6836 15.4863L95.3436 25.9069Z" fill="#005472"/>
<path d="M91.6218 10.4846L89.2769 15.3139L82.709 11.6651L91.6218 10.4846Z" fill="#34AFE4"/>
<path d="M95.3398 25.9069L94.6798 15.4863L89.2441 15.2985L95.3398 25.9069Z" fill="#0076A7"/>
<path d="M91.6183 10.4846L94.7091 15.4803L89.2734 15.2978L91.6183 10.4846Z" fill="#009DE2"/>
<path d="M92.9231 5.40881L100.323 6.33712L91.6191 10.4903L92.9231 5.40881Z" fill="#7ACDF2"/>
<path d="M108.412 3.09595L103.76 8.50478L104.087 3.50376L108.412 3.09595Z" fill="#7ACDF2"/>
<path d="M110.999 0L108.418 3.09613L110.436 3.34296L110.999 0Z" fill="#7ACDF2"/>
<path d="M105.906 5.90231L110.43 3.33741L108.412 3.09058L105.906 5.90231Z" fill="#00ABE7"/>
<path d="M97.5651 16.6769L97.7851 10.4685L94.6836 15.4856L97.5651 16.6769Z" fill="#0076A7"/>
<path d="M97.7885 10.4685L94.687 15.4856L91.623 10.49L97.7885 10.4685Z" fill="#008DBE"/>
<path d="M100.327 6.33679L97.7885 10.4685L91.623 10.49L100.327 6.33679Z" fill="#57BAE5"/>
<path d="M97.7825 10.4685L97.5625 16.6769L103.24 22.4828L97.7825 10.4685Z" fill="#00698D"/>
<path d="M106.214 19.237L103.215 11.8052L103.247 22.4887L106.214 19.237Z" fill="#09A1CB"/>
<path d="M103.757 8.50476L103.204 11.8048L97.7793 10.4687L103.757 8.50476Z" fill="#09A1CB"/>
<path d="M106.515 12.9799L103.215 11.8048L103.751 8.51013L106.515 12.9799Z" fill="#8BDAFF"/>
<path d="M107.718 19.0328L104.123 13.2698H106.178L107.718 19.0328Z" fill="#7ACDF2"/>
<path d="M101.002 5.10843L103.765 8.50505L104.093 3.50403L101.002 5.10843Z" fill="#57BAE5"/>
<path d="M103.204 11.8046L97.7793 10.4685L103.236 22.4828L103.204 11.8046Z" fill="#008DBE"/>
<path d="M106.212 19.2367L107.409 19.9074L103.256 22.4831L106.212 19.2367Z" fill="#0076A7"/>
<path d="M107.722 18.9633L103.215 11.8052L106.214 19.2423L107.722 18.9633Z" fill="#57BAE5"/>
<path d="M100.999 5.10852L97.7793 10.4744L103.757 8.5105L100.999 5.10852Z" fill="#7ACDF2"/>
<path d="M17.7734 10.1147L19.6083 11.0548L21.4545 10.1147V20.7049H17.7734V10.1147ZM17.4902 6.5356C17.528 6.01057 17.7719 5.52179 18.1687 5.17591C18.5655 4.83004 19.083 4.65514 19.6083 4.6894C19.875 4.6475 20.1475 4.66387 20.4073 4.73738C20.667 4.8109 20.9078 4.93981 21.113 5.11525C21.3181 5.2907 21.4828 5.50852 21.5958 5.75371C21.7087 5.9989 21.7672 6.26565 21.7672 6.5356C21.7672 6.80556 21.7087 7.07231 21.5958 7.3175C21.4828 7.56269 21.3181 7.7805 21.113 7.95595C20.9078 8.13139 20.667 8.26031 20.4073 8.33382C20.1475 8.40734 19.875 8.42371 19.6083 8.3818C19.3502 8.40192 19.0907 8.371 18.8446 8.29081C18.5985 8.21062 18.3705 8.08272 18.1739 7.91444C17.9772 7.74615 17.8156 7.54077 17.6983 7.31001C17.581 7.07926 17.5103 6.82766 17.4902 6.56958V6.5356Z" fill="#A8A8A8"/>
<path d="M9.12907 4.53064V10.7262H4.00954V4.53064H0V20.7047H4.00954V14.4865H9.12907V20.7047H13.1386V4.53064H9.12907Z" fill="#A8A8A8"/>
<path d="M29.9117 20.7047H26.208V12.663H24.7695V9.18576H26.208V5.31213H29.9117V9.18576H31.3502V12.663H29.9117V20.7047Z" fill="#A8A8A8"/>
<path d="M39.1209 16.9897H42.3942C43.6741 16.9897 44.0705 16.2081 44.0705 15.5399C44.0705 14.8716 43.6514 14.1128 42.3942 14.1128H39.1209V16.9897ZM39.1209 10.7488H42.111C42.2747 10.7729 42.4415 10.7644 42.6018 10.7239C42.7622 10.6833 42.913 10.6116 43.0455 10.5126C43.1781 10.4137 43.2899 10.2897 43.3744 10.1475C43.4589 10.0053 43.5146 9.84786 43.5382 9.68415C43.5438 9.62387 43.5438 9.5632 43.5382 9.50292C43.5382 9.07252 43.3003 8.25702 42.0997 8.25702H39.1209V10.7488ZM41.6693 4.53064C46.551 4.53064 47.3325 7.4302 47.3325 8.90263C47.3712 9.60789 47.1976 10.3086 46.8342 10.9142C46.4708 11.5199 45.9342 12.0028 45.2938 12.3005C46.0657 12.5323 46.7361 13.0194 47.195 13.682C47.6539 14.3446 47.8741 15.1435 47.8195 15.9476C47.8195 18.4848 46.3584 20.6707 41.5221 20.6707H35.1113V4.53064H41.6693Z" fill="#42ACDB"/>
<path d="M58.1581 20.7047H54.1486V8.24569H49.9238V4.53064H62.3829V8.21172H58.1581V20.7047Z" fill="#42ACDB"/>
<path d="M79.0775 7.09004L76.4837 9.4346C75.4803 8.55217 74.184 8.07562 72.848 8.09809C72.2847 8.08455 71.7244 8.1823 71.199 8.38574C70.6737 8.58918 70.1936 8.89431 69.7864 9.28363C69.3792 9.67295 69.0529 10.1388 68.826 10.6545C68.5992 11.1702 68.4764 11.7256 68.4646 12.2888C68.4533 12.4018 68.4533 12.5157 68.4646 12.6286C68.4309 13.1902 68.5082 13.7529 68.6921 14.2845C68.8759 14.8162 69.1628 15.3064 69.5362 15.7272C69.9096 16.148 70.3623 16.491 70.8683 16.7367C71.3744 16.9824 71.9239 17.126 72.4855 17.1592H72.848C74.18 17.1943 75.477 16.7297 76.4837 15.8567L79.0775 18.2012C78.2753 19.0468 77.3092 19.7199 76.2381 20.1795C75.167 20.6391 74.0135 20.8755 72.848 20.8743C70.6671 20.8743 68.5756 20.0079 67.0334 18.4658C65.4913 16.9237 64.625 14.8322 64.625 12.6513C64.625 10.4704 65.4913 8.37889 67.0334 6.83678C68.5756 5.29468 70.6671 4.42834 72.848 4.42834C74.0132 4.42229 75.1672 4.65539 76.2387 5.11322C77.3102 5.57105 78.2764 6.24386 79.0775 7.09004Z" fill="#42ACDB"/>
</svg>
