<svg width="111" height="34" viewBox="0 0 111 34" fill="none" xmlns="http://www.w3.org/2000/svg">
<path d="M40.9361 8.24796V17.584H31.6608V9.45351C31.6608 8.78532 31.1188 8.24329 30.4506 8.24329H27.3105V30.5927C27.3105 31.2609 27.8526 31.803 28.5208 31.803H31.6608V21.3782H40.9408V30.5881C40.9314 31.2562 41.4641 31.8076 42.1323 31.817H42.151H45.291V9.45351C45.291 8.78532 44.749 8.24329 44.0808 8.24329H40.9361V8.24796ZM59.3558 14.0888V25.2892C59.3652 26.3079 58.8325 27.2564 57.954 27.7798C55.4962 29.2003 52.9496 27.42 52.9496 25.0836V15.299C52.9496 14.6308 52.4075 14.0888 51.7393 14.0888H48.5993V25.4855C48.6086 29.1582 51.5805 32.13 55.2532 32.1487H57.0382C60.7156 32.1394 63.6967 29.1582 63.7061 25.4808V15.299C63.7061 14.6308 63.164 14.0888 62.4958 14.0888H59.3558Z" fill="#1B2143"/>
<path d="M106.867 31.8167H110.007V15.9483C110.007 15.2801 109.465 14.738 108.796 14.738H105.656V30.5971C105.652 31.2653 106.189 31.812 106.857 31.8167H106.867Z" fill="#2CA6E0"/>
<path d="M110.071 11.564C110.584 10.3266 109.996 8.90789 108.759 8.39531C107.521 7.88274 106.103 8.47036 105.59 9.7078C105.078 10.9452 105.665 12.3639 106.903 12.8765C108.14 13.389 109.559 12.8014 110.071 11.564Z" fill="#2CA6E0"/>
<path d="M74.9311 14.0795C70.3753 14.0795 66.6465 17.3363 66.6465 21.8922V24.3547C66.6465 28.9106 70.3753 32.1487 74.9311 32.1487C79.487 32.1487 83.2158 28.9106 83.2158 24.3547V21.8922C83.2205 17.3363 79.4917 14.0795 74.9311 14.0795V14.0795ZM78.8469 24.6491C78.8469 26.8032 77.0853 28.2377 74.9265 28.2377C72.7677 28.2377 71.0108 26.8032 71.0108 24.6491V21.5745C71.0108 19.4203 72.7724 17.9858 74.9265 17.9858C77.0806 17.9858 78.8469 19.4203 78.8469 21.5745V24.6491Z" fill="#1B2143"/>
<path d="M94.4378 14.0792C93.0733 14.0698 91.7276 14.3782 90.4987 14.9717V9.47658C90.4987 8.80839 89.9567 8.26636 89.2885 8.26636H86.1484V24.3544C86.1484 28.9103 89.8772 32.1484 94.4331 32.1484C98.989 32.1484 102.718 28.9103 102.718 24.3544V21.8919C102.722 17.336 99.003 14.0792 94.4378 14.0792V14.0792ZM98.3582 24.6488C98.3582 26.8029 96.5966 28.2374 94.4378 28.2374C92.2837 28.2374 90.5221 26.8029 90.5221 24.6488V21.5742C90.5221 19.4201 92.2837 17.9855 94.4378 17.9855C96.5919 17.9855 98.3582 19.4201 98.3582 21.5742V24.6488Z" fill="#2CA6E0"/>
<path d="M14.1628 10.1775C14.1628 5.43001 11.8498 1.34141 10.0882 0.0143662C10.0882 0.0143662 9.9527 -0.0603968 9.96672 0.131183C9.82187 9.30366 5.13517 11.7895 2.56052 15.1352C-3.38313 22.8638 2.13998 31.3354 7.77523 32.9007C10.9153 33.7792 7.04629 31.3494 6.54632 26.2234C5.9342 20.0368 14.1628 15.3081 14.1628 10.1775V10.1775Z" fill="#1B2143"/>
<path d="M16.8637 13.3036C16.8263 13.2802 16.7749 13.2615 16.7422 13.3223C16.644 14.4764 15.4665 16.9436 13.9713 19.2145C8.9014 26.9057 11.7891 30.6159 13.4152 32.6111C14.3591 33.7652 13.4152 32.6111 15.7702 31.4289C18.6813 29.6626 20.5691 26.6067 20.8494 23.2143C21.312 17.7473 18.0318 14.3035 16.8637 13.3036V13.3036Z" fill="#2CA6E0"/>
</svg>
