<svg width="112" height="18" viewBox="0 0 112 18" fill="none" xmlns="http://www.w3.org/2000/svg">
<path d="M10.3652 0.0243664C12.2902 -0.105199 14.2522 0.283492 15.9735 1.15343C18.5278 2.41206 20.5638 4.6702 21.5078 7.33554C21.9335 8.52014 22.1556 9.76026 22.1556 11.0189V15.6647C22.1556 15.8498 22.1556 16.0534 22.1186 16.2385C22.0076 16.7012 21.6744 17.127 21.2302 17.3306C20.9155 17.4786 20.5638 17.4971 20.2492 17.4416C19.5458 17.3121 18.9905 16.6457 18.9905 15.9239C18.9905 14.4801 18.9905 13.0364 18.9905 11.5927C19.0091 11.1855 19.0091 10.7413 18.7869 10.3896C18.4353 9.72324 17.5468 9.40858 16.862 9.68622C16.2697 9.88982 15.844 10.5006 15.8255 11.1299C15.8255 12.5922 15.8255 14.0544 15.8255 15.5167C15.8255 15.7943 15.844 16.0719 15.7514 16.3311C15.6033 16.8493 15.1776 17.2565 14.6594 17.4046C13.9745 17.5897 13.1971 17.2935 12.864 16.6642C12.6233 16.294 12.6419 15.8313 12.6604 15.4056C12.6604 13.9434 12.6604 12.4996 12.6604 11.0374C12.6419 10.297 12.031 9.63069 11.3092 9.53815C10.8279 9.46411 10.3282 9.63069 9.97651 9.96386C9.66186 10.26 9.49527 10.6857 9.49527 11.1114V15.3501C9.49527 15.7017 9.53229 16.0719 9.40273 16.4051C9.19912 17.0159 8.58832 17.4601 7.94049 17.4416C7.27416 17.4786 6.62633 17.0159 6.42273 16.4051C6.31167 16.0904 6.33018 15.7758 6.33018 15.4426C6.33018 13.9804 6.33018 12.5181 6.33018 11.0559C6.33018 10.334 5.75639 9.66771 5.05304 9.53815C4.40521 9.40858 3.70186 9.72324 3.36869 10.3155C3.23913 10.5562 3.16509 10.8338 3.16509 11.1114V15.8683C3.16509 16.3311 2.96149 16.7938 2.60981 17.0899C2.07304 17.5527 1.2031 17.5897 0.647826 17.164C0.240621 16.8863 0 16.4051 0 15.9053V11.0929C0 9.27902 0.462733 7.46511 1.33267 5.8548C2.03602 4.54064 3.01702 3.37455 4.1831 2.44908C5.90447 1.00535 8.10707 0.153932 10.3652 0.0243664Z" fill="#5741D9"/>
<path d="M53.6233 5.59577H51.2171C51.3096 3.91142 51.6613 2.39366 53.1976 1.43117C54.7338 0.4872 56.4182 0.265089 58.1766 0.413163C59.1205 0.4872 60.0645 0.690805 60.9345 1.09801C62.4707 1.80136 63.2296 3.00447 63.2296 4.68881C63.2296 7.66881 63.2296 10.6488 63.2296 13.6288C63.2296 14.7209 63.4517 14.9245 64.5438 14.8134C64.6548 14.7949 64.7844 14.7764 64.8954 14.7579C64.914 14.8134 64.914 14.8689 64.914 14.9059V16.7199C64.044 17.016 63.1556 17.1086 62.2856 16.8679C61.6378 16.6828 61.2306 16.2201 61.0085 15.6093C60.8974 15.2946 60.8234 14.9615 60.7309 14.6098C60.6383 14.7209 60.5643 14.8134 60.4717 14.9059C58.5653 16.8309 56.3071 17.6453 53.6418 16.9605C51.7538 16.4792 50.4582 14.7579 50.4027 12.7959C50.3841 12.1666 50.4397 11.5373 50.5878 10.9264C50.9394 9.51974 51.9389 8.66831 53.1976 8.09452C54.086 7.68732 55.0485 7.57626 56.011 7.4467C57.14 7.29862 58.2506 7.16906 59.3797 7.00247C60.1385 6.89142 60.5272 6.48422 60.6383 5.72533C60.8789 4.18906 60.1941 3.17105 58.7133 2.80087C57.8249 2.57876 56.9179 2.54174 56.011 2.70832C54.6783 2.94894 53.9379 3.70782 53.6788 5.02198C53.6973 5.20708 53.6603 5.39216 53.6233 5.59577ZM60.7123 8.55725C59.6018 9.14955 58.5282 9.29763 57.4362 9.46422C56.5292 9.61229 55.6038 9.74185 54.7153 10.0195C53.5492 10.4082 53.0125 11.3707 53.1235 12.6663C53.2161 13.7399 53.9379 14.6098 55.104 14.7949C56.8994 15.091 58.4912 14.5913 59.7499 13.2586C60.12 12.8699 60.4162 12.3146 60.4902 11.7964C60.6568 10.7599 60.6383 9.70483 60.7123 8.55725ZM95.0101 11.6668C94.9545 11.926 94.9175 12.1481 94.862 12.3517C93.8255 15.5168 91.7154 16.8679 89.1611 17.1641C84.7374 17.6453 82.2016 14.7579 81.5538 11.6853C81.0356 9.2421 81.1096 6.81738 82.1831 4.52223C83.2011 2.35664 84.83 0.931423 87.2547 0.50571C90.1606 -0.0125508 94.2697 1.43117 94.9545 5.96595C95.1396 7.13204 95.1767 8.33515 95.2877 9.55676H84.0341C84.1266 11.2226 84.3857 12.7774 85.6073 13.9805C86.1071 14.4802 86.7549 14.7209 87.4583 14.8504C89.7349 15.2576 91.6229 14.1656 92.3632 11.963C92.4373 11.7224 92.5483 11.6483 92.789 11.6668C93.5108 11.6668 94.2327 11.6668 95.0101 11.6668ZM84.1266 7.40968H92.5483C92.4558 6.42869 92.2892 5.52173 91.8265 4.6703C91.3822 3.85589 90.7344 3.2636 89.846 2.96745C86.94 1.96795 83.9415 4.28161 84.1266 7.40968ZM101.063 16.6273H98.5083V0.746334H100.933V2.96745C101.118 2.76385 101.229 2.63428 101.34 2.50472C103.08 0.524222 105.264 0.0059596 107.744 0.616766C109.466 1.04248 110.428 2.2641 110.761 3.96695C110.891 4.6703 110.984 5.39217 110.984 6.09552C111.002 9.50123 111.002 12.9069 111.002 16.3127C111.002 16.4052 110.984 16.4977 110.984 16.6088H108.374V16.1831C108.374 12.9995 108.392 9.81589 108.355 6.63229C108.355 5.92894 108.244 5.20707 108.041 4.52223C107.707 3.41167 106.819 2.81937 105.653 2.76385C103.524 2.68981 101.84 3.81888 101.322 5.70682C101.137 6.39167 101.081 7.11353 101.081 7.83539C101.063 10.6303 101.063 13.4067 101.063 16.1646V16.6273ZM67.3942 0.746334H69.8559V7.48372C70.004 7.33564 70.0966 7.2616 70.1891 7.16906C72.2066 5.11453 74.2241 3.04148 76.2416 0.986953C76.4082 0.80186 76.5748 0.727823 76.8339 0.727823C77.7779 0.746333 78.7404 0.727823 79.7769 0.727823C79.6288 0.875898 79.5548 0.968442 79.4623 1.06099C77.6854 2.83788 75.927 4.63329 74.1316 6.39167C73.928 6.59527 73.928 6.72484 74.0575 6.94695C76.001 10.038 77.926 13.1291 79.851 16.2201C79.925 16.3312 79.9805 16.4422 80.0731 16.6088C79.9435 16.6273 79.851 16.6273 79.7399 16.6273C78.8515 16.6273 77.9815 16.6273 77.0931 16.6273C76.8525 16.6273 76.7414 16.5348 76.6118 16.3497C75.1311 13.8694 73.6503 11.3892 72.1696 8.89043C72.0956 8.77937 72.04 8.66831 71.9475 8.53875C71.2626 9.22359 70.5963 9.87142 69.93 10.5563C69.8374 10.6488 69.8189 10.8154 69.8189 10.945C69.8189 12.6848 69.8189 14.4247 69.8189 16.1646V16.6088C69.3377 16.6088 68.8564 16.6088 68.3937 16.6088C68.0605 16.6088 67.5978 16.7013 67.4127 16.5163C67.2461 16.3682 67.3387 15.8869 67.3387 15.5538V1.17205C67.3942 1.0795 67.3942 0.931427 67.3942 0.746334ZM38.9824 0.727823C36.9834 2.70832 35.0399 4.6518 33.078 6.59527C35.188 9.96397 37.2425 13.2586 39.3341 16.6273C39.1675 16.6273 39.0565 16.6458 38.9454 16.6458C38.094 16.6458 37.224 16.6458 36.3726 16.6458C36.132 16.6458 35.9839 16.5533 35.8544 16.3497C34.3736 13.8694 32.8929 11.3892 31.4121 8.89043C31.3566 8.77937 31.2826 8.68682 31.19 8.53875C30.8198 8.92745 30.4867 9.35316 30.0794 9.64931C29.2465 10.2786 29.0059 11.056 29.0614 12.0925C29.154 13.4437 29.0799 14.8134 29.0799 16.1646V16.6088H26.6367V0.746334H29.0799V7.37266C29.1355 7.40968 29.191 7.4467 29.228 7.48372C29.3021 7.37266 29.3391 7.2431 29.4131 7.15055C31.4121 5.09602 33.4296 3.05999 35.4286 0.986953C35.6137 0.80186 35.7803 0.709314 36.058 0.727823C36.8909 0.746333 37.7238 0.727823 38.5567 0.727823C38.6863 0.727823 38.7973 0.727823 38.9824 0.727823ZM43.8689 3.37465C45.109 1.56074 46.4232 0.0429816 48.8664 0.487205V3.20807C48.2186 3.24509 47.5707 3.22658 46.9599 3.35615C45.4607 3.6708 44.2946 5.04049 44.054 6.70633C44.017 7.03949 43.9799 7.37266 43.9799 7.70583C43.9799 10.5378 43.9799 13.3697 43.9799 16.2016V16.6458H41.4627V0.783349H43.8689C43.8689 1.61627 43.8689 2.44919 43.8689 3.37465Z" fill="#5741D9"/>
</svg>
