<svg width="112" height="26" viewBox="0 0 112 26" fill="none" xmlns="http://www.w3.org/2000/svg">
<path d="M87.361 12.8149C87.361 12.1605 87.361 11.5449 87.3398 10.9764C87.3253 10.4401 87.2722 9.90547 87.1809 9.3768C87.0954 8.89404 86.9445 8.42519 86.7324 7.9832C86.5085 7.52748 86.2093 7.11283 85.8473 6.75673C85.3339 6.23075 84.7231 5.80978 84.0488 5.51732C83.3194 5.22185 82.5382 5.07537 81.7512 5.08653C80.9613 5.07632 80.1772 5.22274 79.4443 5.51732C78.7661 5.80578 78.1514 6.22493 77.6352 6.75085C77.2739 7.10673 76.9758 7.52147 76.7536 7.97731C76.5432 8.4194 76.3947 8.88833 76.3122 9.37091C76.2229 9.89974 76.1718 10.4343 76.1592 10.9705C76.1451 11.539 76.138 12.1546 76.1415 12.809C76.1451 13.4634 76.1415 14.0743 76.1592 14.6463C76.1718 15.1825 76.2229 15.7171 76.3122 16.2459C76.3947 16.7285 76.5432 17.1974 76.7536 17.6395C76.9767 18.0948 77.2747 18.5094 77.6352 18.866C78.1506 19.3923 78.7655 19.8109 79.4443 20.0972C80.1768 20.3937 80.9611 20.5409 81.7512 20.5303C82.5384 20.5419 83.3199 20.3946 84.0488 20.0972C84.7232 19.8086 85.3343 19.3903 85.8473 18.866C86.2085 18.5092 86.5076 18.0947 86.7324 17.6395C86.9445 17.1975 87.0954 16.7287 87.1809 16.2459C87.2712 15.7187 87.3235 15.1857 87.3374 14.6511C87.3551 14.079 87.3633 13.467 87.3586 12.8137L87.361 12.8149ZM84.3948 12.8149C84.3948 13.5399 84.3842 14.1438 84.3595 14.624C84.3456 15.0185 84.3063 15.4116 84.2418 15.801C84.1977 16.0605 84.1185 16.3127 84.0064 16.5508C83.9154 16.7427 83.7964 16.92 83.6533 17.0769C83.4324 17.3298 83.1583 17.5308 82.8506 17.6654C82.5044 17.8136 82.1314 17.8889 81.7548 17.8868C81.3763 17.8884 81.0015 17.8131 80.6531 17.6654C80.3379 17.5333 80.0563 17.3322 79.8292 17.0769C79.6851 16.9207 79.566 16.7432 79.476 16.5508C79.3671 16.3124 79.2918 16.0601 79.2524 15.801C79.1896 15.4114 79.1503 15.0183 79.1347 14.624C79.1135 14.1438 79.1029 13.5407 79.1029 12.8149C79.1029 12.0898 79.1135 11.4849 79.1347 11.0046C79.1503 10.6103 79.1896 10.2172 79.2524 9.8276C79.2918 9.56851 79.3671 9.31617 79.476 9.07783C79.5663 8.88552 79.6854 8.7081 79.8292 8.5517C80.0567 8.29676 80.3381 8.09572 80.6531 7.96319C81.001 7.81385 81.3762 7.73849 81.7548 7.7419C82.1315 7.73799 82.5049 7.81339 82.8506 7.96319C83.158 8.09821 83.4321 8.29912 83.6533 8.5517C83.7962 8.70882 83.9151 8.88609 84.0064 9.07783C84.1185 9.31593 84.1977 9.56816 84.2418 9.8276C84.3062 10.217 84.3456 10.6102 84.3595 11.0046C84.3854 11.4837 84.3948 12.0887 84.3948 12.8149Z" fill="#23AF91"/>
<path d="M111.003 5.47961C111.002 5.33648 110.886 5.22076 110.743 5.21948H108.296C108.152 5.22013 108.036 5.33621 108.036 5.47961V14.5192L102.068 5.29246C102.028 5.23008 101.993 5.21948 101.904 5.21948H99.6351C99.4923 5.22138 99.3769 5.33674 99.375 5.47961V20.1477C99.3769 20.2904 99.4924 20.4054 99.6351 20.4067H102.081C102.224 20.406 102.339 20.2905 102.34 20.1477V11.0846L108.309 20.3325C108.35 20.3949 108.383 20.4055 108.472 20.4055H110.74C110.883 20.4049 110.999 20.2895 111 20.1465L111.003 5.47961Z" fill="#23AF91"/>
<path d="M94.5977 5.47961C94.5971 5.33621 94.481 5.22013 94.3376 5.21948H91.8929C91.7495 5.22013 91.6335 5.33621 91.6328 5.47961V20.1465C91.6335 20.2899 91.7495 20.406 91.8929 20.4067H94.3376C94.481 20.406 94.5971 20.2899 94.5977 20.1465V5.47961Z" fill="#23AF91"/>
<path d="M65.331 12.8146C65.331 12.0848 65.3392 11.4775 65.3604 10.9937C65.3748 10.5993 65.4141 10.2062 65.4781 9.8167C65.7041 8.5102 66.7046 7.73924 67.9817 7.73924C68.815 7.74631 69.5706 8.05469 70.0532 8.7562C70.2718 9.0837 70.4311 9.44703 70.524 9.82964C70.5312 9.86995 70.568 9.89807 70.6088 9.89438H73.4866C73.5278 9.89438 73.5431 9.86613 73.536 9.82611C73.2218 8.04527 72.2719 6.44569 70.5935 5.65355C69.7686 5.27162 68.8682 5.08052 67.9593 5.09446C66.3389 5.09446 64.974 5.64923 63.8644 6.75878C63.2309 7.37616 62.7986 8.17037 62.6238 9.0375C62.4543 9.89124 62.3688 11.1499 62.3672 12.8134C62.3657 14.4769 62.4512 15.7352 62.6238 16.5881C62.7971 17.4564 63.2282 18.2522 63.8609 18.8716C64.9696 19.9803 66.3346 20.5347 67.9558 20.5347C68.8645 20.5485 69.7648 20.3578 70.5899 19.9768C72.2684 19.1847 73.2182 17.5851 73.5325 15.8042C73.5396 15.763 73.5243 15.736 73.4831 15.736H70.6041C70.5631 15.7317 70.526 15.7601 70.5193 15.8007C70.4262 16.1829 70.2669 16.5458 70.0485 16.873C69.5659 17.5792 68.8103 17.884 67.9769 17.8899C66.6999 17.8899 65.6994 17.1202 65.4734 15.8137C65.4095 15.4242 65.3702 15.0311 65.3557 14.6366C65.3392 14.1505 65.331 13.542 65.331 12.8146Z" fill="#23AF91"/>
<path d="M34.9337 5.47961C34.933 5.33621 34.817 5.22013 34.6736 5.21948H32.2289C32.0855 5.22013 31.9694 5.33621 31.9688 5.47961V20.1477C31.97 20.2907 32.0859 20.406 32.2289 20.4068H34.6736C34.8165 20.406 34.9324 20.2907 34.9337 20.1477V15.8422L36.8958 13.4963L40.9259 20.329C40.957 20.3794 41.0128 20.4091 41.0719 20.4068H44.0427C44.1792 20.4068 44.204 20.3219 44.1357 20.2054L38.8591 11.26L43.7002 5.45253C43.7979 5.33483 43.7567 5.22301 43.6037 5.22301H40.3562C40.3167 5.22069 40.2787 5.23838 40.255 5.27009L34.9337 11.6519V5.47961Z" fill="#23AF91"/>
<path d="M52.7487 17.8902C51.3727 17.8902 50.1251 16.6166 50.1251 15.0959V5.47961C50.1244 5.33621 50.0084 5.22013 49.865 5.21948H47.4203C47.2769 5.22013 47.1608 5.33621 47.1602 5.47961V15.0583C47.1602 18.4069 49.6649 20.535 52.7487 20.535C55.8325 20.535 58.3372 18.4069 58.3372 15.0583V5.47961C58.3359 5.33648 58.2202 5.22076 58.0771 5.21948H55.6312C55.4883 5.22077 55.3729 5.33667 55.3723 5.47961V15.0959C55.3723 16.6155 54.1235 17.8902 52.7487 17.8902Z" fill="#23AF91"/>
<path fill-rule="evenodd" clip-rule="evenodd" d="M7.39644 12.8149L14.9859 20.4056L19.7764 15.6151C20.633 14.8438 21.9435 14.8781 22.7586 15.6932C23.5737 16.5082 23.608 17.8188 22.8367 18.6754L16.5149 24.9984C15.6657 25.8335 14.3038 25.8335 13.4546 24.9984L4.33382 15.8752V21.2978C4.33382 22.4945 3.36366 23.4647 2.16691 23.4647C0.970158 23.4647 0 22.4945 0 21.2978V4.32504C0 3.12829 0.970158 2.15813 2.16691 2.15813C3.36366 2.15813 4.33382 3.12829 4.33382 4.32504V9.74761L13.4534 0.626817C14.3023 -0.208939 15.6648 -0.208939 16.5137 0.626817L22.8402 6.94863C23.6115 7.80524 23.5772 9.11575 22.7621 9.93082C21.9471 10.7459 20.6366 10.7802 19.78 10.0089L14.9894 5.2184L7.39644 12.8149ZM14.9894 10.6457C14.112 10.6452 13.3206 11.1734 12.9845 11.984C12.6483 12.7945 12.8336 13.7278 13.454 14.3484C14.0743 14.9691 15.0074 15.1549 15.8181 14.8192C16.6289 14.4835 17.1575 13.6924 17.1575 12.8149C17.1578 12.2396 16.9296 11.6877 16.523 11.2807C16.1164 10.8737 15.5648 10.6448 14.9894 10.6445V10.6457Z" fill="#23AF91"/>
</svg>
