<svg width="111" height="40" viewBox="0 0 111 40" fill="none" xmlns="http://www.w3.org/2000/svg">
<path d="M62.3754 19.5981C62.3754 20.9123 62.1712 22.1555 61.745 23.301C61.3187 24.4687 60.7282 25.4677 59.929 26.338C59.1343 27.2082 58.1708 27.892 57.0031 28.4114C55.8354 28.9309 54.5212 29.1707 53.0382 29.1707C51.5553 29.1707 50.241 28.9131 49.0733 28.4114C47.9056 27.892 46.9422 27.2082 46.1474 26.338C45.3527 25.4677 44.7399 24.4465 44.3315 23.301C43.923 22.1333 43.7188 20.9123 43.7188 19.5981C43.7188 18.3017 43.923 17.0585 44.3315 15.8952C44.7399 14.7319 45.3482 13.7107 46.1474 12.8405C46.9422 11.9703 47.9278 11.2865 49.0733 10.767C50.241 10.2476 51.5553 10.0078 53.0382 10.0078C54.5212 10.0078 55.8354 10.2653 57.0031 10.767C58.1708 11.2865 59.1343 11.9703 59.929 12.8405C60.7238 13.7107 61.3187 14.7319 61.745 15.8952C62.1712 17.0585 62.3754 18.3017 62.3754 19.5981ZM53.056 26.1382C53.9617 26.1382 54.7609 25.9695 55.4269 25.6365C56.1107 25.3035 56.6701 24.8417 57.1319 24.2645C57.5936 23.6696 57.9266 22.9858 58.1486 22.1911C58.3706 21.3963 58.4816 20.5216 58.4816 19.5981C58.4816 18.6746 58.3706 17.7999 58.1486 17.0052C57.9266 16.2104 57.5936 15.5222 57.1319 14.9317C56.6701 14.3368 56.1151 13.8928 55.4269 13.5598C54.7432 13.2268 53.9617 13.0581 53.056 13.0581C52.1502 13.0581 51.351 13.2268 50.685 13.5598C50.0013 13.8928 49.4419 14.3545 48.9801 14.9317C48.5183 15.5267 48.1853 16.2104 47.9633 17.0052C47.7413 17.7999 47.6303 18.6746 47.6303 19.5981C47.6303 20.5216 47.7413 21.3963 47.9633 22.1911C48.1853 22.9858 48.5183 23.674 48.9801 24.2645C49.4419 24.8595 49.9968 25.3035 50.685 25.6365C51.351 25.9695 52.1502 26.1382 53.056 26.1382ZM64.8219 28.8599V10.3364H68.7113V19.2296L75.1403 10.3364H79.6424L72.8271 19.4871L80.1086 28.8599H75.2913L68.6979 19.7624V28.8599H64.8219ZM81.6582 10.3364H92.7936V13.431H85.5698V17.9154H92.4606V20.9923H85.5698V25.7697H92.8868V28.8599H81.6804V10.3364H81.6582ZM106.668 10.3364H110.891L104.795 19.5448L111.002 28.8599H106.739L102.739 22.5418L98.7387 28.8599H94.4763L100.683 19.5404L94.5873 10.3319H98.8097L102.739 16.5923L106.668 10.3364Z" fill="#1A1A1A"/>
<path d="M19.6354 17.7865C24.547 17.7865 28.5286 13.8048 28.5286 8.89323C28.5286 3.98164 24.547 0 19.6354 0C14.7238 0 10.7422 3.98164 10.7422 8.89323C10.7422 13.8048 14.7238 17.7865 19.6354 17.7865Z" fill="#88BDF3"/>
<path d="M19.6354 39.2712C24.547 39.2712 28.5286 35.2896 28.5286 30.378C28.5286 25.4664 24.547 21.4847 19.6354 21.4847C14.7238 21.4847 10.7422 25.4664 10.7422 30.378C10.7422 35.2896 14.7238 39.2712 19.6354 39.2712Z" fill="#3075EE"/>
<path d="M30.3776 28.5311C35.2892 28.5311 39.2708 24.5495 39.2708 19.6379C39.2708 14.7263 35.2892 10.7446 30.3776 10.7446C25.466 10.7446 21.4844 14.7263 21.4844 19.6379C21.4844 24.5495 25.466 28.5311 30.3776 28.5311Z" fill="#5795F1"/>
<path d="M8.89323 28.5311C13.8048 28.5311 17.7865 24.5495 17.7865 19.6379C17.7865 14.7263 13.8048 10.7446 8.89323 10.7446C3.98164 10.7446 0 14.7263 0 19.6379C0 24.5495 3.98164 28.5311 8.89323 28.5311Z" fill="#205FEC"/>
<path d="M17.5401 17.5424C14.3166 16.7654 11.777 14.2257 11 11.0023C14.2056 11.7838 16.7453 14.319 17.5401 17.5424Z" fill="#134BEF"/>
<path d="M10.9844 28.287C11.7614 25.0636 14.301 22.5239 17.5244 21.7469C16.7474 24.9526 14.2078 27.4923 10.9844 28.287Z" fill="#0932E8"/>
<path d="M21.7305 21.7292C24.9539 22.5062 27.4935 25.0459 28.2705 28.2693C25.0649 27.4923 22.5252 24.9527 21.7305 21.7292Z" fill="#164BEA"/>
<path d="M28.2861 10.9847C27.5092 14.2081 24.9695 16.7478 21.7461 17.5248C22.5231 14.3191 25.0627 11.7839 28.2861 10.9847Z" fill="#3170F1"/>
</svg>
